<?xml version="1.0" encoding="UTF-8"?>
<svg xmlns="http://www.w3.org/2000/svg" viewBox="0 0 485.62 558.63">
  <defs>
    <style>
      .cls-1 {
        fill: #848484;
      }

      .cls-2 {
        font-family: SairaSemiCondensed-Medium, 'Saira SemiCondensed';
        font-weight: 500;
      }

      .cls-2, .cls-3 {
        font-size: 20px;
      }

      .cls-4 {
        isolation: isolate;
      }

      .cls-5 {
        opacity: .2;
      }

      .cls-6 {
        letter-spacing: 0em;
      }

      .cls-7 {
        fill: #eae9e8;
      }

      .cls-3 {
        font-family: SairaSemiCondensed-Bold, 'Saira SemiCondensed';
        font-weight: 700;
      }

      .cls-3, .cls-8, .cls-9, .cls-10 {
        mix-blend-mode: multiply;
      }

      .cls-11 {
        letter-spacing: -.04em;
      }

      .cls-8 {
        opacity: .8;
      }

      .cls-12, .cls-9, .cls-13, .cls-14 {
        fill: none;
      }

      .cls-9 {
        stroke-miterlimit: 10;
        stroke-width: 2px;
      }

      .cls-9, .cls-14 {
        stroke: #f21515;
      }

      .cls-13 {
        stroke: #000;
        stroke-dasharray: 0 0 3 6;
        stroke-width: 1.5px;
      }

      .cls-13, .cls-14 {
        stroke-linecap: round;
        stroke-linejoin: round;
      }

      .cls-10 {
        opacity: .6;
      }
    </style>
  </defs>
  <g class="cls-4">
    <g id="Capa_2" data-name="Capa 2">
      <g id="Capa_1-2" data-name="Capa 1">
        <g>
          <g>
            <g class="cls-10">
              <path class="cls-14" d="m155.98,26.36s.43-.15.43-.15c.02.05,3.85.55,3.85.56.02.04,2.48-.86,2.48-.85.04.12-4.55,4.72-4.55,4.73.05.13,8.74-3.08,8.76-3.02.07.2-14.31,6.32-14.27,6.42.07.2,14.38-5.15,14.44-4.97.02.05-12.95,5.47-12.9,5.61.04.12,12.51-4.54,12.59-4.33.08.23-14.69,6.97-14.69,6.97.09.25,18.7-6.65,18.77-6.46,0,.02-15.4,6.76-15.38,6.81,0,0,22.63-7.84,22.65-7.8.05.15-23.01,9.97-22.96,10.1.02.05,24.74-8.56,24.75-8.52.06.16-24.73,10.05-24.58,10.48,0,0,26.07-9.13,26.11-8.99.1.3-22.75,10.21-22.74,10.24.19.55,28.9-10.13,28.96-9.97.07.2-29.95,11.98-29.85,12.27,0,.03,32.7-11.68,32.83-11.3.21.6-37.14,15.31-36.97,15.83.03.08,38.97-13.44,38.97-13.42.17.5-32.41,13.36-32.22,13.9.11.33,35.42-12.39,35.48-12.22.27.77-41.35,15.21-41.09,15.95s50.19-18.18,50.47-17.38c.06.17-47.28,16.57-47.04,17.27.21.62,43.23-15.79,43.51-14.98.12.36-47.85,16.63-47.56,17.47.27.79,51.57-17.94,51.63-17.78.1.3-50.99,20.1-50.89,20.39.28.8,54.87-18.97,54.89-18.9.05.15-53.28,18.61-52.98,19.47.08.24,53.36-19.5,53.71-18.49.21.62-50.05,19.44-49.91,19.85.41,1.19,51.19-17.63,51.19-17.63.36,1.04-52.13,18.74-51.96,19.23.34.98,55.68-20.34,56.03-19.29.24.7-64.36,22.03-63.97,23.18.31.89,65.2-23.13,65.41-22.52.3.88-63.93,23.41-63.58,24.43.42,1.23,68.46-24.92,68.88-23.72.22.65-70.11,24.03-69.74,25.1.04.11,75.86-27.24,76.2-26.24.22.63-73.46,25.35-72.95,26.82.38,1.11,75.7-26.18,75.74-26.08.24.7-77.54,27.42-77.07,28.78.41,1.2,77.21-26.8,77.28-26.61.38,1.11-77.53,28.32-77.14,29.47.03.07,77.65-27.57,77.9-26.82.49,1.41-74.04,28.24-73.98,28.39.29.83,83.62-29.17,83.74-28.83.33.97-89.08,31.96-88.92,32.43.4,1.17,92.58-32.26,92.7-31.92.5,1.44-87.89,29.87-87.34,31.47.6,1.76,86.69-31.53,87.21-30.03.22.64-91.02,32.9-90.88,33.28.28.83,96.68-34.31,96.99-33.4.54,1.58-95.96,35.43-95.87,35.69.1.28,100.56-34.72,100.59-34.64.49,1.41-103.65,36.63-103.42,37.29.14.42,103.94-36.56,104.18-35.87.61,1.76-100.23,34.98-99.63,36.71s100.85-35.9,101.21-34.85-105.14,37.79-104.83,38.68c.41,1.18,109.45-38.14,109.58-37.73.62,1.8-108.86,37.25-108.41,38.57,0,.02,108.06-38.97,108.6-37.4.28.81-104.84,36.74-104.46,37.83.23.67,109.67-39,110.05-37.89.27.79-118.07,42.62-117.97,42.94.08.23,118.1-41.45,118.34-40.75.67,1.95-117.89,41.23-117.53,42.26.16.47,119.98-43.35,120.6-41.53s-115.88,42.8-115.85,42.87c.66,1.9,128.41-46,128.96-44.4.61,1.77-128.24,44.37-127.8,45.67.72,2.08,129.18-44.92,129.32-44.53.05.16-129.53,44.58-129.13,45.76.29.83,128.67-46.45,129.33-44.53.22.63-132.3,46.52-131.9,47.69.53,1.55,133.94-46.82,134.16-46.19.18.52-136.54,47.04-135.8,49.2.09.27,139.53-49.77,140.06-48.23.86,2.51-142.07,48.31-141.49,50.02.29.85,145.62-51.87,146.15-50.32.84,2.45-144.26,47.88-143.35,50.52,0,0,143.85-49.66,143.89-49.55.26.77-146.25,52.57-146.18,52.77.41,1.2,145.31-50.72,145.52-50.11.12.34-147.97,51.77-147.56,52.97,1,2.92,150.85-51.95,150.85-51.94.31.9-148.46,51.82-148.03,53.07.3.86,158.51-54.85,158.6-54.61.37,1.07-157.55,53.25-156.6,56,.34.98,153.22-54.73,153.82-52.97.77,2.24-159.35,54.48-158.74,56.27,1.07,3.1,162.82-56.39,162.92-56.1.18.52-158.33,56.57-158.1,57.23.16.45,161.51-57.51,162.1-55.81.95,2.76-159.97,56.69-159.75,57.35.36,1.03,164.45-57.15,164.61-56.68.65,1.9-166.55,56.07-165.69,58.55.7,2.02,168.03-59.59,168.56-58.04.15.44-171.9,58.18-170.88,61.12,1.11,3.22,169.73-60.26,170.29-58.64.81,2.34-168.37,59.64-168.05,60.58.59,1.72,178.6-64.11,179.4-61.77,1.12,3.25-182.54,61.91-181.65,64.49,1.02,2.97,178.4-62.12,178.62-61.5.35,1.01-182.25,64.09-181.95,64.96.82,2.38,193.61-68.65,194.22-66.87.47,1.38-190.44,67.46-190.09,68.5.68,1.97,186.9-66.15,187.45-64.54,1.02,2.97-189.17,62.99-188.09,66.14.71,2.06,189.97-66.58,190.32-65.53.11.32-188.75,67.38-188.62,67.76,1.12,3.27,198.42-71.35,199.35-68.64.57,1.66-205.28,73.39-205.24,73.5.27.79,199.22-69.34,199.45-68.68.82,2.39-191.7,64.56-190.45,68.2.2.59,189.46-66.24,189.77-65.34,1.31,3.81-195.74,64.42-194.49,68.07.66,1.9,200.62-69.7,200.81-69.15.01.04-201.47,67.33-200.44,70.31.54,1.58,196.33-69.68,196.96-67.82,1.15,3.35-192.86,67.78-192.35,69.25.68,1.98,194.23-67.59,194.45-66.95.74,2.15-203.94,68.95-202.93,71.89,1.2,3.49,201.48-70.58,201.85-69.5.79,2.3-200.91,67.61-199.92,70.49.36,1.05,193.26-68.46,193.85-66.75.12.34-193.7,67.3-193.32,68.41.07.21,192.81-68.59,193.49-66.62.18.53-192.8,64.28-191.67,67.56.44,1.28,192.41-70.38,193.68-66.69.65,1.88-192.06,65.92-191.37,67.9,1.23,3.57,195.84-70.56,196.8-67.76,1.18,3.42-198.9,65.43-197.54,69.38,1.24,3.59,194.5-67.26,194.59-67,.55,1.6-193.23,64.07-191.96,67.78,0,0,189.49-69.08,190.67-65.65.85,2.46-194.55,66.44-193.9,68.32.58,1.68,194.99-70.7,196.08-67.52s-196.6,69.82-196.58,69.89c.58,1.7,198.04-71.08,198.93-68.5,1.32,3.83-200.9,68.18-200.25,70.08,1.11,3.22,193.43-68.74,194.09-66.83.53,1.54-199.02,67.38-198.33,69.4.59,1.71,197.85-69.41,198.24-68.26.63,1.82-192.52,64.98-191.75,67.22,1.08,3.12,192.2-67.87,192.72-66.36.23.68-200.32,68.67-199.35,71.5.23.66,199.17-70.34,199.71-68.77.78,2.27-196.69,68.15-196.21,69.55.08.24,193.08-70.47,194.31-66.91.61,1.76-191.27,65.2-190.5,67.43.86,2.49,191.99-67.61,192.45-66.27.84,2.44-197.54,67.49-196.68,69.99.81,2.36,199.37-70.06,199.81-68.8.19.54-201.88,68.54-200.63,72.17,1.11,3.22,201.37-71.55,202.05-69.57.79,2.31-198.76,68.46-197.86,71.08.64,1.85,192.12-68.49,192.84-66.4.07.2-197.85,68.92-197.63,69.55.3.88,197.1-68.45,197.28-67.93,1.24,3.59-192.04,66.98-191.62,68.19.37,1.06,195.52-70.12,196.38-67.62.51,1.48-197.98,71.11-197.92,71.27.85,2.48,193.61-67.53,193.88-66.76.6,1.75-199.24,66.86-197.89,70.78.75,2.19,200.23-72.28,201.26-69.3,1.15,3.35-195.17,65.92-194.26,68.56.42,1.22,192.8-68.81,193.55-66.64.29.84-201.02,70.72-200.72,71.6.78,2.27,202.92-71.46,203.41-70.04.91,2.65-200.38,67.44-199.3,70.59.79,2.31,194.28-71.27,195.63-67.36.74,2.14-199.7,71.52-199.64,71.68,1.33,3.87,197.06-72.17,198.39-68.31.9,2.6-196.74,67.07-196.02,69.16,1.13,3.27,193.52-69.82,194.5-66.97.87,2.51-194.8,67.23-194.49,68.15.21.61,191.82-69.67,192.94-66.43,1.31,3.79-189.43,67.04-189.25,67.57.28.82,194.32-71,195.58-67.34.67,1.94-196.9,66-196.01,68.61,1,2.9,192.84-70.43,194.08-66.83,1.11,3.23-193.26,65.62-192.44,68,1.15,3.34,191.77-69.8,192.93-66.43s-201.07,70.88-200.77,71.76c.49,1.42,196.3-68.96,196.72-67.74.99,2.88-197.44,69.14-197.15,69.99.74,2.15,202.52-70.97,202.9-69.86.52,1.52-198.73,68.04-197.76,70.86.87,2.53,191.23-66.18,191.33-65.88.88,2.57-195.54,67.9-194.88,69.81.13.38,195.43-67.75,195.57-67.34,1.36,3.96-198.96,66.02-197.8,69.37,1.16,3.37,198.14-70.25,198.76-68.44.58,1.67-194.55,64.91-193.43,68.17.5,1.45,194.09-68.01,194.45-66.95,0,.02-195.75,66.85-195.09,68.76.52,1.52,193.32-68.13,193.8-66.73.88,2.55-197.22,66.28-195.95,69.96.77,2.24,200.33-71.89,201.23-69.29,1.03,2.98-198.27,68.94-197.78,70.37,1.16,3.38,190.54-65.94,190.64-65.64.87,2.52-192.04,65.04-191.22,67.44.1.28,193.9-69.17,194.64-67.02.16.46-191.22,68.26-191.1,68.61.94,2.72,188.11-66.1,188.52-64.91.02.07-196.31,67.47-195.69,69.27.54,1.57,195.49-70.26,196.39-67.62.26.75-191.79,68.11-191.72,68.31.58,1.69,190.7-68.78,191.66-65.99.3.86-194.34,65.91-193.44,68.52.49,1.43,196.88-72.07,198.2-68.25,1.16,3.38-200.8,70.1-200.29,71.57,1.14,3.3,194.07-67.17,194.17-66.86.63,1.83-195.42,68.27-194.74,70.23,1.16,3.36,194.8-67.77,195.02-67.15.18.52-194,67.33-193.78,67.97.98,2.84,195.48-70.73,196.53-67.67.23.68-193.57,67.31-192.83,69.45.34.98,193.5-68.74,194.15-66.85,1.37,3.97-200.86,67.59-199.72,70.91.17.5,199.64-71.69,200.55-69.06.5,1.45-197.52,67.45-196.37,70.79.92,2.66,196.88-70.52,197.72-68.08s-197.92,69.85-197.73,70.42c.81,2.37,192.42-68.39,193.08-66.48.19.54-196.98,66.76-195.97,69.67.44,1.27,198.55-70.79,199.3-68.62,1.01,2.93-200.35,70.38-199.94,71.58.65,1.9,202.7-71.28,203.16-69.95.93,2.71-202.84,71.95-202.66,72.46.81,2.36,200.49-70.96,201.08-69.24,1.1,3.2-199.74,66.58-198.59,69.92.73,2.11,193.33-68.01,193.78-66.72.18.52-195.22,68.47-195.01,69.08,1.26,3.65,200.1-69.34,200.24-68.95.24.69-197.22,66.96-196.51,69.03,1.18,3.41,195.2-71.1,196.39-67.62.59,1.7-200.59,67.49-199.5,70.65.39,1.15,197.39-71.28,198.41-68.32.31.91-197.04,67.05-196.17,69.57.22.63,196-69.62,196.65-67.71.8,2.34-201.32,66.59-200.02,70.37.3.86,195.64-68.56,196-67.49.52,1.51-198.43,68.5-197.63,70.83s195.87-70.65,196.85-67.78c.59,1.72-191.88,66.06-191.21,67.99.7,2.04,187.91-69.05,189.25-65.16.35,1.02-191.77,67.19-191.66,67.52.57,1.67,197.85-71.91,199.01-68.53.86,2.51-199.23,69.91-199,70.59.83,2.42,191.55-70.19,192.86-66.41.48,1.38-193.01,66.91-192.51,68.37.44,1.28,197.53-69.61,198.02-68.18,1.11,3.23-194.94,67.12-194.52,68.36,1.08,3.14,194.91-69.93,195.77-67.41.74,2.14-198.02,69.47-198,69.52.99,2.88,198.38-68.55,198.45-68.33.55,1.61-197.02,67.25-196.21,69.61.99,2.88,191.41-68.39,192.17-66.17.69,2.01-200.72,67.54-199.47,71.14.88,2.55,203.29-70.74,203.52-70.08,1.19,3.45-196.58,66.31-195.82,68.51.47,1.36,189.02-67.45,189.75-65.34,1.1,3.18-191.18,64.24-190.22,67.03,1.33,3.87,191.07-66.04,191.14-65.82.67,1.93-196.11,68.08-195.86,68.8.37,1.08,192.18-69.46,193.19-66.52.22.64-193.12,66.44-192.19,69.13.42,1.21,192.77-67.13,193.01-66.46.46,1.33-190.68,64.96-189.55,68.22.76,2.22,192.84-67.17,193.08-66.48,1.1,3.19-196.3,67.75-195.92,68.85,1.24,3.59,195.15-71.33,196.43-67.64.11.31-197.45,69.22-196.85,70.94,1.3,3.77,193.61-70.09,194.66-67.03.89,2.58-194.48,68.17-194.21,68.95,1.1,3.19,195.08-70.43,196.09-67.52.38,1.1-197.79,68.96-197.59,69.54,1.21,3.52,199.81-70.19,200.24-68.95.84,2.43-197.33,68.44-196.94,69.59.86,2.49,194.3-68.35,194.74-67.05.21.61-198.21,69.29-197.75,70.62,1.32,3.83,198.15-69.14,198.43-68.33.67,1.95-198.81,70.07-198.46,71.08.46,1.33,195.02-70.58,196.08-67.52.65,1.89-198.53,68.86-198.34,69.41.37,1.07,194.48-69.18,195.16-67.2,1.21,3.53-194.25,67.42-193.6,69.33,1.09,3.16,195.77-71.48,197.02-67.84.31.89-194.03,64.03-192.78,67.68.02.06,188.99-66.6,189.46-65.23.07.22-193.22,66.94-192.44,69.21.05.15,199.2-70.43,199.77-68.79,1.32,3.83-196.65,68.6-196.49,69.05,0,.01,193.54-69.49,194.42-66.94.48,1.38-197.66,67.56-197.16,69,.43,1.23,199.13-72.47,200.34-68.98s-205.78,71.77-205.29,73.19c.58,1.69,198.59-70.6,199.27-68.61.89,2.59-192.3,66.04-191.56,68.21.43,1.26,193.8-70.03,194.82-67.08.51,1.48-201.8,70.39-201.17,72.22.41,1.2,201.27-70.72,201.71-69.45.09.27-199.41,70.53-199.34,70.73,1.21,3.52,200.01-70.3,200.45-69.02.81,2.34-197.69,70.15-197.53,70.62.68,1.99,190.72-66.91,191.1-65.8.17.5-193.84,64.76-192.57,68.45.53,1.53,197.9-71.05,198.79-68.45.66,1.91-202.97,68.91-201.85,72.15.47,1.36,193.22-70.74,194.52-66.98.18.53-197.64,66.84-196.39,70.47.77,2.24,194.89-70.15,195.82-67.43.48,1.4-197.62,66.49-196.33,70.23.56,1.63,203.26-74.06,204.51-70.42.79,2.29-196.84,66.02-195.49,69.94.8,2.32,187.21-65.55,187.54-64.58.24.71-193.66,66.45-193.25,67.65,1.35,3.92,197.43-70.43,198.18-68.24s-195.16,64.37-193.86,68.14c.46,1.33,192.56-67.97,193.07-66.48.39,1.13-200.25,67.64-199.45,69.96,1.19,3.45,195.09-67.57,195.21-67.22s-197.19,68.27-196.39,70.59c1.05,3.05,200.26-72.86,201.46-69.37,1.3,3.77-197.93,66.29-196.81,69.57.18.53,199.39-69.18,199.55-68.71.04.12-203.98,70.51-203.32,72.41.01.04,195.13-68.32,195.48-67.31.99,2.89-193.54,65.4-192.6,68.14.05.16,195.81-71.58,197.09-67.86.73,2.11-196.58,66.66-195.5,69.79.46,1.35,199.3-70.69,199.94-68.85,1.09,3.16-198.25,67.7-197.63,69.48,1.03,2.98,191.09-67.58,191.64-65.99.45,1.32-196.15,64.84-194.88,68.52.8,2.32,193.54-68.78,194.2-66.87s-191.81,67.97-191.75,68.17c.86,2.5,194.73-67.16,194.77-67.06.36,1.06-199.48,68.95-198.67,71.29.09.27,197.74-71.74,198.86-68.47.27.77-200.17,69.08-199.7,70.44.91,2.66,196.05-68.4,196.33-67.6.7,2.02-196.54,70.54-196.45,70.78.18.52,199.99-70.36,200.45-69.02,1.35,3.92-196.65,68.94-196.43,69.6,1.24,3.61,190.87-68.81,191.82-66.05.18.53-191.57,63.99-190.33,67.57.59,1.72,194.07-70.87,195.32-67.25,1.18,3.42-195.74,68.04-195.42,68.97.12.34,195.87-70.84,196.92-67.8.26.75-201.68,69.53-201.22,70.86.59,1.72,195.97-69.02,196.44-67.64.76,2.2-195.77,69.12-195.45,70.03.6,1.75,193.1-69.78,194.11-66.84.53,1.54-198.28,68.72-198.02,69.48.8,2.32,195.85-70.7,196.86-67.78,1.08,3.13-196.2,66.74-195.45,68.91,1.1,3.19,195.69-69.97,196.49-67.66,1.15,3.34-197.29,68.2-196.93,69.25.73,2.13,203.43-72.38,204.14-70.29.82,2.39-206.02,71.65-205.43,73.37.27.79,204.46-74,205.57-70.78,1.32,3.84-200.74,66.94-199.5,70.56.77,2.23,189.71-67.83,190.49-65.59.42,1.23-191.27,65.73-190.69,67.4s191.99-66.42,192.09-66.14c.38,1.1-196,69.55-196,69.56.51,1.49,196.97-72.14,198.3-68.28.45,1.3-199.71,71.23-199.68,71.33.15.42,201.17-70.74,201.62-69.42.97,2.81-201.98,66.94-200.64,70.84s197.73-70.33,198.42-68.32c1.17,3.39-193.2,65.54-192.21,68.42.33.95,194.86-69.05,195.46-67.3.4,1.17-203.24,67.99-202.01,71.56.7,2.05,194.36-69.82,195.25-67.23.83,2.42-191.79,67.77-191.76,67.85.65,1.88,195.94-70.16,196.77-67.75.14.4-197.74,69.02-197.33,70.23,1.1,3.2,197.91-72.1,199.13-68.57.2.58-202.64,71.11-202.15,72.52,0,0,203.4-71.74,203.93-70.22.27.8-199.47,71.2-199.39,71.43.56,1.61,195.8-69.89,196.56-67.68,0,.02-198.98,69.57-198.76,70.2.54,1.56,200.18-71.91,201.1-69.24,1.32,3.82-199.31,67.01-198.11,70.5.59,1.71,192.25-68.92,193.09-66.49.08.22-196.05,66.53-195.28,68.75.97,2.81,194.5-69.64,195.33-67.26.26.77-197.39,67.43-196.52,69.96,1.35,3.91,196.04-68.13,196.24-67.57.57,1.66-197.61,69.38-197.19,70.59.79,2.29,200.25-71.92,201.16-69.26s-201.18,69.04-200.67,70.54c.77,2.24,200.05-72.41,201.13-69.25.86,2.49-200.88,70.52-200.43,71.85.38,1.12,201.87-69.7,201.93-69.53,0,.02-201.57,70.33-200.97,72.08.21.62,194.92-68.06,195.22-67.22.45,1.3-194.19,67.35-193.96,68.02,1.07,3.11,196.17-68.65,196.51-67.66.46,1.33-195.06,67.57-194.77,68.41.41,1.2,191.28-65.89,191.28-65.86,1.15,3.33-193.88,64.59-192.88,67.49.12.35,195.81-70.94,196.89-67.79,1.33,3.87-196.04,65.35-195.04,68.25,1.17,3.39,195.26-67.91,195.46-67.3.29.85-194.21,67.83-194.14,68.04.31.9,189.72-69.02,190.86-65.72,1.33,3.86-198.66,69.6-198.17,71.01,1.14,3.31,203.6-71.72,204.1-70.28,1.24,3.61-199.94,68.43-198.97,71.23.9,2.6,197.23-70.16,197.92-68.15.19.54-198.77,68.15-198.27,69.61.55,1.59,192.3-68.98,193.15-66.51.17.5-198.6,67.79-197.53,70.89.1.28,197.18-69.02,197.52-68.01.21.62-200.28,69.4-199.69,71.13.15.42,198.56-71.77,199.6-68.73.66,1.91-191.76,66.92-191.5,67.68.38,1.1,189.07-66.25,189.42-65.22.02.05-192.19,66.54-191.88,67.45.94,2.74,198.89-71.59,199.85-68.81.77,2.25-205.13,71.04-204.38,73.21s195.24-69.41,195.91-67.46c1.25,3.64-196.48,66.28-195.45,69.28,1.26,3.65,197.8-70.54,198.55-68.37,1.32,3.84-196.13,69.21-196.12,69.23,1,2.9,200.56-72.28,201.55-69.4.28.82-201.03,68.16-200,71.15,1.32,3.84,197.04-70.3,197.8-68.11.25.73-197.6,68.29-196.78,70.69,1.04,3.02,198.05-68.81,198.24-68.26.68,1.98-194.85,65.83-193.75,69.01,1.13,3.28,193.81-70.08,194.84-67.09,1.26,3.66-184.25,64.67-183.7,66.28.1.28,180.6-65.18,181.52-62.5.31.91-183.35,63.2-182.92,64.43,1.04,3.03,183.73-65.62,184.46-63.51.98,2.85-186.17,61.52-184.98,64.98.7,2.02,178.43-62.7,178.82-61.57,1.13,3.27-175.44,60.77-174.83,62.53.56,1.63,173.42-62.48,174.27-60.01,1.16,3.36-172,58.16-171.23,60.39.7,2.03,176.97-63.9,177.89-61.25.78,2.28-175.98,61.6-175.57,62.77.02.07,170.74-59.56,170.98-58.87.71,2.05-164.12,57.62-163.77,58.62.69,2.01,167.86-59.67,168.44-58,.88,2.56-161.85,57.41-161.77,57.64.99,2.87,158.08-55.1,158.29-54.5.79,2.29-159.94,55.78-159.44,57.21.9,2.6,156.48-56.73,157.35-54.18.99,2.89-158.31,54-157.69,55.8.9,2.61,158.73-55.18,158.9-54.71.1.28-147.33,53.24-147.14,53.77.35,1.03,146.44-51.48,146.76-50.53.9,2.62-149.29,49.7-148.39,52.29s148.53-54.41,149.53-51.49c.93,2.71-147.83,49.88-146.88,52.62s141.1-51.42,141.97-48.88c.25.73-138.69,46.81-137.87,49.19.64,1.85,140.62-49.92,141.08-48.58.51,1.49-140.63,49.42-140.59,49.54.53,1.54,143.61-50.54,143.95-49.57.05.14-140.68,48.52-139.95,50.64s139.04-49.85,139.65-48.08c.25.73-135.23,46.19-134.41,48.58.91,2.65,129.59-46.64,130.21-44.84.84,2.45-131.23,45.5-130.49,47.63.27.79,135.6-46.89,135.66-46.71.85,2.47-131.14,46.45-131.06,46.69.24.69,124.23-43.7,124.51-42.87.82,2.4-121.41,43.24-121.03,44.32.06.16,124.05-44.42,124.57-42.89.6,1.74-114.95,40.48-114.61,41.46,0,.02,111.42-40.76,112.16-38.62.5,1.45-112.87,40.6-112.86,40.62.76,2.2,112.16-38.85,112.23-38.64.01.04-112.69,40.71-112.42,41.52.05.14,118.61-42.64,119.16-41.03.2.58-108.55,38.43-108.11,39.7.11.31,103.67-37.35,104.18-35.87.56,1.61-105.07,35.89-104.61,37.22s108.04-37.83,108.23-37.27c.21.6-102.26,37.4-102.12,37.79.07.2,99.35-36.1,99.93-34.41.45,1.3-97.56,34.53-96.93,36.35.04.13,94.99-34.5,95.55-32.9.3.88-97.75,33.22-97.2,34.83s102.28-35.49,102.36-35.24c.55,1.59-93.41,32.46-92.92,33.89.43,1.25,86.96-30.21,87.04-29.97.25.73-89.55,33.07-89.39,33.52.23.68,90.4-32.34,90.78-31.26s-80.65,28.49-80.43,29.15c.01.03,77.32-28.07,77.76-26.77.25.72-77.65,28.11-77.3,29.11.08.22,83.55-30.1,83.96-28.91.27.8-84.71,29.42-84.24,30.77.37,1.07,81.5-29.24,81.86-28.19.14.39-74.81,26.55-74.35,27.88s74.68-26.12,74.81-25.76c.32.94-68.35,25.11-68.19,25.57.31.91,67.62-23.54,67.7-23.31.03.08-70,24.77-69.87,25.15.05.14,67.84-23.78,67.97-23.41.34,1-62.47,22.21-62.13,23.19,0,0,64.49-22.82,64.67-22.27.18.51-60.85,23.01-60.61,23.71s56.68-20.01,56.83-19.57c.11.31-55.46,20.26-55.23,20.92.21.62,52.78-18.3,52.81-18.19.24.69-48.37,17.68-48.22,18.11.37,1.08,53.4-18.54,53.45-18.4.31.89-55.14,20.8-54.76,21.9.06.17,50.14-17.38,50.17-17.28.14.41-41.44,16.69-41.22,17.34.09.25,44.8-16.12,45.02-15.5.28.82-42.35,15.58-42.17,16.12.28.81,43.37-15.01,43.39-14.94.16.46-38.77,15.36-38.71,15.53.04.12,39.69-13.71,39.71-13.67.17.5-38.28,15.49-38.28,15.51.21.61,35.11-12.68,35.3-12.15.17.48-29.73,12.19-29.72,12.23.1.28,27.78-9.6,27.79-9.57.02.07-26.87,11.94-26.77,12.21.14.39,26.11-9.31,26.21-9.02,0,0-16.13,8.17-16.03,8.46.07.19,16.77-6.18,16.9-5.82.1.3-19.09,9.14-19.08,9.18.03.08,24.73-8.52,24.73-8.52.09.25-12.09,6.94-12,7.2.07.2,11.65-4.11,11.68-4.02.06.18-9.63,4.94-9.6,5.04.04.12,8.76-3.17,8.8-3.03.01.04-11.12,6.35-11.07,6.5.03.08,3.7-1.32,3.71-1.28,0,.02,1.7.81,1.71.84.01.04,2.9-1.01,2.91-1,.02.05,3.56.26,3.57.29,0,0,.76-.27.76-.26"/>
            </g>
            <polygon class="cls-9" points="155.95 26.06 155.95 479.88 352.56 532.57 352.56 78.75 155.95 26.06"/>
            <line class="cls-13" x1="55.41" y1="338.72" x2="363.29" y2="255.96"/>
            <path class="cls-5" d="m241.79,381.08c-.06.21-.25.35-.47.35-.05,0-.09,0-.14-.02l-3.37-.99c-.26-.08-.41-.34-.33-.6s.34-.41.6-.33l3.37.99c.26.08.41.35.33.6Z"/>
            <g>
              <text class="cls-2" transform="translate(53.69 330.58) rotate(-15.05)"><tspan x="0" y="0">E</tspan></text>
              <text class="cls-2" transform="translate(63.97 327.82) rotate(-15.04)"><tspan x="0" y="0">j</tspan></text>
              <text class="cls-2" transform="translate(68.51 326.6) rotate(-15.05)"><tspan x="0" y="0">e</tspan></text>
              <text class="cls-2" transform="translate(78.08 324.02) rotate(-15.05)"><tspan x="0" y="0"> </tspan></text>
              <text class="cls-2" transform="translate(82.27 322.9) rotate(-15.05)"><tspan x="0" y="0">f</tspan></text>
              <text class="cls-2" transform="translate(88.85 321.13) rotate(-15.05)"><tspan x="0" y="0">r</tspan></text>
              <text class="cls-2" transform="translate(95.29 319.4) rotate(-15.05)"><tspan x="0" y="0">o</tspan></text>
              <text class="cls-2" transform="translate(105.11 316.76) rotate(-15.05)"><tspan x="0" y="0">n</tspan></text>
              <text class="cls-2" transform="translate(115.28 314.02) rotate(-15.05)"><tspan x="0" y="0">t</tspan></text>
              <text class="cls-2" transform="translate(121.44 312.37) rotate(-15.05)"><tspan x="0" y="0">a</tspan></text>
              <text class="cls-2" transform="translate(131.09 309.77) rotate(-15.05)"><tspan x="0" y="0">l</tspan></text>
            </g>
            <text class="cls-3" transform="translate(361.16 503.96)"><tspan x="0" y="0">PLANO</tspan><tspan x="0" y="18">SAGI</tspan><tspan class="cls-11" x="40.06" y="18">T</tspan><tspan class="cls-6" x="49.42" y="18">AL</tspan></text>
            <g>
              <path class="cls-7" d="m332.86,271.9c-4.27-3.04-15.57-11.64-17.93-19.23-2.92-9.4-1.24-15.09-2.08-30.71-.41-7.75-1.91-14.85-3.31-20.05-1.67-6.19-2.27-12.62-1.84-19.02.49-7.38.87-17.68.15-27.52-.87-12.05-10.8-21.41-22.86-21.69-1.88-.04-3.95-.06-6.2-.04.92-.84,1.67-1.89,2.21-3.09,2.02-4.52,3.83-12.32,3.83-25.81,0-30.35-15.27-35.51-27.3-35.51s-23.29,5.16-23.29,22.15,7.45,16.42,7.45,29.21c0,11.08-7.79,17.14-27.17,26.18-6.24,2.91-10.5,8.85-11.27,15.69-1.19,10.55-2.6,27.17-2.18,43.99.11,4.55-.67,9.07-2.39,13.29-1.77,4.34-3.75,11.13-3.75,19.78,0,15.66,2.41,35.51,0,45.05-1.95,7.71-12.77,16.9-16.88,20.16-1.04.82-1.05,2.4,0,3.21,1.51,1.18,4.2,1.85,8.45-1.69v17.96c0,1.41,1.02,2.54,2.27,2.54.63,0,1.19-.28,1.6-.75.41-.46.67-1.09.67-1.79v3.05c0,1.41,1.01,2.55,2.27,2.55.63,0,1.19-.28,1.6-.75.4-.46.66-1.1.66-1.8v-1.29c0,1.41,1.02,2.54,2.27,2.54.62,0,1.19-.28,1.6-.75.41-.46.67-1.09.67-1.79v-4.53c0,1.11.9,2,2,2,.55,0,1.05-.22,1.41-.58.37-.36.59-.86.59-1.41v-10.53c0-1.64.08-3.28.28-4.9.25-2.06.49-5.68-.09-9.88-.5-3.57-.19-7.21,1.02-10.62,2.95-8.33,8.12-26.21,10.15-53.7.43-5.88,1.5-11.69,3.1-17.37,1.11-3.93,2.28-9.22,2.77-15.3.11-1.37.34-2.71.66-4.04,2.23,5.73,3.37,11.81,3.37,17.96v44.17c0,6.91-.84,13.79-2.54,20.49-2.05,8.09-4.59,21.94-4.59,40.9,0,22.14,1.11,37.38,2.74,46.82,1.09,6.37.51,12.9-1.71,18.96-2.59,7.1-5.48,16.83-5.48,25.02,0,14.89,5.35,33.09,2.92,44.42-2.42,11.33-3.56,16.93,2.86,23.67,0,0,.18,2.53,1.06,5.77,2.33,8.54,10.89,12.91,19.02,9.41.76-.33,1.5-.71,2.21-1.16,1.77-1.11,3.71-1.97,5.78-2.29.8-.13,1.53-.51,1.77-1.44.64-2.41,1.78-1.65-3.95-7.38,0,0-2.41-3.05-3.82-8.9-1.4-5.85-5.98-10.18-8.27-13.11l8.94-67.35c.42-3.15,1.42-6.21,3.13-8.88,1.73-2.68,3.42-7.96,1.03-17.48,0,0,7.3-5.07,10.79-30.9,0,0,.19,14.9,1.71,24.41.62,3.87.7,7.8.18,11.68-1.01,7.62-2.48,20.06-2.48,28.07,0,11.39,6.53,25.65,1.33,50.21-.7,3.33,1.72,6.48,5.11,6.73,1.44.11,2.97.1,4.44-.13,4.34-.67,8.76-.03,12.6,2.1,3.22,1.79,8.21,3.16,11.76,5.38,1.7,1.06,3.87.9,5.32-.49,1.02-.98,2.21-2.3,3.36-4.03.37-.55,1.01-.87,1.67-.84h0c.42.01.87-.34,1.26-.99.68-1.14.23-2.62-.95-3.23-1.52-.78-4.08-2.21-8.01-4.76-5.39-3.48-7.56-6.11-11.99-8.09-3.21-1.44-5.11-4.82-4.82-8.34l4.74-55.8c.31-3.67,1.46-7.21,3.16-10.48,1.47-2.83,2.65-7.71.52-15.29l1.78-10.99s12.73-28.89,1.78-66.95c0,0-2.29-14.63-2.29-39.83,0-11.9,2.09-19.75,4.12-26.43,3.51,27.34,9.68,40.3,13.08,48.46,1.38,3.33,1.9,6.95,1.59,10.55-.37,4.22.07,7.83.43,9.87.28,1.61.46,3.24.55,4.88l.56,10.52c.06,1.07.94,1.89,2,1.89h.11c1.1-.06,1.94-1,1.88-2.1l.25,4.52c.07,1.35,1.08,2.41,2.28,2.41h.11c1.2-.07,2.13-1.16,2.13-2.5l.06,1.12c.08,1.36,1.09,2.42,2.29,2.42h.11c1.25-.07,2.2-1.26,2.12-2.66l-.16-3.04c.08,1.35,1.1,2.4,2.29,2.4h.11c1.25-.07,2.2-1.26,2.12-2.65l-.96-17.94c4.43,3.3,7.08,2.5,8.53,1.23.99-.87.9-2.44-.18-3.21Z"/>
              <g>
                <path class="cls-1" d="m333.29,271.29c-3.55-2.52-15.31-11.34-17.65-18.84-1.85-5.93-1.82-10.3-1.79-16.92.02-3.75.04-8.01-.26-13.62-.43-8.08-2.05-15.44-3.34-20.2-1.63-6.04-2.24-12.35-1.81-18.78.47-7.05.88-17.57.15-27.63-.91-12.46-11.05-22.09-23.59-22.38-1.44-.03-2.96-.05-4.53-.04.47-.62.89-1.29,1.21-2.03,2.58-5.79,3.89-14.57,3.89-26.11,0-24.06-9.44-36.25-28.05-36.25-8.98,0-24.04,2.97-24.04,22.89,0,9.28,2.23,13.53,4.2,17.28,1.67,3.17,3.24,6.17,3.24,11.93,0,9.99-6.25,15.95-26.74,25.51-6.42,2.99-10.9,9.23-11.7,16.28-1.23,10.9-2.61,27.39-2.18,44.09.11,4.55-.67,8.92-2.33,12.99-1.74,4.26-3.82,11.19-3.82,20.07,0,5.31.28,11.14.55,16.79.54,11.25,1.05,21.87-.53,28.08-1.93,7.61-13.2,17.05-16.61,19.76-.68.54-1.07,1.35-1.06,2.22,0,.86.39,1.65,1.06,2.18.82.64,1.87,1.13,3.2,1.13,1.36,0,3-.51,4.96-1.88v16.44c0,1.82,1.35,3.29,3.01,3.29.56,0,1.07-.18,1.52-.46v.23c0,1.82,1.35,3.29,3.01,3.29,1.22,0,2.27-.8,2.74-1.94.5.41,1.12.66,1.79.66,1.66,0,3.01-1.48,3.01-3.29v-2.1c.38.2.8.32,1.25.32,1.51,0,2.75-1.23,2.75-2.75v-10.54c0-1.72.09-3.29.28-4.81.28-2.29.49-5.9-.1-10.07-.49-3.5-.15-7.05.99-10.26,2.93-8.27,8.15-26.26,10.19-53.9.42-5.71,1.46-11.5,3.08-17.22,1.44-5.08,2.38-10.27,2.8-15.45.03-.41.08-.83.13-1.24,1.59,4.88,2.4,9.94,2.4,15.1v44.18c0,6.87-.85,13.7-2.52,20.3-2.1,8.31-4.61,22.18-4.61,41.08,0,20.26.95,36.5,2.75,46.95,1.07,6.24.49,12.66-1.67,18.58-2.52,6.89-5.53,16.87-5.53,25.27,0,6.27.94,13.12,1.85,19.75,1.27,9.28,2.48,18.04,1.09,24.51-2.36,11.03-3.66,17.16,2.87,24.15.07.75.33,2.95,1.06,5.65,1.19,4.37,4.08,7.94,7.91,9.79,1.93.93,4,1.39,6.1,1.39,2.01,0,4.05-.43,6.03-1.28.83-.36,1.61-.76,2.31-1.21,1.86-1.17,3.71-1.91,5.5-2.18,1.25-.19,2.09-.9,2.38-1.98.09-.34.19-.62.28-.86.7-1.9.38-2.45-4.39-7.21-.25-.33-2.39-3.29-3.65-8.59-1.17-4.88-4.46-8.73-6.86-11.54-.49-.57-.95-1.11-1.35-1.61l8.9-67.04c.43-3.23,1.45-6.11,3.03-8.57,1.91-2.99,3.46-8.37,1.23-17.61,1.44-1.3,6.24-6.73,9.46-23.4.23,5.08.67,11.69,1.47,16.74.61,3.85.67,7.71.17,11.46-.93,6.99-2.49,19.96-2.49,28.17,0,3.6.63,7.4,1.36,11.79,1.58,9.57,3.55,21.47,0,38.26-.38,1.78.03,3.63,1.13,5.09,1.11,1.48,2.81,2.41,4.66,2.54,1.68.12,3.23.08,4.61-.13,4.35-.67,8.54.02,12.12,2.01,1.46.81,3.23,1.52,5.11,2.27,2.31.92,4.69,1.88,6.62,3.08.86.54,1.82.8,2.77.8,1.27,0,2.51-.47,3.47-1.39,1.26-1.21,2.43-2.61,3.47-4.15.22-.33.64-.52,1.04-.51.51.02,1.23-.2,1.92-1.35.43-.72.54-1.56.31-2.37-.23-.82-.8-1.52-1.56-1.91-1.43-.74-3.97-2.16-7.94-4.72-2.16-1.39-3.81-2.66-5.28-3.79-2.2-1.69-4.1-3.14-6.82-4.36-2.9-1.3-4.66-4.35-4.38-7.6l4.74-55.8c.29-3.38,1.32-6.82,3.08-10.2,1.54-2.98,2.72-7.99.61-15.64l1.74-10.78c.78-1.85,12.35-30.52,1.79-67.31-.14-.91-2.28-15.51-2.28-39.67,0-9.88,1.44-16.92,3.1-22.86,3.28,22.99,8.37,35.05,11.8,43.15.3.71.59,1.39.86,2.03,1.31,3.15,1.84,6.67,1.54,10.19-.36,4.2.04,7.79.44,10.06.27,1.51.44,3.08.53,4.79l.56,10.52c.08,1.46,1.29,2.6,2.74,2.6.05,0,.1,0,.15,0,.45-.02.87-.17,1.23-.38l.11,2.1c.05.86.39,1.66.97,2.25.57.57,1.29.88,2.06.88.05,0,.1,0,.15,0,.67-.04,1.27-.32,1.75-.75.16.34.37.65.63.92.57.57,1.29.88,2.06.88.05,0,.1,0,.15,0,.82-.04,1.57-.44,2.1-1.11.52-.65.77-1.48.73-2.34v-.22c.41.24.88.38,1.37.38.05,0,.1,0,.15,0,1.66-.09,2.93-1.64,2.83-3.45l-.88-16.42c1.88,1.18,3.46,1.63,4.76,1.63,1.47,0,2.6-.57,3.44-1.3.64-.56.99-1.38.94-2.23-.04-.87-.47-1.65-1.18-2.15Zm-.75,3.26c-2.27,1.98-5.8.76-10.22-3.54-.3-.29-.77-.28-1.06.01-.29.3-.28.77.01,1.06.88.86,1.71,1.57,2.5,2.18l.94,17.59c.05.99-.58,1.83-1.42,1.87-.39.02-.77-.13-1.07-.44-.32-.33-.52-.78-.54-1.27v-.25s-.8-14.63-.8-14.63c-.02-.41-.38-.73-.79-.71-.41.02-.73.37-.71.79l.65,12.15s0,0,0,0l.13,2.49.18,3.3c.03.5-.12.97-.4,1.32-.27.33-.63.53-1.01.55-.38.03-.77-.13-1.07-.44-.32-.33-.52-.78-.54-1.27l-.93-17.39c-.02-.41-.38-.73-.79-.71-.41.02-.73.37-.71.79l.74,13.83s0,0,0,0l.12,2.27c.05.99-.58,1.83-1.42,1.87-.39.03-.77-.13-1.07-.44-.32-.33-.52-.78-.54-1.27l-.4-7.36s0,0,0,0l-.53-9.83c-.02-.41-.38-.73-.79-.71-.41.02-.73.37-.71.79l.68,12.66c.04.69-.49,1.28-1.18,1.32-.68.04-1.28-.49-1.32-1.18l-.56-10.52c-.09-1.77-.28-3.4-.55-4.97-.39-2.19-.77-5.64-.43-9.68.32-3.76-.25-7.53-1.65-10.9-.27-.65-.56-1.33-.86-2.04-3.56-8.41-8.93-21.11-12.15-46.07.2-.64.39-1.28.58-1.9,2.04-6.59,3.8-12.29,3.1-20.13.21-.49.36-1,.44-1.54.6-3.96,1.77-13.94-.23-21.02-.11-.4-.53-.63-.92-.51-.4.11-.63.53-.51.92,1.93,6.79.78,16.52.19,20.38-.18,1.23-.81,2.3-1.76,3.01-3.26,2.46-9.12,2.25-9.18,2.25-.42-.02-.76.3-.78.72s.3.76.72.78c.04,0,.22,0,.52,0,1.6,0,6.51-.2,9.63-2.56.18-.14.35-.29.52-.45.26,6.63-1.33,11.8-3.16,17.7-.21.68-.42,1.37-.64,2.07,0,0,0,0,0,.01-2.06,6.76-4.15,14.63-4.15,26.63,0,24.97,2.28,39.8,2.3,39.95l.02.09c10.74,37.33-1.62,66.15-1.75,66.43l-1.33,8.16c-.15-.42-.3-.83-.47-1.26-.15-.38-.59-.57-.97-.42-.38.15-.57.59-.42.97,3.8,9.66,2.6,15.55.92,18.8-1.85,3.56-2.94,7.18-3.24,10.76l-4.74,55.8c-.33,3.88,1.79,7.53,5.26,9.09,2.56,1.14,4.3,2.48,6.52,4.18,1.48,1.14,3.17,2.43,5.37,3.85,4.02,2.59,6.6,4.04,8.07,4.79.39.2.69.56.81.99.12.41.06.83-.15,1.19-.3.51-.54.62-.59.63-.92-.05-1.81.42-2.32,1.17-.98,1.45-2.08,2.77-3.26,3.91-1.17,1.12-2.98,1.28-4.4.4-2.04-1.27-4.49-2.25-6.86-3.2-1.83-.73-3.56-1.43-4.94-2.19-3.87-2.15-8.39-2.91-13.07-2.18-1.27.2-2.71.24-4.27.12-1.42-.11-2.73-.82-3.58-1.95-.83-1.11-1.15-2.53-.86-3.88,3.62-17.06,1.62-29.12.02-38.81-.72-4.33-1.34-8.07-1.34-11.55,0-8.13,1.55-21.01,2.48-27.97.52-3.9.46-7.9-.18-11.9-1.43-8.95-1.68-22.9-1.7-24.2,1.07-8,1.78-17.96,1.81-30.34.61-.16,1.14-.55,1.48-1.12l5.37-8.9c1.5-2.48,3.87-4.26,6.67-5l3.06-.81c.4-.11.64-.51.53-.91-.11-.4-.51-.64-.91-.53l-3.06.81c-3.18.84-5.87,2.86-7.57,5.67l-5.37,8.9c-.19.32-.52.48-.89.48-.37-.01-.69-.22-.85-.55l-4.95-9.83c-1.17-2.33-3.13-4.22-5.49-5.31-.37-.17-.82-.01-.99.36-.17.37-.01.82.36.99,2.06.96,3.76,2.6,4.79,4.63l4.96,9.83c.3.59.79,1.02,1.39,1.23-.08,43.35-8.73,56.66-11.46,59.78-.34-1.23-.73-2.51-1.21-3.87-.14-.39-.56-.6-.95-.46-.39.14-.6.56-.46.95,4.49,12.81,2.29,19.21.57,21.88-1.7,2.65-2.79,5.74-3.25,9.18l-8.94,67.35-.04.31.19.25c.46.59,1.01,1.23,1.59,1.91,2.3,2.69,5.46,6.38,6.54,10.91,1.42,5.95,3.86,9.07,3.96,9.2l.06.06c4.51,4.51,4.45,4.66,4.08,5.67-.1.26-.22.59-.33,1-.09.34-.3.75-1.16.88-1.99.31-4.03,1.11-6.07,2.4-.64.4-1.35.77-2.11,1.1-3.64,1.57-7.51,1.54-10.89-.09-3.49-1.68-6.02-4.82-7.11-8.83-.85-3.12-1.03-5.6-1.04-5.63l-.02-.27-.19-.19c-6.2-6.5-5.02-12.02-2.67-23,1.44-6.72.22-15.62-1.08-25.03-.9-6.58-1.83-13.38-1.83-19.54,0-8.18,2.96-17.98,5.44-24.76,2.26-6.16,2.86-12.85,1.74-19.35-1.78-10.37-2.73-26.52-2.73-46.7,0-18.75,2.48-32.49,4.56-40.71,1.7-6.72,2.56-13.67,2.56-20.67v-44.18c0-6.18-1.12-12.23-3.33-18,.53-2.11,1.34-4.2,2.42-6.25,1.64-3.11,2.47-6.8,2.47-10.95,0-.41-.33-.75-.75-.75s-.75.33-.75.75c0,3.9-.77,7.35-2.3,10.25-1.88,3.56-2.98,7.25-3.28,10.97-.41,5.08-1.34,10.18-2.75,15.16-1.64,5.81-2.7,11.7-3.13,17.51-2.03,27.46-7.21,45.31-10.11,53.51-1.22,3.44-1.59,7.23-1.06,10.97.56,4.01.36,7.48.09,9.69-.19,1.58-.29,3.22-.29,4.99v10.54c0,.69-.56,1.25-1.25,1.25s-1.25-.56-1.25-1.25v-12.68c0-.41-.33-.75-.75-.75s-.75.33-.75.75v17.21c0,.99-.68,1.8-1.52,1.8s-1.52-.81-1.52-1.8v-16.13c0-.41-.33-.75-.75-.75s-.75.33-.75.75v17.41c0,.99-.68,1.8-1.52,1.8s-1.52-.81-1.52-1.8v-17.96c0-.41-.33-.75-.75-.75s-.75.33-.75.75v14.9c0,.99-.68,1.8-1.52,1.8s-1.52-.81-1.52-1.8v-17.61c.75-.65,1.54-1.41,2.37-2.31.28-.3.26-.78-.04-1.06-.3-.28-.78-.26-1.06.04-4.18,4.53-7.64,5.93-10.01,4.08-.31-.24-.49-.61-.49-1.01,0-.41.18-.79.5-1.04,4.49-3.57,15.15-12.72,17.13-20.56,1.63-6.43,1.11-17.16.57-28.52-.27-5.63-.55-11.44-.55-16.71,0-8.63,2.01-15.37,3.7-19.5,1.74-4.26,2.56-8.83,2.44-13.59-.42-16.61.95-33.03,2.18-43.88.74-6.53,4.89-12.31,10.84-15.09,18.7-8.72,27.6-14.97,27.6-26.86,0-6.13-1.66-9.28-3.41-12.62-1.98-3.77-4.03-7.67-4.03-16.59,0-17.68,12.26-21.4,22.54-21.4,17.62,0,26.55,11.69,26.55,34.76,0,11.33-1.27,19.91-3.76,25.5-1.7,3.8-5.9,5.93-9.97,5.06-6.13-1.3-12.88-4.3-16.35-5.96,0,0,0,0,0,0-.79-.33-1.47-.96-1.85-1.76-.48-.91-.3-1.8-.42-2.85-.24-2.17-1.52-4.18-3.31-5.36-.21-.17-.48.17-.26.33,1.57,1.25,2.57,3.11,2.62,5.1,0,1-.21,2.25.25,3.26.4,1.08,1.22,2.01,2.26,2.57.03.02.05.04.08.06.02,0,.04.02.06.03,0,0,0,0,0,0,0,0,0,0,0,0,3.55,1.7,10.37,4.72,16.62,6.05,3.29.7,6.63-.27,9.04-2.38,2.07-.02,4.05,0,5.89.04,11.77.28,21.29,9.3,22.14,21,.72,9.97.32,20.42-.15,27.42-.44,6.59.19,13.07,1.86,19.26,1.27,4.68,2.86,11.93,3.29,19.89.3,5.57.28,9.8.26,13.53-.04,6.51-.06,11.22,1.85,17.37,2.4,7.73,13.53,16.29,18.21,19.61.33.24.53.6.55,1.01.02.4-.14.77-.44,1.03Z"/>
                <path class="cls-1" d="m238.72,381.91s-2.72.46-4.24-1.06c-.29-.29-.77-.29-1.06,0s-.29.77,0,1.06c1.32,1.32,3.17,1.57,4.37,1.57.67,0,1.14-.08,1.19-.09.41-.07.68-.46.61-.87-.07-.41-.46-.67-.87-.61Z"/>
                <path class="cls-1" d="m265.2,191.64c-8.7,4.07-20.07,4.19-27.74-2.2-1.38-1.03-2.12-2.42-3.23-3.72-1.19-1.25-2.71-2.14-4.4-2.53-.29-.06-.34.37-.08.41,1.55.4,3.01,1.3,4.07,2.49,1,1.25,1.87,2.84,3.19,3.87,7.89,6.88,19.58,7.05,28.88,3.01.38-.17.55-.63.36-1.01-.19-.39-.68-.53-1.05-.32Z"/>
              </g>
              <g class="cls-10">
                <g class="cls-8">
                  <g>
                    <path class="cls-14" d="m318.34,296.25s8.55-2.99,8.57-2.95"/>
                    <path class="cls-14" d="m326.39,275.19c.04.13,4.44-1.67,4.49-1.54.02.07-3.69,3.28-3.67,3.31.03.09,11.57-4.07,11.6-3.99"/>
                    <path class="cls-14" d="m287.3,210.9c.12.34,24.71-8.88,24.83-8.55,0,.02-17.98,7.58-17.92,7.77.13.38,12.94-4.5,12.95-4.46.08.25-11.48,6.73-11.42,6.89.08.24,14.51-5.3,14.6-5.03.08.23-18.99,9.03-18.98,9.05,0,0,22.59-7.81,22.6-7.78.11.31-23.76,10.31-23.64,10.65.1.29,24.34-8.58,24.4-8.4.07.22-17.9,7.31-17.88,7.35.11.31,12.32-4.45,12.39-4.26.05.14-16.2,7.89-16.18,7.93,0,.02,16.26-5.61,16.27-5.6,0,.02-18.19,8.68-18.18,8.72.02.06,24.83-8.83,24.92-8.58,0,0-22.43,9.47-22.36,9.66.1.28,22.86-8.1,22.93-7.9s-23.41,9.97-23.3,10.29c.06.18,21.74-7.87,21.86-7.53.05.16-16.8,7.9-16.77,8.01.03.08,16.93-6.04,17-5.85.05.15-15.35,7.06-15.34,7.08.04.11,17.96-6.55,18.07-6.22s-19.87,9.63-19.8,9.82c0,.02,12.08-4.16,12.08-4.16.01.03-9.33,5.48-9.28,5.63.11.33,13.02-4.81,13.12-4.52.02.07-19.56,9.14-19.47,9.41.05.15,14.38-5.15,14.44-4.97.03.1-11.04,4.88-10.97,5.06.06.17,15.61-5.39,15.62-5.38.06.17-11,4.82-10.99,4.85.06.18,9.9-3.72,9.99-3.44.05.16-14.19,7.66-14.15,7.77s13.66-4.77,13.69-4.71c0,.02-14.36,6.97-14.35,7.01.04.12,15.21-5.27,15.22-5.24.02.06-9.65,5.78-9.61,5.9,0,.01,12.92-4.7,13-4.48.01.04-10.1,6.22-10.02,6.44s7.2-2.63,7.25-2.5c.03.08-7.45,4.75-7.4,4.9.03.09,5.73-2.1,5.77-1.99.08.24-12.01,6.03-11.96,6.19.07.19,12.59-4.5,12.64-4.35.01.04-8.26,4.07-8.2,4.24,0,.03,7.03-2.47,7.04-2.43.07.21-10.69,4.7-10.63,4.87.07.21,16.65-5.96,16.72-5.76.05.16-12.51,6.31-12.5,6.35.08.22,6.83-2.46,6.87-2.37.02.05-10.14,5.24-10.12,5.29.04.12,10.97-4,11.04-3.8.02.07-4,3.91-3.99,3.94.08.23,9.67-3.41,9.69-3.34.04.12-13.08,6.29-13,6.52.09.26,15.34-5.6,15.44-5.32.12.34-19.44,7.74-19.42,7.79,0,0,23.16-8.29,23.26-8.01s-21.06,8.97-20.97,9.24,20.8-7.27,20.84-7.17c0,.02-16.57,7.87-16.55,7.95.13.37,11.16-4.02,11.22-3.86.1.28-13.03,7.1-13.01,7.15.02.06,21.92-7.95,22.05-7.59s-22.51,8.81-22.49,8.87c.02.05,16.29-5.98,16.4-5.65.03.09-18.53,9.08-18.43,9.37s21.85-7.8,21.94-7.55c.04.11-23.82,9.9-23.72,10.2.12.34,25.98-9,26-8.95.08.24-23.02,10.66-22.97,10.8.03.08,22.59-7.95,22.65-7.8s-21.11,8.14-21,8.45c.07.21,20.88-7.25,20.9-7.19.05.14-19.25,9.52-19.18,9.71.08.24,18.34-6.72,18.46-6.36.15.42-22.27,9-22.19,9.22.06.18,19.93-7.27,20.06-6.91.15.43-22.82,8.58-22.7,8.93,0,0,24.47-8.46,24.48-8.43.09.26-16.11,7.58-16.01,7.87.06.18,18.86-6.6,18.89-6.5.15.42-21.45,8.72-21.33,9.07.07.21,17.91-6.52,18.02-6.2.02.07-13.2,5.41-13.11,5.67.08.23,10.16-3.62,10.2-3.51,0,.02-11.06,5.08-11.02,5.2.03.1,17.74-6.38,17.82-6.14,0,.02-21.32,9.43-21.24,9.66,0,.02,17.38-6.15,17.43-6,.01.04-15.77,7.01-15.7,7.21.05.14,19.74-7.03,19.81-6.82.06.18-11.24,6.8-11.22,6.85,0,.02,3.05-1.08,3.06-1.05"/>
                    <path class="cls-14" d="m261.29,133.56s.3-.1.3-.1c.01.03-3.38,2.26-3.37,2.31,0,0,2.29-.81,2.3-.79.02.05,2,2.07,2.01,2.12.03.08.95-.37.97-.33,0,.02-1.09,2.44-1.08,2.46.08.24,19.42-6.89,19.48-6.71.08.23-19.58,9.54-19.47,9.87s24.77-8.88,24.88-8.57c.07.2-19.04,8.71-19.02,8.77.15.43,19.45-6.89,19.51-6.72.11.33-22.49,9.61-22.44,9.75.16.46,28.74-10.17,28.83-9.93.06.16-30.64,12.19-30.54,12.49.14.4,36.84-13.03,36.94-12.72.18.53-32.91,12.49-32.81,12.81.17.51,28.27-10.35,28.46-9.8.12.35-28.77,10.52-28.58,11.08.1.3,30.68-10.6,30.7-10.57.02.05-31.12,13-31.11,13.05.17.5,36.6-12.8,36.66-12.62.19.54-35.9,13.59-35.69,14.17s30.94-10.95,31.03-10.68c.02.07-27.52,11.24-27.4,11.6,0,.01,34.72-12.24,34.81-11.98.2.58-31.26,13.34-31.09,13.82.18.53,29.76-10.29,29.77-10.25.07.2-34,13.92-33.84,14.37.23.65,33.68-11.93,33.78-11.63.08.24-32.88,13.03-32.66,13.67,0,0,34.23-12.21,34.36-11.83.18.53-28.88,11.89-28.79,12.17.01.04,31.94-11.3,32.03-11.03.2.59-36.89,14.62-36.81,14.86.07.21,33.29-11.49,33.3-11.47.11.32-27.91,12-27.85,12.16.18.53,30.87-10.82,30.93-10.65.22.64-38.25,15.44-38.15,15.73.08.23,36.21-12.7,36.28-12.49,0,.02-31.88,11.9-31.73,12.32.02.05,31.5-11.14,31.59-10.88.15.45-31.98,11.88-31.78,12.46.1.29,28.96-10.29,29.06-10.01.17.5-29.58,12-29.44,12.41.2.59,35.15-12.11,35.15-12.1.14.42-31.83,12.61-31.72,12.94.2.58,33.37-12.17,33.58-11.56.11.31-41.6,16.38-41.55,16.53.06.19,35.83-12.66,35.93-12.37.04.12-34.55,13.95-34.35,14.51.05.14,39.9-14.33,40.08-13.8.12.36-37.59,13.92-37.5,14.19.13.37,33.31-12.04,33.48-11.53.14.41-37.48,14.17-37.33,14.61.18.53,35.12-12.57,35.27-12.14.19.54-36.93,14.8-36.75,15.35.15.45,39.08-13.55,39.11-13.47,0,.03-39.83,14.88-39.64,15.42.04.12,43.76-15.72,43.96-15.14.02.05-45.13,18.5-45.11,18.55.17.48,35.72-12.95,35.92-12.37.17.5-36.18,14.9-36.02,15.36.12.36,39.68-14.24,39.86-13.73.06.17-40.72,15.28-40.53,15.83.15.44,43.61-15.4,43.73-15.06,0,.02-39.06,15.75-38.8,16.51.2.57,36.26-13.09,36.44-12.55.2.59-43.13,16.08-43.03,16.37.19.54,43.16-15.35,43.31-14.91.19.55-40.45,15.12-40.36,15.39.04.13,36.01-13.19,36.25-12.48.15.43-34.73,13.08-34.52,13.7s36.52-13.4,36.77-12.66c.1.29-35.75,14.02-35.66,14.29.23.67,41.48-14.95,41.69-14.35.13.39-46.42,17.39-46.31,17.69.21.62,40.96-14.38,41.04-14.13.16.46-37.11,13.75-37.02,14,.02.06,35.51-12.49,35.59-12.26.06.18-35.13,13.58-35.02,13.9.17.48,42.87-14.95,42.93-14.78.13.39-45.32,17.73-45.28,17.86.06.17,25.36-9.05,25.46-8.77.2.59-31.09,11.56-31.01,11.78.04.12,26.7-9.35,26.74-9.21.13.38-21.69,9.26-21.66,9.35.1.29,20.27-7.25,20.35-7.01.04.1-24.39,9.91-24.29,10.19.03.07,25.58-8.93,25.61-8.82.05.15-20.42,8.37-20.29,8.74.07.19,17.38-6.03,17.4-5.99s-22.24,9.54-22.14,9.81c.04.12,22.8-8.12,22.88-7.88.16.47-28.17,12.35-28.16,12.35.16.46,32.64-11.58,32.74-11.27.08.24-31.14,12.49-30.98,12.96.02.05,23.4-8.33,23.49-8.09,0,.01-21.25,9.8-21.13,10.15.07.21,19.62-6.96,19.69-6.78.07.2-16.95,8.32-16.91,8.42.16.46,18.4-6.86,18.56-6.39.09.26-17.44,7.23-17.36,7.47.02.07,20.56-7.16,20.59-7.09.05.16-23.89,10.98-23.85,11.12.09.27,24.35-8.61,24.42-8.41.04.13-22.64,9.12-22.5,9.54.08.24,22.71-8.26,22.84-7.87.04.12-24.58,9.96-24.45,10.34.06.17,23.29-8.44,23.42-8.06.06.17-22.17,8.55-22.04,8.92.08.24,21.44-7.94,21.61-7.44.2.59-29.16,11.98-29.06,12.27.02.07,29.61-10.66,29.76-10.25s-28.38,11.08-28.28,11.39c.14.42,26.13-9.05,26.14-9,.08.24-28.28,11.98-28.23,12.13.11.33,28.09-9.77,28.12-9.68.14.4-22.26,10.02-22.12,10.43.05.14,26.18-9.18,26.23-9.03.16.46-27.57,11.64-27.45,11.97s24.53-8.78,24.64-8.48c.16.45-27.43,12.21-27.41,12.26.14.41,31.18-11.19,31.32-10.79.13.39-29.15,11.66-28.97,12.15.09.25,22.07-8.15,22.24-7.66.07.19-19.42,8.24-19.39,8.35.17.51,24.94-9.18,25.12-8.65.2.58-31.47,13.27-31.37,13.56.01.04,25.04-9.13,25.2-8.68.18.52-27.21,12.09-27.12,12.33.09.27,35.07-12.32,35.14-12.1.05.14-33.67,14.05-33.64,14.12.07.19,26.03-9.26,26.12-8.99.11.32-26.19,10.26-26.03,10.73.15.43,34.09-11.95,34.16-11.76.16.46-30.85,11.85-30.73,12.17.02.05,29.09-10.13,29.12-10.03.06.16-29.64,12.26-29.46,12.78.01.04,29.75-10.42,29.8-10.26.21.6-33.48,13.44-33.25,14.09.1.28,31.12-10.79,31.14-10.72.16.47-31.85,13.49-31.76,13.75.04.13,34.44-11.89,34.45-11.86.15.45-36.84,13.25-36.63,13.85.09.27,34.94-12.47,35.07-12.08.04.13-34.6,13.21-34.46,13.63.21.6,34.67-12.14,34.73-11.96.08.22-32.05,13.57-31.88,14.07.08.24,35.49-12.41,35.55-12.24.14.42-30.64,11.61-30.62,11.68.17.5,29.36-10.81,29.58-10.19.16.47-35.55,13.97-35.46,14.25.16.47,30.54-11.13,30.73-10.58.01.04-31.03,13.06-30.93,13.37.2.59,35.26-12.78,35.46-12.21.16.46-38.05,14.97-37.91,15.38.12.34,38.47-13.85,38.66-13.31.03.07-38.18,15.99-38.15,16.07.16.46,34.44-12.29,34.57-11.9.19.54-27.27,12-27.23,12.11.23.67,34.71-12.13,34.76-11.97.05.13-35.08,14.91-35.04,15.03.17.49,29.37-10.47,29.48-10.15.24.69-37.75,15.88-37.69,16.04.04.12,38.83-13.39,38.84-13.37.21.62-34.69,13.38-34.67,13.43.12.34,38.01-13.13,38.03-13.09.16.46-36.69,13.84-36.47,14.45s35.68-12.55,35.76-12.31c.2.59-42.15,16.74-41.96,17.28.23.65,35.46-12.34,35.5-12.22.09.26-31.79,12.58-31.59,13.16.24.69,37.5-12.93,37.5-12.91.04.12-38.25,15.37-38.21,15.49.06.17,35.55-12.72,35.7-12.29.04.11-31.87,11.41-31.68,11.97,0,.02,32.57-11.54,32.67-11.25.22.64-33.17,12.65-32.95,13.29.06.18,34.21-12.35,34.38-11.84.06.18-37.55,15.11-37.33,15.75.05.13,33.49-12.19,33.69-11.6.09.26-32.84,12.16-32.64,12.74,0,0,34.08-12.23,34.23-11.79.09.25-40.34,16.3-40.22,16.66.05.14,40.71-14.31,40.79-14.05.23.66-38.15,15.89-38.15,15.9.11.33,31.71-11.55,31.9-10.98,0,.03-27.19,10.91-27.14,11.07.04.13,34.51-12.11,34.58-11.91.24.71-42.9,17.64-42.89,17.69.03.1,39.16-14.23,39.39-13.56.05.14-32.88,12.99-32.74,13.41.11.32,32.04-11.69,32.24-11.1s-35.84,12.95-35.62,13.61c.09.28,33.5-11.54,33.5-11.54.21.6-36.8,14.39-36.55,15.13.09.26,38.44-13.44,38.5-13.26.04.13-33.62,12.13-33.47,12.58.13.38,26.57-9.58,26.7-9.19.11.31-26.81,11.45-26.7,11.77.06.17,31.19-10.97,31.26-10.76.08.23-30.97,12.83-30.78,13.39.15.44,31.56-11.44,31.74-10.93.21.6-31.65,13.05-31.6,13.19.19.55,31.6-11.31,31.73-10.93.02.05-35.68,14.63-35.68,14.63.16.47,32.46-11.71,32.63-11.23.12.34-32.35,13.15-32.2,13.6s33.91-12.31,34.11-11.74c.03.09-27.22,10.36-27.1,10.69,0,0,28.05-10.08,28.18-9.7.09.27-35.82,13.66-35.76,13.81,0,.02,35.5-12.86,35.7-12.29.05.14-33.25,13.94-33.07,14.47.09.27,35.17-12.44,35.27-12.14s-31.19,12.36-31.04,12.78c.16.46,27.49-9.92,27.63-9.51.2.59-31.72,13.43-31.64,13.68.18.51,29.98-10.64,30.08-10.36,0,.01-33.19,12.9-33.14,13.04.01.03,35.69-12.48,35.75-12.31.15.45-31.56,11.95-31.46,12.25.08.22,29.95-10.54,30.02-10.34.06.18-34.14,13.17-34.08,13.33.11.32,26.46-9.52,26.59-9.15.06.18-25.63,9.94-25.55,10.16.18.53,27.72-9.64,27.75-9.56.14.42-30.86,12.89-30.75,13.19.14.42,28.53-9.86,28.54-9.83.06.19-25.08,9.49-24.92,9.94.12.35,22.95-8.46,23.13-7.96.09.26-23.03,9.06-22.89,9.46.16.46,31.14-11.1,31.26-10.76.18.53-34.67,13.52-34.51,13.99.03.08,29.03-10.14,29.08-10.01.03.1-21.93,8.3-21.8,8.68.12.36,25.73-9.06,25.79-8.88.15.43-27.88,10.96-27.72,11.43.04.13,25.2-8.78,25.23-8.69.14.42-26.71,11.95-26.65,12.15.14.41,22.23-8.14,22.38-7.71.02.05-24.06,10.17-23.91,10.6s25.61-8.9,25.64-8.83c.07.2-28.19,12.7-28.17,12.76.04.1,25.6-9.06,25.68-8.84.1.29-24.03,11.22-24.02,11.27.12.34,25.13-8.69,25.14-8.66.11.33-27,12.08-26.99,12.1.05.15,26.88-9.33,26.9-9.26.04.11-25.31,11.06-25.28,11.15.12.34,26.23-9.24,26.29-9.05,0,0-23.31,9.23-23.23,9.44.08.25,25.03-8.71,25.06-8.63.16.46-25.33,11.13-25.19,11.52.04.13,19.83-7.19,19.94-6.87.07.19-21.54,10.15-21.54,10.16.11.32,22.29-7.69,22.3-7.68.02.06-23.63,9.59-23.55,9.8.06.17,27.19-9.83,27.34-9.41.06.17-23.03,9.48-22.88,9.92.13.38,22.59-7.81,22.6-7.78.09.26-24.05,10.89-23.94,11.22.02.05,24.4-8.8,24.52-8.44.08.24-18.77,9.03-18.74,9.12.06.17,18.47-6.53,18.52-6.38.02.04-20.81,9.92-20.74,10.11.06.16,15.51-5.75,15.64-5.39.06.18-19.76,9.52-19.66,9.8.13.37,17.93-6.23,17.95-6.18.08.23-17.79,8.03-17.73,8.22.04.13,22.58-7.95,22.63-7.79.14.41-19.32,9.32-19.2,9.69.11.31,20.17-7.25,20.26-6.98.05.14-18.86,7.52-18.78,7.76.03.09,20.32-7.08,20.35-7.01.12.35-23.34,9.26-23.21,9.64.05.15,18.26-6.3,18.26-6.29.05.15-21.54,8.84-21.39,9.26.13.37,21.87-7.6,21.89-7.54.05.15-15.87,6.52-15.84,6.62.13.37,11.53-4.19,11.59-3.99,0,0-11.59,6.57-11.58,6.59.06.18,15.36-5.59,15.45-5.32.08.22-16.88,6.6-16.76,6.93.14.41,20.36-7.2,20.42-7.03.09.27-22.37,10.31-22.31,10.47,0,.02,17.67-6.55,17.81-6.13.03.1-19.16,8.66-19.15,8.71.16.45,28.83-10.22,28.92-9.96.07.2-31.79,12.37-31.64,12.83.2.57,31.48-11.05,31.55-10.86.11.31-25.51,9.83-25.42,10.1.06.18,24.34-8.71,24.44-8.42.05.13-27.48,10.06-27.31,10.54,0,.02,27.47-10.13,27.68-9.53.08.24-22.57,10.64-22.53,10.75.19.55,24.47-9.01,24.65-8.49.07.2-17.91,9.11-17.87,9.25.15.44,24.43-8.5,24.46-8.42.1.3-23.26,9.08-23.25,9.1,0,0,19.32-6.91,19.39-6.68.04.11-15.18,6.47-15.16,6.53.02.07,18.63-6.78,18.74-6.45.13.38-19.86,9.23-19.75,9.53.02.06,23.54-8.23,23.58-8.12.13.37-17.91,8.47-17.86,8.61.07.19,23.93-8.62,24.04-8.28.09.26-17.02,8.42-17,8.49.11.33,19.82-7.02,19.88-6.85.09.25-13.88,7.75-13.83,7.9,0,0,7.69-2.7,7.71-2.65.09.26-13.67,6.24-13.63,6.38.01.03,14.58-5.13,14.62-5.03.01.03-12.86,5.85-12.77,6.1,0,0,4.21-1.47,4.22-1.45"/>
                    <path class="cls-14" d="m256.7,70.36s6.72-2.32,6.72-2.32c.02.04-.7,3-.69,3.05.02.05,2.57-.98,2.6-.89.03.09-4.42,4.17-4.41,4.18.04.13,12.95-4.47,12.96-4.46,0,.02-8.85,4.54-8.8,4.7.02.05,7.66-2.8,7.71-2.65.03.08-7.94,4.26-7.89,4.41.04.1,13.48-4.81,13.53-4.66.03.09-9.85,4.49-9.84,4.53.05.15,10.12-3.51,10.12-3.49,0,0-13.54,6.19-13.49,6.33.04.11,12.99-4.66,13.05-4.49.05.15-16.06,6.7-15.96,6.98.01.04,18.94-6.62,18.97-6.53.06.17-13.69,7.71-13.64,7.87.08.22,12.99-4.54,13.01-4.48.07.21-13.13,6.77-13.1,6.84.04.12,8.42-2.96,8.44-2.91.03.1-6.1,4.4-6.06,4.52.03.09,14.39-4.96,14.39-4.96,0,0-14.97,6.93-14.91,7.11.04.13,10.4-3.86,10.49-3.61.04.12-11.68,5.13-11.62,5.32.09.27,13.05-4.74,13.13-4.52.05.14-9.67,4.83-9.62,4.98.06.17,9.98-3.52,10-3.44.04.11-12.2,6.74-12.14,6.92.05.14,15.56-5.46,15.59-5.37.04.1-17.38,7.4-17.37,7.44.04.13,14.95-5.17,14.96-5.15,0,0-8.86,4.22-8.81,4.37s6-2.35,6.08-2.09c0,.01-11.09,5.22-11.07,5.28.03.07,13.52-4.94,13.61-4.69,0,.01-11.16,6.79-11.13,6.9.01.03,16.4-5.77,16.44-5.66.05.13-16.91,8.35-16.89,8.41.07.19,9.75-3.6,9.82-3.38.08.23-12.11,6-12.08,6.08.02.06,14.85-5.18,14.87-5.12.09.27-14.26,7.41-14.17,7.67.05.15,20.15-7.05,20.18-6.95.12.34-23.45,10.16-23.33,10.51.09.26,15.5-5.46,15.54-5.35,0,.01-12.42,6.88-12.41,6.89.06.17,17.51-6.22,17.57-6.05.11.32-19.83,7.68-19.75,7.92.06.18,21.58-7.74,21.68-7.46.12.34-21.74,8.48-21.67,8.66.05.14,20.66-7.14,20.66-7.12.11.32-21.18,9.93-21.11,10.14.06.16,22.32-7.9,22.39-7.71.06.17-17.7,8.8-17.59,9.12.06.18,8.94-3.38,9.03-3.11.06.16-7.69,3.76-7.65,3.86.04.11,11.28-3.97,11.31-3.89s-16.94,8.18-16.91,8.26c.03.1,12.74-4.62,12.81-4.41.02.07-6.35,4.01-6.33,4.08.05.15,8.38-2.98,8.41-2.9.02.07-11.33,5.44-11.33,5.44.09.27,16.42-5.95,16.51-5.68.04.13-14.93,6.17-14.91,6.22,0,0,14.15-4.89,14.16-4.88.04.11-21.45,10.05-21.33,10.4.03.09,12.79-4.58,12.85-4.42.01.03-13.64,6.15-13.55,6.41.06.17,12.02-4.29,12.06-4.15"/>
                  </g>
                </g>
              </g>
            </g>
          </g>
          <rect class="cls-12" width="485.62" height="558.63"/>
        </g>
      </g>
    </g>
  </g>
</svg>