<?xml version="1.0" encoding="UTF-8"?>
<svg xmlns="http://www.w3.org/2000/svg" viewBox="0 0 485.62 558.63">
  <defs>
    <style>
      .cls-1 {
        fill: #848484;
      }

      .cls-2 {
        font-family: SairaSemiCondensed-Medium, 'Saira SemiCondensed';
        font-weight: 500;
      }

      .cls-2, .cls-3 {
        font-size: 20px;
      }

      .cls-4 {
        stroke: #000;
        stroke-dasharray: 0 0 3 6;
      }

      .cls-4, .cls-5, .cls-6, .cls-7 {
        fill: none;
      }

      .cls-4, .cls-6 {
        stroke-width: 2px;
      }

      .cls-4, .cls-7 {
        stroke-linecap: round;
        stroke-linejoin: round;
      }

      .cls-8 {
        isolation: isolate;
      }

      .cls-9 {
        opacity: .2;
      }

      .cls-10 {
        fill: #eae9e8;
      }

      .cls-3 {
        font-family: SairaSemiCondensed-Bold, 'Saira SemiCondensed';
        font-weight: 700;
      }

      .cls-3, .cls-6, .cls-11 {
        mix-blend-mode: multiply;
      }

      .cls-12 {
        letter-spacing: -.04em;
      }

      .cls-6 {
        stroke-miterlimit: 10;
      }

      .cls-6, .cls-7 {
        stroke: #f21515;
      }

      .cls-11 {
        opacity: .6;
      }
    </style>
  </defs>
  <g class="cls-8">
    <g id="Capa_2" data-name="Capa 2">
      <g id="Capa_1-2" data-name="Capa 1">
        <g>
          <rect class="cls-5" width="485.62" height="558.63"/>
          <g>
            <g class="cls-11">
              <path class="cls-7" d="m328.11,16.85s.4.16.4.16c-.04.09-5.62-.66-5.62-.65,0,0,8.02,3.18,8,3.23,0,.02-6.99-1.42-6.99-1.42-.02.06,1.08.37,1.06.43,0,0-.4,1.5-.41,1.5-.02.04,4.88,1.85,4.83,1.95-.06.14-9.36-1.21-9.43-1.04-.08.21,11.21,4.35,11.15,4.51-.12.29-17.1-5.16-17.2-4.91-.07.16,16.11,6.36,16.06,6.49-.06.14-20.13-6.53-20.16-6.46-.05.13,17.86,7,17.78,7.18-.04.1-19.26-6.93-19.4-6.57,0,.01,25.06,9.71,24.92,10.07-.09.21-31.18-9.9-31.19-9.88-.08.19,30.65,12.24,30.6,12.36,0,.02-28.12-8.54-28.23-8.28-.02.06,28.24,10.84,28.05,11.33-.07.18-30.21-11.2-30.4-10.74-.15.36,27.92,11.18,27.89,11.27-.19.48-34.1-11.54-34.2-11.29-.16.39,35.79,13.88,35.59,14.38-.08.21-42.54-15.75-42.72-15.29-.13.31,36.72,14.74,36.69,14.82-.04.09-33.07-11.8-33.24-11.39-.21.52,36.7,14.24,36.49,14.74-.14.36-41.55-16.15-41.71-15.75-.06.15,40.42,16.22,40.39,16.32-.15.38-37.94-13.78-38.02-13.58-.09.23,42.77,16.78,42.59,17.21-.34.85-53.05-18.4-53.1-18.27-.02.06,46.3,18.6,46.26,18.69-.29.72-44.18-16.97-44.51-16.17-.35.86,44.62,17.97,44.6,18.02-.29.71-53.25-20.39-53.6-19.52-.06.16,56.29,21.56,55.88,22.58s-59.07-22.96-59.44-22.05c-.19.47,65.47,25.78,65.24,26.36-.12.3-63.04-24.56-63.22-24.12-.07.17,60.29,23.23,59.9,24.2,0,.02-65.41-24.82-65.75-23.99-.4.98,65.34,26.28,65.3,26.38-.3.75-69.79-27.46-70.29-26.22-.37.91,66.39,26.07,66.13,26.72-.34.85-66.06-24.46-66.29-23.91-.32.8,72.42,28.87,72.29,29.21-.58,1.43-72.96-28.37-73.24-27.68-.08.2,72.85,28.96,72.69,29.37-.07.18-80.43-30.97-80.69-30.34-.15.37,77.05,29.9,76.63,30.96-.36.9-77.54-29.81-77.93-28.84-.07.18,80.18,31.06,79.72,32.21-.61,1.52-79-31.77-79.5-30.53-.36.88,84.3,33.44,84.08,33.97-.15.37-90.43-35.58-90.54-35.32-.64,1.57,90.25,34.66,89.62,36.21-.42,1.03-88.22-34.52-88.36-34.19-.59,1.47,81.76,32.35,81.52,32.94-.28.69-89.48-34.18-89.49-34.14-.06.14,96.33,38.12,96.05,38.81-.76,1.88-99.77-40.78-100.44-39.1-.58,1.44,94.6,37.33,94.29,38.1-.12.31-92.93-37.54-93.67-35.7-.34.85,100.26,39.71,99.98,40.4-.12.3-103.3-41.68-103.93-40.13-.74,1.84,102.15,40.05,101.72,41.1-.78,1.92-104.21-40.98-104.69-39.79-.51,1.27,106.1,41.81,105.73,42.72-.72,1.78-108.34-43.41-108.69-42.53-.59,1.47,109.35,42.72,108.85,43.98-.16.4-110-43.83-110.79-41.87-.51,1.27,112.84,44.3,112.39,45.41-.13.32-113.02-43.07-113.16-42.72-.18.44,107.18,41.27,106.47,43.02-.45,1.12-112.47-46.42-113.34-44.28-.19.48,114.75,46.25,114.71,46.34-.58,1.43-116.56-46.38-117.05-45.15-.31.76,116.68,45.67,116.17,46.93-.18.43-121.82-49.17-122.45-47.62-.17.42,126.58,49.71,126.09,50.94-.39.96-129.8-50.65-130.27-49.5s132.16,50.93,131.31,53.05c-.12.29-127.2-51.71-128.17-49.3-.49,1.21,122.27,47.35,121.56,49.11-.29.71-132.31-52.04-132.51-51.55-.9,2.23,138.4,53.34,137.5,55.56-.35.87-133.65-53.29-134.51-51.16-.64,1.59,133.88,51.03,132.82,53.66-.93,2.31-135.25-54.02-135.61-53.11-.9,2.22,136.11,52.3,135.18,54.61-.64,1.58-140.88-57.28-141.58-55.55-.81,2.01,145.65,56.89,144.97,58.57-.98,2.43-151.63-59.43-152.04-58.41-.93,2.31,146.9,58.98,146.77,59.3-.96,2.37-142.55-58.01-143.17-56.46-.87,2.16,148.44,59.25,148.19,59.87-1.1,2.73-155.92-63.63-156.87-61.26-.5,1.23,160.49,61.92,159.48,64.43-1.15,2.86-158.24-64.64-159.32-61.95-1.17,2.89,157.88,60.72,156.81,63.36-.31.76-155.86-62.77-156.62-60.89,0,.01,151.24,61.01,151.2,61.09-.48,1.18-159.54-63.05-159.93-62.09-1.31,3.25,162.32,61.99,161.07,65.08-1.11,2.75-168.22-65.96-168.64-64.93s171.8,66.89,170.92,69.06c-1.04,2.56-171.5-67.05-171.71-66.51-.65,1.61,169.81,67.68,169.49,68.48-1.11,2.74-170.69-67.85-171.41-66.07-.5,1.25,171.65,66.15,170.54,68.9-.39.97-178.48-72.46-179.72-69.4-1.33,3.29,181.06,69.67,179.85,72.66-.11.26-180.77-72.03-181.23-70.89-.7,1.73,185.75,72.85,184.99,74.74-.12.3-191.08-79.36-192.56-75.71-1.4,3.46,190.03,75.02,189.42,76.53-.36.88-185.07-76.73-186.34-73.59-.42,1.04,191.18,75.06,190.42,76.93-1.41,3.5-198.79-81.75-200.25-78.14s195.7,76.59,194.84,78.72c-.79,1.95-191.73-79.02-192.77-76.45-.22.55,199.19,79.97,199.01,80.41-1.35,3.34-208.1-81.72-208.29-81.25-.82,2.04,203.08,80.32,202.48,81.81-1.13,2.79-197.07-79.63-198.16-76.94-.22.53,198.5,76.48,197.2,79.68-.34.85-202.83-82.89-203.76-80.6s208.22,83.97,208.17,84.1c-1.44,3.57-209.49-82.25-209.54-82.13-.6,1.49,210.09,80.32,208.51,84.24-.04.11-218.35-86.02-218.54-85.55-.97,2.4,224.71,86.44,223.2,90.18-.26.66-225.54-93.35-227.29-89.01-.91,2.25,225.07,90.69,224.98,90.9-.74,1.84-223.12-93.11-224.79-88.99-.66,1.63,221.79,89.26,221.67,89.56-.98,2.43-228.19-92.93-229.39-89.96-.32.79,233.03,92.95,232.61,93.98-.09.24-229.25-92.98-230.12-90.83-.39.97,232.3,90.85,231.25,93.43-.84,2.09-235.6-92.91-235.82-92.38-.63,1.55,234.85,90.42,233.29,94.26-.03.07-233.85-93.27-234.08-92.71-.66,1.63,236.45,94.73,236.17,95.42-.13.32-240.49-97.79-241.24-95.91-1.07,2.64,239.7,93.07,238.39,96.32-.32.8-240.09-98.76-241.77-94.59-.16.4,246.47,95.39,245.01,98.99-.93,2.31-251.71-100.91-252.44-99.12-1.98,4.9,246.77,96.5,245.66,99.25S79.68,85.12,79.6,85.3c-.22.54,251.82,96.96,250.16,101.07-1.77,4.37-255.59-101.33-255.82-100.74-1.25,3.09,253.3,97.02,251.45,101.59-.57,1.42-258.4-104.99-259.69-101.8-1.99,4.92,265.43,104.94,264.63,106.92-.34.83-268.12-109.35-269.22-106.61-.73,1.81,271.25,107.61,270.56,109.31-1.47,3.64-265.04-105.25-265.09-105.14-.86,2.13,261.72,103.81,261.05,105.47-.75,1.86-263.26-104.43-263.58-103.65-.04.09,266.86,102.03,264.85,107.01-.61,1.51-267.16-110.76-268.99-106.22-.36.9,269.3,107.05,268.69,108.56-1.83,4.54-264.95-108.76-266.5-104.93-1.89,4.68,264.68,101.79,262.89,106.22-1.97,4.88-263.94-110.47-265.71-106.1-1.1,2.72,269.85,104.5,268.28,108.39-.71,1.75-263.83-109.04-265.76-104.26-1.01,2.5,262.85,105.82,262.72,106.15-1.03,2.54-265.98-106.14-266.31-105.32-.08.2,266.38,106.79,266.09,107.51-2.09,5.16-265.6-105.57-265.7-105.32-1.46,3.61,270.3,108.99,270.22,109.18-1.53,3.78-267.49-106.01-267.87-105.07-1.58,3.91,265.77,103.86,264.55,106.88-.9,2.22-258.83-105.39-259.6-103.49-1.49,3.68,263.03,101.71,261.44,105.63-1.46,3.62-260.12-108.48-262.22-103.28-1.26,3.13,265.09,105.95,264.69,106.94-.32.8-269.05-109.05-269.63-107.62-1.43,3.53,267.23,101.89,265.12,107.11-1.54,3.82-264.49-105.19-264.61-104.88-.58,1.43,269.2,103.36,267.32,108-1.29,3.19-261.38-107.45-262.63-104.37-.32.79,262.86,104.81,262.37,106.01-1.09,2.69-261.55-107.35-262.81-104.22-.33.82,267.54,105.24,266.55,107.69-.36.9-264.42-109.61-266.21-105.18-1.65,4.1,260.4,105.13,260.37,105.2-1.6,3.97-262.17-104.81-262.64-103.66-.97,2.39,262.76,101.27,261.06,105.48-1.41,3.49-261.46-107.84-263.23-103.45-1.96,4.84,267.58,103.72,266.06,107.49-.74,1.83-267.47-110.43-269.01-106.62-.56,1.39,271.94,109.3,271.74,109.79-1.37,3.39-270.73-109.47-271.59-107.33-.77,1.91,269.39,108.59,269.3,108.81-1.39,3.45-261.3-109.93-263.33-104.93-1.52,3.77,267.63,103.06,265.87,107.42-1.01,2.51-268.29-110.16-269.53-107.08-1.5,3.72,264.84,104.87,264.1,106.7-1.21,3-257.72-108.07-259.65-103.29-.04.11,266.68,102.8,264.96,107.05-1.42,3.5-263.23-109.9-264.84-105.91-1.47,3.64,265.48,101.19,263.37,106.41-.68,1.68-262.14-108.26-263.54-104.79-.41,1.01,260.66,102.19,259.57,104.87-.19.47-261.08-109.35-262.96-104.68-1.5,3.71,269.11,107.83,268.8,108.6-1.53,3.78-261.92-109.84-263.74-105.33-1.49,3.68,261.1,105.42,261.08,105.48-1.6,3.95-260.82-107.82-262.31-104.12-1.4,3.48,267.72,107.85,267.61,108.12-.69,1.71-268.24-108.72-268.79-107.36-.91,2.26,262.01,100.24,260.06,105.07-.97,2.41-258.78-104.98-260.02-101.91-.19.46,263.15,105.69,262.93,106.23-1.31,3.24-268.56-105.92-268.62-105.77-1.19,2.94,268.33,103.84,266.74,107.77-1.99,4.92-265.47-109.75-266.88-106.24s267.65,107.64,267.48,108.07c-.31.77-262.87-109.69-264.82-104.87-2.05,5.08,272.97,106.69,271.72,109.78-1.62,4-267-108.46-268.22-105.44-1.98,4.9,268.24,105.51,267.25,107.98-1.48,3.66-265.67-108.38-267.02-105.03-1.64,4.05,266.36,103.83,265.04,107.08-.56,1.38-262.17-105.7-263.01-103.62-1.97,4.88,260.28,102.23,259.26,104.75-1.35,3.33-260.25-103.89-260.7-102.76-.68,1.68,264.11,104.42,263.31,106.39-.02.04-264.41-107.21-265.64-104.18-.6,1.49,270.24,105.8,269.07,108.71-1.1,2.72-273.33-108.89-273.41-108.69-.71,1.76,266.23,106.03,265.7,107.35-.5,1.25-259.62-107.9-261.66-102.87-1.38,3.42,268.25,102.29,266.14,107.53-1.31,3.24-265.56-106.54-266.03-105.37-.68,1.68,263.29,101.42,261.57,105.68-.93,2.31-258.56-104.27-258.91-103.39-.71,1.75,265.14,106.91,265.07,107.09-.38.94-268.74-108.78-269.43-107.08-1.95,4.83,269,106.4,268.2,108.36-1.3,3.21-269.29-107.55-269.33-107.43-.16.4,273.85,104.53,271.73,109.78-.4.98-267.86-109.03-268.84-106.6-2.07,5.12,264.82,104.93,264.1,106.7-1.61,3.98-259.88-108.2-261.7-103.69-.47,1.17,263.9,105.92,263.65,106.52-.61,1.52-269.3-108.91-270.39-106.21-1.02,2.51,274.75,106.27,273.1,110.34-.78,1.93-267.49-109.68-268.79-106.46-.89,2.19,264.95,104.78,264.17,106.73-1.97,4.88-261.55-106.33-262.45-104.09-2.14,5.31,260.49,103.43,259.86,104.99-1.77,4.39-257.36-103.51-257.76-102.52-.98,2.44,259.91,102.54,259.05,104.66-1.54,3.81-257.59-107.97-259.54-103.15-1.44,3.57,264.36,103.04,263.05,106.28-1.64,4.06-269.57-110.1-271-106.56-.78,1.93,269.88,104.83,268.42,108.45-.61,1.51-265.82-110.24-267.21-106.8-.87,2.15,266.39,103.27,264.87,107.02-.97,2.41-257.59-107.9-259.39-103.44-1.45,3.6,263.49,106.29,263.43,106.43-.2.49-264.36-107.11-265.33-104.72-1.86,4.61,270.59,108.29,270.23,109.18-1.15,2.84-274.84-111.47-275.59-109.6-2.08,5.15,274.02,105.82,272.32,110.02-.57,1.4-264.17-107.56-265.56-104.13-1.78,4.42,264.49,101.52,262.63,106.11,0,0-264.63-109.34-265.95-106.08-.91,2.25,272.01,104.69,270.2,109.17-2.19,5.41-271.28-111.58-272.83-107.74-1.35,3.34,267.22,105.37,266.32,107.6-1.03,2.54-263.62-106.87-264.45-104.82-2.06,5.1,268.48,104.89,267.23,107.97-.21.51-264.93-106.13-265.26-105.31-.62,1.52,264.92,101.41,262.97,106.25-.2.48-258.92-108.54-260.99-103.41s262.71,105.79,262.59,106.09S64.34,217.95,63.58,219.82c-1.68,4.17,261.95,101.92,260.59,105.28-1.71,4.24-259.04-105.24-260.12-102.56s264.41,101.09,262.42,106.02c-1.43,3.54-259.26-107.55-260.93-103.41-.19.46,267.03,106.87,266.67,107.74-.3.73-264.64-107.59-265.88-104.52s261.93,103.72,261.19,105.53c-2.08,5.14-265.7-109.16-266.73-106.6-1.47,3.64,268.95,106.01,268.03,108.29-1.89,4.69-267.34-107.91-267.88-106.59-1.02,2.53,272.68,106.49,271.4,109.65-1.11,2.75-270.49-109.93-271.56-107.28-.81,2,267.53,104.74,266.36,107.62-.89,2.19-263.84-104.48-263.96-104.2-1.11,2.75,266.43,103.48,264.98,107.06-.13.32-267.5-110.95-269.52-105.96-1.87,4.64,274.23,108.65,273.48,110.49-.04.09-272.06-109.02-272.26-108.52-.68,1.69,268.98,107.55,268.59,108.52-.02.05-268.32-113.46-270.49-108.08-.41,1.02,276.48,106.84,274.8,111.02-2.15,5.31-271.78-109.64-272.76-107.22-.04.09,266.84,102.09,264.85,107.01-.5,1.24-264.81-110.4-266.84-105.36-1.63,4.02,272.01,106.99,271,109.49-.7,1.73-263.4-106.33-264.34-104-.77,1.89,264.6,101.89,262.86,106.2-1.97,4.88-267.72-109.03-269.14-105.52-.98,2.42,271.82,104.55,269.98,109.08-2,4.94-267.13-105.56-267.15-105.5-.92,2.29,268.92,105.2,267.72,108.17-.75,1.87-264.55-110.4-266.3-106.07-1.1,2.73,263.46,105.77,263.23,106.35-1.42,3.51-266.47-106.46-266.75-105.78-1.61,3.98,274.32,106.65,272.86,110.24-1.23,3.03-266.82-110.37-268.71-105.71-1.7,4.21,262.1,104.81,261.72,105.74-.62,1.55-258.1-102.35-258.55-101.24-.14.35,260.63,103.15,259.89,105-.08.19-263.51-109.29-265.2-105.11s263.32,105.68,263.07,106.29c-1.77,4.39-258.42-101.72-258.47-101.6-.25.63,258.63,103.52,258.29,104.35-1.82,4.5-257.22-103.98-257.98-102.1-1.28,3.16,267.05,107.07,266.77,107.78S62.71,273.27,62.6,273.56c-1.57,3.89,271.28,106.44,270.18,109.16-.15.38-273.27-108.31-273.63-107.4-1.22,3.02,267.45,103.06,265.72,107.36-1.27,3.13-261.77-107.19-263.06-104-1.58,3.9,265.94,103.69,264.63,106.92-1.61,3.98-266.44-109.65-267.96-105.89-.48,1.2,268.48,105.56,267.47,108.06-2.02,5-263.04-105.36-263.74-103.62-1.03,2.54,267.31,106.77,266.88,107.83S61.42,282.57,59.95,286.22c-.69,1.71,270.71,108.84,270.53,109.3-1.75,4.33-268.68-112.16-270.64-107.3-1.04,2.56,271.07,106.55,270.04,109.1-1.49,3.68-271.69-108.89-272.05-108.01-1.7,4.21,277.08,105.91,274.99,111.1-.55,1.35-275.08-108.93-275.3-108.39-1.38,3.41,273.03,105.93,271.5,109.69-1.3,3.22-265.12-105.88-265.3-105.44-1.04,2.57,266.8,103.12,265.18,107.14-1.91,4.73-265.11-108.2-266.51-104.74-.97,2.4,272.17,103.79,270.02,109.1-1.06,2.62-266.2-107.92-267.2-105.46-.75,1.86,266.23,106.44,265.84,107.41-.43,1.07-268.57-111.19-270.43-106.6-1.39,3.43,266.53,105.56,265.79,107.39-1.94,4.79-259.49-103.07-259.81-102.27-.04.09,261.95,102.48,260.78,105.36-2.05,5.07-267.99-108.34-268.49-107.1-.81,2.01,276.07,105.71,274.05,110.72-1.54,3.82-268.04-107.63-268.84-105.65,0,0,262.08,103.49,261.25,105.55-.45,1.11-261.64-107.02-263.07-103.49s266.48,105.52,265.73,107.36c-1.86,4.59-260.95-107.86-262.9-103.03-1.67,4.15,264.64,101.19,262.65,106.12-.15.38-265.66-106.62-265.84-106.17-1.6,3.96,269.33,103.9,267.62,108.12-1.42,3.52-266.27-109.78-267.83-105.9s264.1,102,262.47,106.04c-1,2.47-263-103.35-263.01-103.32-1.33,3.29,270.39,104.53,268.75,108.58-1.17,2.89-263.45-106.29-264.26-104.28-.24.59,265.82,105.99,265.33,107.2-2,4.96-267.25-107.15-267.67-106.12-1.77,4.39,269.95,103.89,268.16,108.34-1.7,4.22-269.49-113.4-271.55-108.28-1.12,2.76,266.9,102.82,265.15,107.13-.33.83-263.8-106.1-264.08-105.4-1.22,3.01,273.18,106.18,271.73,109.78-.95,2.35-273.51-112-274.62-109.26-1.98,4.9,268.03,108.01,267.94,108.25-1.67,4.12-260.15-105.05-261.01-102.91-.93,2.3,260.34,102.87,259.53,104.86-.47,1.16-263.1-106.98-264.07-104.58-.66,1.63,270.03,108.87,269.95,109.07-1.05,2.6-272.53-107.85-272.78-107.23-.04.1,271.6,105.1,269.99,109.08-.08.21-261.25-107.74-262.89-103.68-1.76,4.36,260.4,101.93,259.26,104.75-.21.52-258.5-102.6-258.78-101.91-1.46,3.62,264.85,102.26,263.2,106.34-.5,1.23-262.83-104.36-263.26-103.3-1.63,4.02,264.16,100.61,262.03,105.87-.38.95-264.72-106.68-265.31-105.24-.45,1.12,268.85,106.27,268.03,108.29-.98,2.42-263.85-105.21-264.16-104.45-1.18,2.91,262.64,102.61,261.42,105.62-1.8,4.46-265.12-106.84-265.42-106.1-1.09,2.7,266.83,105.4,265.99,107.47-.78,1.94-262-107.23-263.4-103.77-.39.98,263.34,103,262.16,105.92-1.48,3.67-265.25-111.6-267.18-106.82-1.78,4.42,268.76,105.46,267.67,108.15-1.02,2.53-265.13-108.03-266.21-105.34-.63,1.56,271.08,107.26,270.29,109.21-1.56,3.85-266.23-105.38-266.4-104.94-.59,1.47,262.91,105.05,262.5,106.06-.09.23-267.94-109.55-268.85-107.28-.82,2.02,274.39,106.37,272.83,110.23-1.13,2.79-265.89-106.4-266.62-104.61-.61,1.52,259.76,102.84,259.03,104.65-1.48,3.66-263.45-107.3-264.83-103.87-.19.47,265.03,104.04,263.98,106.65-1.14,2.83-262.19-107.12-263.21-104.6-.41,1.03,258.47,104.33,258.44,104.41-1.03,2.56-257.68-106.68-259.62-101.86-.26.66,258.72,100.37,257.28,103.95-.41,1.01-255.57-102.59-255.86-101.87-.08.2,245.5,98.67,245.32,99.12-.69,1.71-242.8-101.95-244.54-97.67-1.85,4.57,252.98,96.61,251.03,101.42-1.14,2.82-248.88-103.08-250.19-99.84-1.8,4.47,244.53,96.85,243.85,98.52-1.3,3.21-239.5-96.84-240.09-95.39-1.64,4.07,239.25,93.73,238.23,96.25-.28.69-244.42-98.66-245.13-96.89-1.79,4.42,242.76,93.5,241.17,97.44-.26.64-240.59-95.3-240.75-94.9-1.45,3.6,238.95,95.47,238.58,96.39-.97,2.39-233.96-94.82-234.81-92.74-1.73,4.29,234.63,91.73,233.57,94.37-.06.14-229.15-95.62-230.75-91.68-.38.95,225.14,86.04,223.43,90.27s-222.64-90.67-224-87.32c-.37.91,226.91,87.75,225.55,91.13s-226.3-91.37-227.37-88.71c-.08.19,215.44,83.95,214.37,86.61-1.45,3.6-217.56-87.39-218.07-86.13-.46,1.14,218.98,85.71,218.02,88.09-1.53,3.78-215.95-85.93-216.51-84.53-.46,1.14,216.69,87.22,216.57,87.5-1.04,2.58-214.64-89.55-216.25-85.57-.23.58,209.84,80.21,208.25,84.14-1.14,2.82-204.18-83.31-204.98-81.32-1.55,3.85,204.14,78.42,202.73,81.91s-202.61-82.14-203.08-80.96c-.15.37,208.43,81.88,207.62,83.88-.29.71-209.75-84.54-210.26-83.27-1.4,3.46,201.41,79.26,200.68,81.08s-202.81-80.79-203.12-80.01c-1.33,3.3,208.56,81.27,207.52,83.84-.86,2.12-206.26-85.6-207.68-82.1s198.76,75.74,197.18,79.67c-.79,1.95-189.56-78.01-191.03-74.37-.9,2.23,195.5,75.01,194.11,78.43-.6,1.48-192.4-79.72-193.9-76-1.1,2.72,187.86,73.19,186.92,75.52-.61,1.5-191.47-75.24-191.85-74.31-.27.66,189.45,74.13,188.62,76.21-1.04,2.56-188.12-74.89-188.78-73.27-1.18,2.93,180.72,72.93,180.69,73-.76,1.88-179.19-71.84-179.7-70.57-1.12,2.77,183.22,71.2,182.24,73.63-.67,1.66-176.08-71.91-176.89-69.91-.5,1.24,175.65,69.81,175.25,70.81-.8,1.98-181.94-71.49-182.33-70.53-.91,2.25,178.99,68.81,177.77,71.82-1.34,3.31-169.98-67.01-170.51-65.71-.22.54,161.92,62.24,160.82,64.98-.14.35-164.65-64.46-164.81-64.07-1.13,2.79,161.03,64.16,160.72,64.94-.51,1.26-160.48-65.84-161.51-63.29s161.42,64.27,161.09,65.08c-.83,2.05-163.8-65.8-164.72-63.53-.97,2.41,162.66,63.5,161.89,65.41-.29.72-159.33-63.71-159.94-62.22-.79,1.95,155.7,62.81,155.67,62.89-.61,1.52-152.7-59.39-153.02-58.59-.42,1.03,142.45,56.48,142.08,57.4s-137.97-55.48-138.45-54.29c-.78,1.93,143.2,55.09,142.23,57.47-1.18,2.93-147.26-58.08-147.61-57.21-.99,2.45,145.16,58.51,145.11,58.63-1.13,2.79-140.74-55.81-141.13-54.86-.77,1.9,137.16,52.25,136.06,54.97-.73,1.81-135.21-52.33-135.37-51.94-.92,2.28,132.2,51.14,131.41,53.09,0,.02-133.55-53.41-134.04-52.18-.95,2.35,128.83,51.96,128.8,52.04-.05.13-124.75-49.02-125.39-47.44-.24.59,118.04,45.61,117.32,47.4-.48,1.19-123.98-48.71-124.42-47.62-.14.36,124.43,50.01,124.34,50.24-.74,1.83-117.73-45.97-118.22-44.75-.8,1.97,116.8,44.85,115.98,46.86-.29.72-116.88-45.07-116.93-44.96-.59,1.46,111.86,44,111.44,45.03-.1.26-114.77-45.13-115.41-43.55-.06.16,107.46,41.02,106.62,43.08-.43,1.06-103.06-41.36-103.89-39.32-.6,1.5,107.74,41.63,107.08,43.26-.26.65-109-43.09-109.07-42.9-.77,1.91,104.62,41,104.18,42.09s-101.86-39.48-102.28-38.42c-.13.32,99.26,37.94,98.51,39.8-.38.94-95.38-38.9-95.9-37.6-.3.73,88.89,35.57,88.77,35.87-.56,1.37-88.33-35.78-88.81-34.58-.29.71,94.9,37.27,94.53,38.19-.14.35-101.04-39.46-101.4-38.57-.23.58,92.52,36.03,92.05,37.19-.28.68-84.35-33.42-84.86-32.14-.42,1.04,87.21,33.28,86.53,34.96-.62,1.54-87.82-34.06-88.42-32.57-.14.35,85.2,32.64,84.58,34.17-.14.34-89.13-34.99-89.44-34.24-.24.59,85.39,32.88,84.82,34.27-.64,1.59-83.74-33.84-84.29-32.48-.51,1.26,83.52,31.93,82.89,33.49-.35.87-78.06-29.54-78.17-29.27-.39.97,70.18,26.91,69.68,28.15-.38.95-71.58-26.25-71.74-25.85-.24.59,67.88,26.89,67.69,27.35-.36.89-72.16-27.02-72.18-26.96-.52,1.3,72.78,28.69,72.53,29.31-.14.36-66.58-26.59-66.86-25.9,0,.02,62.61,24.32,62.27,25.16-.05.12-63.37-24.87-63.73-23.98-.12.29,64.55,24.87,64.13,25.91-.24.58-63.57-23.77-63.82-23.17-.18.45,62.38,24.78,62.23,25.14-.41,1-62.91-25.36-63.41-24.12-.29.72,58.01,23.11,57.9,23.39-.28.69-54.1-20.36-54.34-19.78-.1.24,46.04,18.28,45.93,18.56-.05.13-45.02-16.01-45.33-15.25-.12.3,46.18,18.52,46.14,18.64-.13.31-46.43-18.49-46.72-17.79-.26.65,40.22,15.7,40.03,16.17s-42.34-15.84-42.66-15.06c-.27.68,44.99,18.02,44.93,18.15-.31.78-45.88-16.74-45.92-16.65-.16.4,40.17,15.46,39.9,16.12-.11.28-41.94-15.89-42.08-15.55-.01.03,42.04,16.5,41.87,16.92-.02.04-36.47-13.58-36.54-13.4-.14.36,34.56,13.53,34.41,13.9-.16.41-36.41-13.28-36.61-12.78-.18.45,36.51,14.71,36.49,14.74-.01.03-33.69-11.14-33.88-10.67-.1.25,25.77,10.32,25.73,10.4-.11.28-24.96-7.5-25.1-7.15-.11.26,21.33,8.35,21.24,8.58-.16.4-23.31-7-23.42-6.73-.04.09,17.1,6.45,16.94,6.84,0,.02-19.08-6.07-19.23-5.69-.12.29,19.66,7.83,19.62,7.93-.08.19-14.34-4.34-14.39-4.2s7.52,2.82,7.44,3.01c-.05.11-14.31-3.72-14.33-3.66-.1.24,17.57,6.96,17.52,7.08-.02.04-16.7-5.75-16.82-5.45-.06.15,15.46,6.19,15.44,6.24-.05.12-16.43-4.17-16.5-4.01-.02.05,8.84,3.55,8.83,3.57-.02.05-5.67.04-5.69.07s2.75,1.08,2.74,1.11c0,.02-4.82-.48-4.86-.39,0,0,5.62,2.27,5.62,2.27"/>
            </g>
            <polygon class="cls-6" points="62.05 88.11 62.05 541.93 328.54 470.53 328.54 16.7 62.05 88.11"/>
            <line class="cls-4" x1="96.99" y1="258.8" x2="189.12" y2="283.49"/>
            <path class="cls-9" d="m182.84,381.08c-.06.21-.25.35-.47.35-.05,0-.09,0-.14-.02l-3.37-.99c-.26-.08-.41-.34-.33-.6s.34-.41.6-.33l3.37.99c.26.08.41.35.33.6Z"/>
            <g>
              <text class="cls-2" transform="translate(341.88 315.83) rotate(15)"><tspan x="0" y="0">E</tspan></text>
              <text class="cls-2" transform="translate(352.15 318.58) rotate(15)"><tspan x="0" y="0">j</tspan></text>
              <text class="cls-2" transform="translate(356.7 319.8) rotate(15)"><tspan x="0" y="0">e</tspan></text>
              <text class="cls-2" transform="translate(366.26 322.36) rotate(15)"><tspan x="0" y="0"> </tspan></text>
              <text class="cls-2" transform="translate(370.48 323.49) rotate(15)"><tspan x="0" y="0">s</tspan></text>
              <text class="cls-2" transform="translate(378.97 325.77) rotate(15)"><tspan x="0" y="0">a</tspan></text>
              <text class="cls-2" transform="translate(388.58 328.34) rotate(15)"><tspan x="0" y="0">g</tspan></text>
              <text class="cls-2" transform="translate(398.62 331.03) rotate(15)"><tspan x="0" y="0">i</tspan></text>
              <text class="cls-2" transform="translate(403.17 332.25) rotate(15)"><tspan x="0" y="0">t</tspan></text>
              <text class="cls-2" transform="translate(409.36 333.91) rotate(15)"><tspan x="0" y="0">a</tspan></text>
              <text class="cls-2" transform="translate(418.98 336.49) rotate(15)"><tspan x="0" y="0">l</tspan></text>
              <text class="cls-2" transform="translate(423.5 337.72)"><tspan x="0" y="0"> </tspan></text>
            </g>
            <text class="cls-3" transform="translate(337.77 62.32)"><tspan x="0" y="0">PLANO</tspan><tspan x="0" y="18">FRON</tspan><tspan class="cls-12" x="46.36" y="18">T</tspan><tspan x="55.72" y="18">AL</tspan></text>
            <g>
              <path class="cls-10" d="m273.9,271.9c-4.27-3.04-15.57-11.64-17.93-19.23-2.92-9.4-1.24-15.09-2.08-30.71-.41-7.75-1.91-14.85-3.31-20.05-1.67-6.19-2.27-12.62-1.84-19.02.49-7.38.87-17.68.15-27.52-.87-12.05-10.8-21.41-22.86-21.69-1.88-.04-3.95-.06-6.2-.04.92-.84,1.67-1.89,2.21-3.09,2.02-4.52,3.83-12.32,3.83-25.81,0-30.35-15.27-35.51-27.3-35.51s-23.29,5.16-23.29,22.15,7.45,16.42,7.45,29.21c0,11.08-7.79,17.14-27.17,26.18-6.24,2.91-10.5,8.85-11.27,15.69-1.19,10.55-2.6,27.17-2.18,43.99.11,4.55-.67,9.07-2.39,13.29-1.77,4.34-3.75,11.13-3.75,19.78,0,15.66,2.41,35.51,0,45.05-1.95,7.71-12.77,16.9-16.88,20.16-1.04.82-1.05,2.4,0,3.21,1.51,1.18,4.2,1.85,8.45-1.69v17.96c0,1.41,1.02,2.54,2.27,2.54.63,0,1.19-.28,1.6-.75.41-.46.67-1.09.67-1.79v3.05c0,1.41,1.01,2.55,2.27,2.55.63,0,1.19-.28,1.6-.75.4-.46.66-1.1.66-1.8v-1.29c0,1.41,1.02,2.54,2.27,2.54.62,0,1.19-.28,1.6-.75.41-.46.67-1.09.67-1.79v-4.53c0,1.11.9,2,2,2,.55,0,1.05-.22,1.41-.58.37-.36.59-.86.59-1.41v-10.53c0-1.64.08-3.28.28-4.9.25-2.06.49-5.68-.09-9.88-.5-3.57-.19-7.21,1.02-10.62,2.95-8.33,8.12-26.21,10.15-53.7.43-5.88,1.5-11.69,3.1-17.37,1.11-3.93,2.28-9.22,2.77-15.3.11-1.37.34-2.71.66-4.04,2.23,5.73,3.37,11.81,3.37,17.96v44.17c0,6.91-.84,13.79-2.54,20.49-2.05,8.09-4.59,21.94-4.59,40.9,0,22.14,1.11,37.38,2.74,46.82,1.09,6.37.51,12.9-1.71,18.96-2.59,7.1-5.48,16.83-5.48,25.02,0,14.89,5.35,33.09,2.92,44.42-2.42,11.33-3.56,16.93,2.86,23.67,0,0,.18,2.53,1.06,5.77,2.33,8.54,10.89,12.91,19.02,9.41.76-.33,1.5-.71,2.21-1.16,1.77-1.11,3.71-1.97,5.78-2.29.8-.13,1.53-.51,1.77-1.44.64-2.41,1.78-1.65-3.95-7.38,0,0-2.41-3.05-3.82-8.9-1.4-5.85-5.98-10.18-8.27-13.11l8.94-67.35c.42-3.15,1.42-6.21,3.13-8.88,1.73-2.68,3.42-7.96,1.03-17.48,0,0,7.3-5.07,10.79-30.9,0,0,.19,14.9,1.71,24.41.62,3.87.7,7.8.18,11.68-1.01,7.62-2.48,20.06-2.48,28.07,0,11.39,6.53,25.65,1.33,50.21-.7,3.33,1.72,6.48,5.11,6.73,1.44.11,2.97.1,4.44-.13,4.34-.67,8.76-.03,12.6,2.1,3.22,1.79,8.21,3.16,11.76,5.38,1.7,1.06,3.87.9,5.32-.49,1.02-.98,2.21-2.3,3.36-4.03.37-.55,1.01-.87,1.67-.84h0c.42.01.87-.34,1.26-.99.68-1.14.23-2.62-.95-3.23-1.52-.78-4.08-2.21-8.01-4.76-5.39-3.48-7.56-6.11-11.99-8.09-3.21-1.44-5.11-4.82-4.82-8.34l4.74-55.8c.31-3.67,1.46-7.21,3.16-10.48,1.47-2.83,2.65-7.71.52-15.29l1.78-10.99s12.73-28.89,1.78-66.95c0,0-2.29-14.63-2.29-39.83,0-11.9,2.09-19.75,4.12-26.43,3.51,27.34,9.68,40.3,13.08,48.46,1.38,3.33,1.9,6.95,1.59,10.55-.37,4.22.07,7.83.43,9.87.28,1.61.46,3.24.55,4.88l.56,10.52c.06,1.07.94,1.89,2,1.89h.11c1.1-.06,1.94-1,1.88-2.1l.25,4.52c.07,1.35,1.08,2.41,2.28,2.41h.11c1.2-.07,2.13-1.16,2.13-2.5l.06,1.12c.08,1.36,1.09,2.42,2.29,2.42h.11c1.25-.07,2.2-1.26,2.12-2.66l-.16-3.04c.08,1.35,1.1,2.4,2.29,2.4h.11c1.25-.07,2.2-1.26,2.12-2.65l-.96-17.94c4.43,3.3,7.08,2.5,8.53,1.23.99-.87.9-2.44-.18-3.21Z"/>
              <g>
                <path class="cls-1" d="m274.34,271.29c-3.55-2.52-15.31-11.34-17.65-18.84-1.85-5.93-1.82-10.3-1.79-16.92.02-3.75.04-8.01-.26-13.62-.43-8.08-2.05-15.44-3.34-20.2-1.63-6.04-2.24-12.35-1.81-18.78.47-7.05.88-17.57.15-27.63-.91-12.46-11.05-22.09-23.59-22.38-1.44-.03-2.96-.05-4.53-.04.47-.62.89-1.29,1.21-2.03,2.58-5.79,3.89-14.57,3.89-26.11,0-24.06-9.44-36.25-28.05-36.25-8.98,0-24.04,2.97-24.04,22.89,0,9.28,2.23,13.53,4.2,17.28,1.67,3.17,3.24,6.17,3.24,11.93,0,9.99-6.25,15.95-26.74,25.51-6.42,2.99-10.9,9.23-11.7,16.28-1.23,10.9-2.61,27.39-2.18,44.09.11,4.55-.67,8.92-2.33,12.99-1.74,4.26-3.82,11.19-3.82,20.07,0,5.31.28,11.14.55,16.79.54,11.25,1.05,21.87-.53,28.08-1.93,7.61-13.2,17.05-16.61,19.76-.68.54-1.07,1.35-1.06,2.22,0,.86.39,1.65,1.06,2.18.82.64,1.87,1.13,3.2,1.13,1.36,0,3-.51,4.96-1.88v16.44c0,1.82,1.35,3.29,3.01,3.29.56,0,1.07-.18,1.52-.46v.23c0,1.82,1.35,3.29,3.01,3.29,1.22,0,2.27-.8,2.74-1.94.5.41,1.12.66,1.79.66,1.66,0,3.01-1.48,3.01-3.29v-2.1c.38.2.8.32,1.25.32,1.51,0,2.75-1.23,2.75-2.75v-10.54c0-1.72.09-3.29.28-4.81.28-2.29.49-5.9-.1-10.07-.49-3.5-.15-7.05.99-10.26,2.93-8.27,8.15-26.26,10.19-53.9.42-5.71,1.46-11.5,3.08-17.22,1.44-5.08,2.38-10.27,2.8-15.45.03-.41.08-.83.13-1.24,1.59,4.88,2.4,9.94,2.4,15.1v44.18c0,6.87-.85,13.7-2.52,20.3-2.1,8.31-4.61,22.18-4.61,41.08,0,20.26.95,36.5,2.75,46.95,1.07,6.24.49,12.66-1.67,18.58-2.52,6.89-5.53,16.87-5.53,25.27,0,6.27.94,13.12,1.85,19.75,1.27,9.28,2.48,18.04,1.09,24.51-2.36,11.03-3.66,17.16,2.87,24.15.07.75.33,2.95,1.06,5.65,1.19,4.37,4.08,7.94,7.91,9.79,1.93.93,4,1.39,6.1,1.39,2.01,0,4.05-.43,6.03-1.28.83-.36,1.61-.76,2.31-1.21,1.86-1.17,3.71-1.91,5.5-2.18,1.25-.19,2.09-.9,2.38-1.98.09-.34.19-.62.28-.86.7-1.9.38-2.45-4.39-7.21-.25-.33-2.39-3.29-3.65-8.59-1.17-4.88-4.46-8.73-6.86-11.54-.49-.57-.95-1.11-1.35-1.61l8.9-67.04c.43-3.23,1.45-6.11,3.03-8.57,1.91-2.99,3.46-8.37,1.23-17.61,1.44-1.3,6.24-6.73,9.46-23.4.23,5.08.67,11.69,1.47,16.74.61,3.85.67,7.71.17,11.46-.93,6.99-2.49,19.96-2.49,28.17,0,3.6.63,7.4,1.36,11.79,1.58,9.57,3.55,21.47,0,38.26-.38,1.78.03,3.63,1.13,5.09,1.11,1.48,2.81,2.41,4.66,2.54,1.68.12,3.23.08,4.61-.13,4.35-.67,8.54.02,12.12,2.01,1.46.81,3.23,1.52,5.11,2.27,2.31.92,4.69,1.88,6.62,3.08.86.54,1.82.8,2.77.8,1.27,0,2.51-.47,3.47-1.39,1.26-1.21,2.43-2.61,3.47-4.15.22-.33.64-.52,1.04-.51.51.02,1.23-.2,1.92-1.35.43-.72.54-1.56.31-2.37-.23-.82-.8-1.52-1.56-1.91-1.43-.74-3.97-2.16-7.94-4.72-2.16-1.39-3.81-2.66-5.28-3.79-2.2-1.69-4.1-3.14-6.82-4.36-2.9-1.3-4.66-4.35-4.38-7.6l4.74-55.8c.29-3.38,1.32-6.82,3.08-10.2,1.54-2.98,2.72-7.99.61-15.64l1.74-10.78c.78-1.85,12.35-30.52,1.79-67.31-.14-.91-2.28-15.51-2.28-39.67,0-9.88,1.44-16.92,3.1-22.86,3.28,22.99,8.37,35.05,11.8,43.15.3.71.59,1.39.86,2.03,1.31,3.15,1.84,6.67,1.54,10.19-.36,4.2.04,7.79.44,10.06.27,1.51.44,3.08.53,4.79l.56,10.52c.08,1.46,1.29,2.6,2.74,2.6.05,0,.1,0,.15,0,.45-.02.87-.17,1.23-.38l.11,2.1c.05.86.39,1.66.97,2.25.57.57,1.29.88,2.06.88.05,0,.1,0,.15,0,.67-.04,1.27-.32,1.75-.75.16.34.37.65.63.92.57.57,1.29.88,2.06.88.05,0,.1,0,.15,0,.82-.04,1.57-.44,2.1-1.11.52-.65.77-1.48.73-2.34v-.22c.41.24.88.38,1.37.38.05,0,.1,0,.15,0,1.66-.09,2.93-1.64,2.83-3.45l-.88-16.42c1.88,1.18,3.46,1.63,4.76,1.63,1.47,0,2.6-.57,3.44-1.3.64-.56.99-1.38.94-2.23-.04-.87-.47-1.65-1.18-2.15Zm-.75,3.26c-2.27,1.98-5.8.76-10.22-3.54-.3-.29-.77-.28-1.06.01-.29.3-.28.77.01,1.06.88.86,1.71,1.57,2.5,2.18l.94,17.59c.05.99-.58,1.83-1.42,1.87-.39.02-.77-.13-1.07-.44-.32-.33-.52-.78-.54-1.27v-.25s-.8-14.63-.8-14.63c-.02-.41-.38-.73-.79-.71-.41.02-.73.37-.71.79l.65,12.15s0,0,0,0l.13,2.49.18,3.3c.03.5-.12.97-.4,1.32-.27.33-.63.53-1.01.55-.38.03-.77-.13-1.07-.44-.32-.33-.52-.78-.54-1.27l-.93-17.39c-.02-.41-.38-.73-.79-.71-.41.02-.73.37-.71.79l.74,13.83s0,0,0,0l.12,2.27c.05.99-.58,1.83-1.42,1.87-.39.03-.77-.13-1.07-.44-.32-.33-.52-.78-.54-1.27l-.4-7.36s0,0,0,0l-.53-9.83c-.02-.41-.38-.73-.79-.71-.41.02-.73.37-.71.79l.68,12.66c.04.69-.49,1.28-1.18,1.32-.68.04-1.28-.49-1.32-1.18l-.56-10.52c-.09-1.77-.28-3.4-.55-4.97-.39-2.19-.77-5.64-.43-9.68.32-3.76-.25-7.53-1.65-10.9-.27-.65-.56-1.33-.86-2.04-3.56-8.41-8.93-21.11-12.15-46.07.2-.64.39-1.28.58-1.9,2.04-6.59,3.8-12.29,3.1-20.13.21-.49.36-1,.44-1.54.6-3.96,1.77-13.94-.23-21.02-.11-.4-.53-.63-.92-.51-.4.11-.63.53-.51.92,1.93,6.79.78,16.52.19,20.38-.18,1.23-.81,2.3-1.76,3.01-3.26,2.46-9.12,2.25-9.18,2.25-.42-.02-.76.3-.78.72s.3.76.72.78c.04,0,.22,0,.52,0,1.6,0,6.51-.2,9.63-2.56.18-.14.35-.29.52-.45.26,6.63-1.33,11.8-3.16,17.7-.21.68-.42,1.37-.64,2.07,0,0,0,0,0,.01-2.06,6.76-4.15,14.63-4.15,26.63,0,24.97,2.28,39.8,2.3,39.95l.02.09c10.74,37.33-1.62,66.15-1.75,66.43l-1.33,8.16c-.15-.42-.3-.83-.47-1.26-.15-.38-.59-.57-.97-.42-.38.15-.57.59-.42.97,3.8,9.66,2.6,15.55.92,18.8-1.85,3.56-2.94,7.18-3.24,10.76l-4.74,55.8c-.33,3.88,1.79,7.53,5.26,9.09,2.56,1.14,4.3,2.48,6.52,4.18,1.48,1.14,3.17,2.43,5.37,3.85,4.02,2.59,6.6,4.04,8.07,4.79.39.2.69.56.81.99.12.41.06.83-.15,1.19-.3.51-.54.62-.59.63-.92-.05-1.81.42-2.32,1.17-.98,1.45-2.08,2.77-3.26,3.91-1.17,1.12-2.98,1.28-4.4.4-2.04-1.27-4.49-2.25-6.86-3.2-1.83-.73-3.56-1.43-4.94-2.19-3.87-2.15-8.39-2.91-13.07-2.18-1.27.2-2.71.24-4.27.12-1.42-.11-2.73-.82-3.58-1.95-.83-1.11-1.15-2.53-.86-3.88,3.62-17.06,1.62-29.12.02-38.81-.72-4.33-1.34-8.07-1.34-11.55,0-8.13,1.55-21.01,2.48-27.97.52-3.9.46-7.9-.18-11.9-1.43-8.95-1.68-22.9-1.7-24.2,1.07-8,1.78-17.96,1.81-30.34.61-.16,1.14-.55,1.48-1.12l5.37-8.9c1.5-2.48,3.87-4.26,6.67-5l3.06-.81c.4-.11.64-.51.53-.91-.11-.4-.51-.64-.91-.53l-3.06.81c-3.18.84-5.87,2.86-7.57,5.67l-5.37,8.9c-.19.32-.52.48-.89.48-.37-.01-.69-.22-.85-.55l-4.95-9.83c-1.17-2.33-3.13-4.22-5.49-5.31-.37-.17-.82-.01-.99.36-.17.37-.01.82.36.99,2.06.96,3.76,2.6,4.79,4.63l4.96,9.83c.3.59.79,1.02,1.39,1.23-.08,43.35-8.73,56.66-11.46,59.78-.34-1.23-.73-2.51-1.21-3.87-.14-.39-.56-.6-.95-.46-.39.14-.6.56-.46.95,4.49,12.81,2.29,19.21.57,21.88-1.7,2.65-2.79,5.74-3.25,9.18l-8.94,67.35-.04.31.19.25c.46.59,1.01,1.23,1.59,1.91,2.3,2.69,5.46,6.38,6.54,10.91,1.42,5.95,3.86,9.07,3.96,9.2l.06.06c4.51,4.51,4.45,4.66,4.08,5.67-.1.26-.22.59-.33,1-.09.34-.3.75-1.16.88-1.99.31-4.03,1.11-6.07,2.4-.64.4-1.35.77-2.11,1.1-3.64,1.57-7.51,1.54-10.89-.09-3.49-1.68-6.02-4.82-7.11-8.83-.85-3.12-1.03-5.6-1.04-5.63l-.02-.27-.19-.19c-6.2-6.5-5.02-12.02-2.67-23,1.44-6.72.22-15.62-1.08-25.03-.9-6.58-1.83-13.38-1.83-19.54,0-8.18,2.96-17.98,5.44-24.76,2.26-6.16,2.86-12.85,1.74-19.35-1.78-10.37-2.73-26.52-2.73-46.7,0-18.75,2.48-32.49,4.56-40.71,1.7-6.72,2.56-13.67,2.56-20.67v-44.18c0-6.18-1.12-12.23-3.33-18,.53-2.11,1.34-4.2,2.42-6.25,1.64-3.11,2.47-6.8,2.47-10.95,0-.41-.33-.75-.75-.75s-.75.33-.75.75c0,3.9-.77,7.35-2.3,10.25-1.88,3.56-2.98,7.25-3.28,10.97-.41,5.08-1.34,10.18-2.75,15.16-1.64,5.81-2.7,11.7-3.13,17.51-2.03,27.46-7.21,45.31-10.11,53.51-1.22,3.44-1.59,7.23-1.06,10.97.56,4.01.36,7.48.09,9.69-.19,1.58-.29,3.22-.29,4.99v10.54c0,.69-.56,1.25-1.25,1.25s-1.25-.56-1.25-1.25v-12.68c0-.41-.33-.75-.75-.75s-.75.33-.75.75v17.21c0,.99-.68,1.8-1.52,1.8s-1.52-.81-1.52-1.8v-16.13c0-.41-.33-.75-.75-.75s-.75.33-.75.75v17.41c0,.99-.68,1.8-1.52,1.8s-1.52-.81-1.52-1.8v-17.96c0-.41-.33-.75-.75-.75s-.75.33-.75.75v14.9c0,.99-.68,1.8-1.52,1.8s-1.52-.81-1.52-1.8v-17.61c.75-.65,1.54-1.41,2.37-2.31.28-.3.26-.78-.04-1.06-.3-.28-.78-.26-1.06.04-4.18,4.53-7.64,5.93-10.01,4.08-.31-.24-.49-.61-.49-1.01,0-.41.18-.79.5-1.04,4.49-3.57,15.15-12.72,17.13-20.56,1.63-6.43,1.11-17.16.57-28.52-.27-5.63-.55-11.44-.55-16.71,0-8.63,2.01-15.37,3.7-19.5,1.74-4.26,2.56-8.83,2.44-13.59-.42-16.61.95-33.03,2.18-43.88.74-6.53,4.89-12.31,10.84-15.09,18.7-8.72,27.6-14.97,27.6-26.86,0-6.13-1.66-9.28-3.41-12.62-1.98-3.77-4.03-7.67-4.03-16.59,0-17.68,12.26-21.4,22.54-21.4,17.62,0,26.55,11.69,26.55,34.76,0,11.33-1.27,19.91-3.76,25.5-1.7,3.8-5.9,5.93-9.97,5.06-6.13-1.3-12.88-4.3-16.35-5.96,0,0,0,0,0,0-.79-.33-1.47-.96-1.85-1.76-.48-.91-.3-1.8-.42-2.85-.24-2.17-1.52-4.18-3.31-5.36-.21-.17-.48.17-.26.33,1.57,1.25,2.57,3.11,2.62,5.1,0,1-.21,2.25.25,3.26.4,1.08,1.22,2.01,2.26,2.57.03.02.05.04.08.06.02,0,.04.02.06.03,0,0,0,0,0,0,0,0,0,0,0,0,3.55,1.7,10.37,4.72,16.62,6.05,3.29.7,6.63-.27,9.04-2.38,2.07-.02,4.05,0,5.89.04,11.77.28,21.29,9.3,22.14,21,.72,9.97.32,20.42-.15,27.42-.44,6.59.19,13.07,1.86,19.26,1.27,4.68,2.86,11.93,3.29,19.89.3,5.57.28,9.8.26,13.53-.04,6.51-.06,11.22,1.85,17.37,2.4,7.73,13.53,16.29,18.21,19.61.33.24.53.6.55,1.01.02.4-.14.77-.44,1.03Z"/>
                <path class="cls-1" d="m179.76,381.91s-2.72.46-4.24-1.06c-.29-.29-.77-.29-1.06,0s-.29.77,0,1.06c1.32,1.32,3.17,1.57,4.37,1.57.67,0,1.14-.08,1.19-.09.41-.07.68-.46.61-.87-.07-.41-.46-.67-.87-.61Z"/>
                <path class="cls-1" d="m206.25,191.64c-8.7,4.07-20.07,4.19-27.74-2.2-1.38-1.03-2.12-2.42-3.23-3.72-1.19-1.25-2.71-2.14-4.4-2.53-.29-.06-.34.37-.08.41,1.55.4,3.01,1.3,4.07,2.49,1,1.25,1.87,2.84,3.19,3.87,7.89,6.88,19.58,7.05,28.88,3.01.38-.17.55-.63.36-1.01-.19-.39-.68-.53-1.05-.32Z"/>
              </g>
              <g class="cls-11">
                <g>
                  <path class="cls-7" d="m184.3,104.93s2.5,1,2.5,1.01"/>
                  <path class="cls-7" d="m199.84,67.31s2.22.89,2.22.9c-.01.03-4.59-.62-4.59-.61,0,0,3.07,1.23,3.06,1.24,0,0-5.84-.93-5.85-.9-.01.04,4.06,1.61,4.05,1.64-.06.16-9.4-.78-9.42-.73-.03.07,5.68,2.29,5.67,2.29-.02.06-7.24-1.94-7.29-1.83-.02.04,6.09,2.44,6.08,2.46,0,.02-8.41-1.66-8.45-1.56-.01.04,6.72,2.61,6.68,2.7-.05.12-9.83-.98-9.83-.97-.03.08,7.47,2.97,7.46,3.01-.02.06-8.5-2.3-8.53-2.24-.04.09,7.73,3.06,7.71,3.11-.04.09-9.04-2.04-9.08-1.93-.03.08,8.07,3.13,8.02,3.24,0,0-2.61.49-2.63.53,0,.01.41.07.38.15-.05.12-7.71-1.77-7.73-1.72-.05.12,8.47,3.36,8.45,3.41-.06.14-7.83-1.07-7.85-1.03-.03.08,3.87,1.51,3.85,1.56,0,0-6.05-1.4-6.07-1.35-.04.09,8.83,3.48,8.8,3.56,0,.02-9.51-2.04-9.58-1.87-.02.05,9.01,3.55,8.98,3.63-.03.07-5.49.2-5.53.29s2.7,1.08,2.69,1.09c-.02.04-7.12-1.89-7.16-1.79,0,.02,9.3,3.63,9.26,3.74-.02.04-6.62-.4-6.63-.39-.01.04.32.01.28.11-.01.03,1.69,2.63,1.67,2.67-.01.03,2.48.91,2.45.99-.02.06-7.79-.59-7.83-.48,0,.02,9.82,3.84,9.78,3.95,0,.02-9.69-.8-9.73-.7-.02.05,10.09,4.05,10.08,4.07-.02.06-5.68-.96-5.7-.93,0,.01,4.66,1.83,4.64,1.88-.03.07-8.73-1.93-8.77-1.83-.06.14,10.67,4.25,10.65,4.3-.07.16-9.71-2.35-9.77-2.21-.07.17.2-.09.14.06,0,0-.45,1.1-.46,1.12s11.68,4.71,11.68,4.72c-.07.17-10.9-2.18-10.94-2.07-.04.1,12.53,4.88,12.47,5.04-.08.21-11.95-3.75-11.98-3.68-.01.02,12.69,4.97,12.64,5.11-.02.05-9-2.25-9.02-2.18s8.87,3.39,8.8,3.56c-.02.04-10.09-1.68-10.1-1.64-.04.1,11.89,4.78,11.88,4.8-.03.08-10.04-.99-10.08-.89-.04.09,10.73,4.23,10.7,4.32,0,.02-9.95-2.11-10.01-1.96-.05.12,10.25,3.96,10.19,4.12-.01.04-3.45,1.25-3.47,1.31-.04.09.79.25.76.31-.01.03-6.95-1.31-6.98-1.23,0,0,9.67,3.81,9.64,3.89,0,.01-1.14,1.93-1.15,1.96-.04.11.85.24.82.33,0,.02-9.54-2.29-9.57-2.23-.01.04,9.31,3.75,9.31,3.76-.05.13-9.87-1.5-9.88-1.45,0,.02,9.22,3.71,9.22,3.72-.02.05-9.87-2.11-9.89-2.07,0,0,9.27,3.62,9.23,3.73-.06.15-9.79-2.66-9.81-2.62-.05.11,9.29,3.7,9.27,3.75-.03.09-9.85-2.87-9.9-2.74-.04.09,9.38,3.65,9.33,3.77-.07.18-10.9-1.79-10.91-1.77-.03.06,9.56,3.81,9.54,3.86-.07.18-10.61-2.85-10.68-2.67-.05.13,9.76,3.77,9.7,3.92-.03.08-10.7-3.04-10.73-2.97-.02.06,9.87,3.91,9.85,3.98-.03.08-11.52-2.63-11.53-2.59-.06.14,10.15,3.94,10.09,4.08-.08.2-11.99-2.81-12.05-2.65-.03.07,10.38,4.09,10.35,4.18-.01.03-11.1-2.71-11.13-2.64-.05.13,2.11.67,2.05.83,0,.02-1.62,1.38-1.63,1.42,0,.02,6.31,2.41,6.26,2.53-.08.21-11.23-3.17-11.31-2.96-.06.15,10.98,4.34,10.94,4.42-.05.13-12.29-3.2-12.33-3.11-.05.13,9.31,3.59,9.25,3.74,0,.01-8.11-.75-8.13-.69-.05.13.99.25.94.38-.02.05-7.24-1.32-7.26-1.29-.06.15,11.45,4.58,11.44,4.62-.05.12-12.29-3.02-12.33-2.92-.07.17,3.3,1.11,3.22,1.3,0,0-7.09-.76-7.11-.7,0,0,11.69,4.65,11.66,4.71-.07.17-14.43-3.23-14.52-3.02-.02.06,11.4,4.43,11.34,4.58-.1.25-13.53-2.94-13.63-2.69-.02.05,10.47,4.14,10.44,4.22-.08.2-11.55-3.1-11.55-3.09,0,.02,10.02,3.9,9.97,4.03-.01.03-4.83.06-4.85.11-.02.04,1.67.57,1.63.66-.01.03-2.03.89-2.03.9-.02.06.04-.09,0,0-.02.06-8.03-.81-8.07-.71-.01.03,9.2,3.7,9.19,3.71-.06.16-10.09-1.53-10.11-1.49-.04.11,9.22,3.64,9.19,3.71-.02.06-9.79-1.54-9.83-1.45-.03.06,9.38,3.65,9.34,3.77-.04.11-9.58-2.32-9.61-2.25-.04.09,9.44,3.81,9.44,3.81-.05.14-9.71-1.06-9.77-.9-.06.14,9.47,3.82,9.47,3.82,0,0-9.7-1.52-9.7-1.52-.02.04,9.52,3.72,9.48,3.83,0,0-9.75-1.07-9.75-1.06-.02.06,9.5,3.82,9.49,3.84-.03.07-6.88-.84-6.92-.75-.01.03.36.01.31.13,0,0-3.27,1.38-3.29,1.44-.02.05,9.55,3.78,9.52,3.85-.04.09-5.51-.52-5.53-.46-.05.13,5.39,2.09,5.36,2.17s-9.57-1.85-9.64-1.68c0,.01,9.56,3.82,9.55,3.86,0,0-5.24-.51-5.25-.47-.03.08.76.26.75.3-.03.06-4.27,1.29-4.27,1.29,0,0,1.8.6,1.76.71,0,0-2.89.34-2.9.36-.05.13,9.63,3.79,9.59,3.88,0,.02-9.63-2.39-9.67-2.28-.06.15,9.64,3.8,9.61,3.88-.05.13-8.76-1.44-8.81-1.32-.06.15,3.4,1.24,3.35,1.35-.01.03-4.29-.12-4.31-.07-.02.05,9.65,3.87,9.64,3.9-.02.06-8.52-.38-8.57-.25,0,0,3.35,1.24,3.31,1.34-.01.03-4.5.51-4.52.58-.03.07,9.72,3.85,9.7,3.92-.02.04-9.72-2.3-9.72-2.3-.05.12,9.74,3.86,9.71,3.92-.03.08-9.73-.75-9.73-.73-.02.05,9.78,3.88,9.75,3.94-.01.03-9.73-.8-9.73-.79-.02.06,9.84,3.83,9.79,3.96-.02.04-5.11.46-5.12.49s1.53.45,1.47.6c-.03.07-5.13-.8-5.15-.74-.04.1,6.14,2.42,6.11,2.47-.02.05-7.04-1.55-7.06-1.51,0,0,9.6,3.72,9.54,3.85-.02.05-9.67-1.41-9.74-1.23,0,0,9.39,3.78,9.39,3.79-.06.14-9.64-2-9.66-1.96-.05.11,9.37,3.62,9.31,3.76-.07.16-9.53-2.56-9.55-2.51-.03.08,9.3,3.63,9.26,3.74-.01.03-9.81-1.56-9.83-1.49-.04.09,9.24,3.62,9.2,3.72s-5.9-.03-5.91,0c-.05.11,1.05.27,1,.4-.01.03-5.4.66-5.44.76-.02.04,7.33,2.92,7.32,2.96-.03.08-8.76-.44-8.8-.33-.01.03,9.25,3.61,9.21,3.72-.06.14-9.87-1.16-9.93-1.01-.03.07,9.3,3.64,9.26,3.74-.05.12-9.75-1.46-9.76-1.43-.04.09,9.37,3.66,9.33,3.77s-9.67-1.65-9.7-1.58c-.02.06,9.45,3.66,9.4,3.8-.04.09-9.7-1.31-9.72-1.25-.01.03,9.55,3.74,9.51,3.84s-9.58-2.6-9.63-2.46c-.03.09,9.59,3.82,9.57,3.87-.03.07-9.64-2.2-9.68-2.09-.03.06,9.69,3.84,9.67,3.91-.03.08-9.72-2.13-9.72-2.13-.05.13,9.78,3.83,9.74,3.93-.06.15-9.67-2.75-9.74-2.57-.03.08,9.81,3.84,9.77,3.95-.01.03-8.41-1.48-8.45-1.37-.02.04.95.24.9.36-.01.03-2.16.91-2.16.93-.05.12,9.89,3.82,9.83,3.97,0,.02-9.22-1.07-9.26-.95,0,0,8.66,3.35,8.61,3.48-.02.05-8.99-1.97-9.03-1.86s9.88,3.97,9.87,3.99c-.02.06-9.75-2-9.79-1.9-.06.14,9.95,3.85,9.89,3.99s-9.75-2.53-9.82-2.37c-.01.04,9.95,3.85,9.89,4-.03.07-9.73-1.36-9.77-1.27-.04.09,9.9,3.98,9.9,4-.02.05-3.17.82-3.19.87-.05.11.59.15.56.23-.03.07-6.42-1.44-6.43-1.42-.02.06,7.81,3.04,7.77,3.14-.03.06-8.34-1.6-8.36-1.56-.04.09,9.9,3.92,9.88,3.99,0,0-9.72-1.65-9.77-1.54s9.91,3.86,9.86,3.98c0,0-6.38-.05-6.41.01-.04.09.05-.07.01,0-.02.05-3.29.59-3.3.6,0,0,9.82,3.89,9.8,3.96-.01.03-3.74.86-3.76.91-.04.09.09-.14.03.01-.01.04-5.97-.01-5.99.04-.03.07,9.73,3.8,9.69,3.91-.05.12-9.7-1.27-9.72-1.21-.03.07,9.62,3.85,9.61,3.88-.02.04-9.67-1.27-9.72-1.15-.04.09,9.57,3.69,9.51,3.84-.05.12-9.63-1.87-9.67-1.75,0,.02,9.47,3.71,9.43,3.81-.05.13-9.53-2.77-9.55-2.72,0,.02,9.42,3.69,9.38,3.79,0,.02-9.6-2.04-9.67-1.87-.05.11,9.3,3.73,9.29,3.75-.07.16-9.68-1.95-9.72-1.85,0,.01,9.21,3.68,9.19,3.71-.02.04-9.69-2.3-9.72-2.23,0,.02,9.16,3.65,9.15,3.69-.02.06-10.04-1.92-10.1-1.76-.04.11,9.15,3.66,9.14,3.69-.06.15-10.54-1.51-10.57-1.44-.05.11,9.14,3.69,9.14,3.69,0,.02-10.28-2.19-10.31-2.12,0,.02,9.18,3.62,9.15,3.7-.01.03-9.79-2.94-9.84-2.83,0,0,9.19,3.56,9.14,3.69-.07.16-10.01-2.73-10.08-2.58-.05.13,9.16,3.59,9.12,3.69-.05.12-11.01-1.69-11.06-1.57,0,.02,9.07,3.64,9.06,3.66,0,.02-10.9-1.85-10.93-1.78,0,.02,9.02,3.55,8.99,3.63-.04.1-7.99-.97-8.02-.9-.02.04.35,0,.3.12-.03.07-4.77.36-4.78.38-.02.06,8.82,3.49,8.8,3.55-.03.08-10.11-2.42-10.12-2.42-.03.09,8.74,3.48,8.73,3.53-.01.03-6.09-.02-6.13.06-.02.06,3.51,1.35,3.49,1.41-.05.12-9.28-1.4-9.29-1.37-.02.06,7.74,3,7.7,3.11-.01.03-6.62-.43-6.66-.33,0,0,4.56,1.83,4.55,1.84"/>
                  <path class="cls-7" d="m165.6,183.55s2.23.9,2.23.9c0,.02-2.64.17-2.64.18,0,0,3.11,1.25,3.11,1.26,0,0-3.59,0-3.6.01-.02.04,4.15,1.65,4.14,1.67-.04.09-5.35.88-5.36.91-.03.08,6.51,2.62,6.51,2.63-.02.06-6.9-1.79-6.94-1.7-.02.06,7.37,2.95,7.36,2.97,0,0-2.2.93-2.21.96-.02.05,1.38.41,1.33.54-.04.1-8-.23-8-.23-.05.13,10.69,4.24,10.66,4.31-.03.08-10.91-3.29-10.94-3.22-.06.14,11.34,4.48,11.31,4.57-.02.06-5.89-.73-5.92-.66-.05.11,3.04,1.03,2.97,1.2,0,0-.52,1.36-.53,1.38,0,.02,2.96,1.06,2.91,1.18-.05.13-8.93-2.28-8.96-2.21-.06.16,10.65,4.22,10.62,4.29-.06.15-8.32-1.27-8.34-1.23-.04.1,5.56,2.18,5.54,2.24,0,0-6.99-1.8-7.02-1.74-.05.11,10.3,4.06,10.27,4.15,0,.02-9.85-2.19-9.92-2-.02.05,10.13,3.98,10.09,4.08-.03.07-5.55.17-5.59.26-.04.1,3.42,1.37,3.41,1.38-.02.04-7.49-2.04-7.53-1.94,0,.02,9.87,3.86,9.83,3.97-.02.04-6.69-.42-6.69-.42-.02.04.64.14.6.24-.01.03,1.62,2.6,1.6,2.64-.01.03,2.63.97,2.6,1.05-.02.06-7.79-.59-7.84-.48,0,.02,9.78,3.82,9.73,3.93,0,.02-9.69-.8-9.73-.7-.02.05,9.74,3.91,9.73,3.93-.02.06-5.42-.85-5.43-.82,0,.01,4.1,1.61,4.09,1.65-.03.07-8.35-1.77-8.39-1.68-.05.13,9.75,3.88,9.73,3.93-.07.16-9.67-2.34-9.73-2.2-.06.15,9.78,3.81,9.73,3.93-.03.06-9.67-2.77-9.73-2.62,0,.01,9.73,3.92,9.73,3.93-.06.15-9.69-1.68-9.73-1.58-.03.07,9.78,3.81,9.73,3.93-.07.17-9.71-2.83-9.73-2.78,0,.02,9.77,3.84,9.73,3.93-.02.04-6.85-1.36-6.87-1.32-.02.04,5.99,2.28,5.94,2.4-.01.03-8.79-1.15-8.8-1.12-.03.08,9.74,3.92,9.73,3.93-.03.08-9.69-.85-9.73-.75-.03.08,9.76,3.85,9.73,3.93,0,.02-9.67-1.99-9.73-1.84-.04.11,9.79,3.78,9.73,3.93-.01.04-3.41,1.27-3.43,1.32-.04.09.72.22.69.28-.01.03-6.96-1.31-6.99-1.23,0,0,9.76,3.85,9.73,3.93,0,.01-1.17,1.92-1.18,1.95-.04.11,1.17.36,1.13.46,0,.02-9.66-2.34-9.68-2.27-.02.04,9.74,3.92,9.73,3.93-.01.03-1.71,1.84-1.71,1.85-.01.02.41.15.4.16,0,.02-3.96.31-3.97.32,0,0,.52.08.47.19-.03.08-4.91-.66-4.92-.64-.05.12,9.75,3.89,9.73,3.93-.03.08-9.68-2.8-9.73-2.67-.04.09,9.77,3.81,9.72,3.93-.06.16-9.72-1.31-9.72-1.3-.03.07,9.69,3.86,9.67,3.91-.07.17-9.63-2.43-9.7-2.27-.05.13,9.69,3.75,9.63,3.89-.03.07-9.64-2.6-9.67-2.54-.02.06,9.61,3.8,9.58,3.87s-9.67-1.87-9.68-1.85c-.05.13,9.58,3.72,9.53,3.85-.06.16-9.63-1.82-9.68-1.69-.03.07,9.5,3.75,9.47,3.83-.01.03-8.66-1.71-8.68-1.65-.04.11.96.23.91.37-.01.03,1.32,2.56,1.3,2.6,0,.02,4.9,1.86,4.86,1.96-.06.16-8.43-1.98-8.49-1.82-.05.12,9.38,3.71,9.36,3.78-.04.1-9.04-1.86-9.06-1.79-.04.11,7.5,2.9,7.46,3.01,0,.01-8.46-.89-8.49-.83-.04.1,9.32,3.65,9.28,3.75-.03.07-9.58-2.28-9.6-2.23-.05.11,9.26,3.71,9.25,3.74-.03.08-8.25-1.35-8.27-1.28-.05.13.96.22.9.36,0,0-2.79,1.02-2.8,1.05,0,0,9.27,3.69,9.25,3.74-.05.11-9.79-1.27-9.84-1.13-.02.04,9.33,3.63,9.28,3.75-.07.18-9.74-1.33-9.81-1.15-.02.05,9.34,3.69,9.31,3.76-.07.16-9.58-2.3-9.59-2.29,0,.01,9.37,3.65,9.32,3.77,0,.02-3.26.71-3.28.75-.01.04,1.46.48,1.42.57,0,.02-1.16,1.24-1.16,1.25-.02.06.05-.09.01,0-.02.05-7.26-.48-7.29-.4-.01.03,9.4,3.78,9.39,3.79-.06.15-9.71-1.38-9.73-1.33-.05.11,9.45,3.73,9.42,3.81-.02.06-9.68-1.49-9.71-1.4-.03.06,9.5,3.7,9.45,3.82-.04.11-9.59-2.32-9.62-2.25-.04.09,9.47,3.82,9.47,3.83-.05.14-9.69-1.06-9.76-.89-.06.14,9.51,3.83,9.51,3.84,0,0-9.7-1.52-9.7-1.52-.02.04,9.58,3.74,9.54,3.85,0,0-9.73-1.06-9.73-1.06-.02.06,9.58,3.85,9.58,3.87-.03.07-6.9-.84-6.93-.76-.01.03.46.05.41.17,0,0-3.26,1.39-3.29,1.45-.02.05,9.67,3.83,9.64,3.89-.04.1-5.55-.54-5.57-.48-.05.13,5.53,2.14,5.49,2.22s-9.6-1.86-9.67-1.69c0,.01,9.72,3.88,9.7,3.92,0,0-5.31-.53-5.32-.5-.03.08.93.32.91.37-.03.06-4.26,1.29-4.26,1.29,0,0,1.96.67,1.92.78,0,0-2.96.31-2.97.33-.05.13,9.79,3.85,9.75,3.94,0,.02-9.69-2.42-9.74-2.3-.06.15,9.79,3.86,9.76,3.94-.05.13-8.79-1.46-8.84-1.34-.06.15,3.55,1.3,3.5,1.41-.01.03-4.36-.15-4.38-.09-.02.05,9.79,3.93,9.78,3.95-.02.06-8.51-.38-8.56-.25,0,0,3.48,1.29,3.44,1.39-.01.03-4.52.5-4.55.57-.03.07,9.85,3.9,9.82,3.97-.02.04-9.77-2.32-9.78-2.32-.05.12,9.86,3.91,9.83,3.97-.03.08-9.72-.75-9.73-.73-.02.05,9.88,3.92,9.86,3.98-.01.03-9.73-.8-9.73-.79-.03.06,9.94,3.87,9.89,4-.02.04-5.14.45-5.15.48s1.74.53,1.68.68c-.03.07-5.27-.86-5.3-.8-.04.11,6.44,2.54,6.42,2.59-.02.05-7.25-1.64-7.27-1.59,0,0,10.01,3.88,9.95,4.02-.02.05-9.71-1.42-9.78-1.25,0,0,10,4.02,9.99,4.04-.06.14-9.84-2.08-9.85-2.04-.05.12,10.09,3.9,10.03,4.05-.07.17-9.9-2.7-9.92-2.66-.03.09,10.1,3.94,10.05,4.06-.01.03-9.8-1.56-9.83-1.49-.04.1,10.15,3.98,10.11,4.08-.04.09-5.85,0-5.86.02-.05.13,2.06.65,2,.81-.01.03-5.06.81-5.1.9-.02.04,8.44,3.37,8.43,3.41-.03.08-8.46-.32-8.5-.21-.01.03,10.36,4.04,10.31,4.17-.05.14-9.75-1.11-9.81-.97-.03.08,10.08,3.94,10.04,4.06s-9.77-1.46-9.78-1.44c-.04.1,9.86,3.84,9.81,3.96-.04.11-9.7-1.66-9.73-1.59-.03.06,9.67,3.75,9.62,3.89-.04.09-9.7-1.31-9.72-1.25-.01.03,9.51,3.72,9.47,3.83s-9.55-2.59-9.6-2.45c-.03.08,9.42,3.76,9.4,3.8-.03.07-9.6-2.18-9.64-2.08-.02.06,9.36,3.71,9.33,3.77-.03.08-9.64-2.1-9.64-2.09-.05.12,9.31,3.64,9.27,3.75-.06.15-9.49-2.67-9.56-2.5-.03.08,9.28,3.63,9.24,3.73-.01.03-8.4-1.48-8.44-1.37-.01.04.34,0,.3.12-.01.03-2.12.93-2.13.95-.05.11,9.24,3.57,9.19,3.71,0,.02-9.52-1.19-9.57-1.07,0,0,7.98,3.09,7.93,3.2-.02.05-8.91-1.93-8.95-1.83-.04.09,9.19,3.7,9.19,3.71-.02.06-9.74-1.99-9.78-1.9-.05.13,9.25,3.58,9.2,3.72s-9.57-2.46-9.63-2.29c-.01.03,9.26,3.58,9.21,3.72-.03.08-9.86-1.41-9.89-1.32s9.23,3.71,9.22,3.72c-.06.15-9.67-1.92-9.73-1.77-.04.1,9.27,3.66,9.24,3.73-.04.09-8.82-2.42-8.83-2.39-.02.06,7.18,2.8,7.14,2.89-.03.06-8.17-1.53-8.19-1.49-.04.09,9.31,3.69,9.28,3.75,0,0-9.68-1.64-9.73-1.52s9.38,3.65,9.33,3.77c0,.01-9.7-1.43-9.74-1.33-.03.09,9.45,3.73,9.42,3.81-.06.16-9.63-2.02-9.65-1.96,0,0,9.53,3.77,9.5,3.84-.04.09-9.64-1.63-9.7-1.49-.04.09,9.72,3.75,9.66,3.9-.02.06-9.7-1.56-9.74-1.48-.03.07,9.86,3.85,9.82,3.97s-9.73-1.28-9.75-1.23c-.03.07,9.95,3.98,9.94,4.01-.02.04-9.73-1.3-9.78-1.17-.04.1,10.11,3.9,10.05,4.06-.05.12-9.82-1.95-9.87-1.83,0,.02,10.16,3.98,10.12,4.09-.06.14-9.98-2.95-10-2.91,0,.02,10.19,3.99,10.15,4.1,0,.02-9.85-2.14-9.92-1.97-.05.13,10.2,4.1,10.2,4.12-.07.17-9.89-2.04-9.94-1.94,0,.01,10.25,4.09,10.23,4.13-.02.04-9.97-2.41-10-2.34,0,.02,10.27,4.09,10.25,4.14-.02.06-9.86-1.84-9.92-1.69-.05.13,10.27,4.11,10.26,4.14-.06.14-9.82-1.22-9.85-1.15-.05.13,10.25,4.13,10.24,4.14,0,.01-9.92-2.05-9.95-1.98,0,.02,10.25,4.04,10.22,4.13-.01.03-10.01-3.03-10.06-2.92,0,.01,10.25,3.97,10.19,4.12-.06.16-9.93-2.7-9.99-2.54s10.2,3.99,10.16,4.1c-.04.1-9.76-1.17-9.8-1.06-.01.03,10.08,4.04,10.07,4.07,0,.02-9.77-1.39-9.79-1.32,0,.02,10,3.94,9.96,4.03s-7.06-.59-7.08-.52c-.02.05,1.32.36,1.26.51-.02.06-3.85.74-3.86.75-.03.06,9.75,3.86,9.72,3.93s-9.71-2.26-9.71-2.26c-.04.1,9.65,3.84,9.63,3.89-.01.03-5.02.43-5.05.5-.03.07,4.36,1.69,4.34,1.75-.05.12-9.23-1.37-9.24-1.35-.03.08,9.4,3.64,9.34,3.77-.02.04-9.7-1.62-9.76-1.47,0,0,9.3,3.73,9.29,3.75s-3.26,1.5-3.28,1.55c-.04.1.25.07.24.1,0,.01-7.07-1.32-7.09-1.26-.05.12,9.35,3.7,9.32,3.77-.05.13-9.64-1.97-9.65-1.95,0,0,9.39,3.73,9.37,3.78-.05.11-9.47-2.92-9.53-2.77-.04.09,9.42,3.77,9.41,3.8-.06.14-9.7-1.31-9.73-1.23,0,.02,9.71,3.75,9.65,3.9-.02.06-9.76-1.59-9.77-1.57,0,0,10.33,4.17,10.33,4.17-.07.17-10.23-2.63-10.26-2.55-.03.07,11.55,4.48,11.49,4.64-.03.09-8.84-.77-8.89-.67-.09.22,1.35.48,1.32.53,0,0,2.63,3.57,2.6,3.65,0,.02,3.77,1.43,3.74,1.51,0,.02-5.24.75-5.27.83-.05.13,3.91,1.44,3.86,1.56,0,.01-3.9-.47-3.92-.42-.01.03,10.91,4.33,10.89,4.4,0,.02-3.75,1.26-3.78,1.33-.13.32,6.63,2.46,6.55,2.65,0,.02-9.49-2.74-9.54-2.61-.15.36,13.55,5,13.39,5.41-.03.07-11.95-2.2-11.98-2.13-.09.22,5.96,2.01,5.82,2.35-.02.05,2.8,2.39,2.79,2.42-.06.14,5.41,1.87,5.3,2.14-.07.18-14.07-4.68-14.17-4.42-.02.06,11.8,4.68,11.77,4.75"/>
                  <path class="cls-7" d="m222.82,458.61c-.07.17,11.12,4.33,11.07,4.47"/>
                  <path class="cls-7" d="m217.5,448.16c-.04.11,8.9,3.49,8.86,3.58,0,0-8.21-1.62-8.21-1.61-.18.46,13.77,5.51,13.76,5.56-.02.04-15.36-4.6-15.37-4.59-.19.48,15.33,5.58,15.12,6.11-.02.06-21.89-8.19-22.04-7.82-.08.19,25.96,9.98,25.78,10.42"/>
                  <path class="cls-7" d="m202.36,297.33s2.18.88,2.18.88c0,.02-2.78.11-2.78.12,0,0,2.84,1.14,2.84,1.15,0,0-3.54.01-3.55.03-.01.03,3.62,1.44,3.61,1.46-.04.11-6.33.48-6.34.51-.03.08,6.49,2.61,6.48,2.62-.02.05-6.42-1.59-6.45-1.5-.02.05,6.51,2.61,6.51,2.63,0,.01-6.49-.85-6.51-.78-.01.03,6.64,2.58,6.6,2.67-.03.08-6.63.32-6.63.33-.03.07,6.79,2.7,6.77,2.74-.02.05-6.77-1.58-6.79-1.54-.03.07,6.87,2.72,6.85,2.77-.03.07-6.86-1.13-6.89-1.05-.03.06,7.01,2.72,6.97,2.82,0,.01-6.97-1.36-7.01-1.24,0,0,7.12,2.8,7.09,2.86-.04.11-7.11-1.53-7.13-1.48-.04.1,7.22,2.87,7.2,2.91-.04.1-5.55-.14-5.56-.11-.03.06,2.56.99,2.54,1.03,0,0-4.3-.68-4.31-.65-.03.07,7.51,2.97,7.48,3.02,0,.02-7.53-1.2-7.59-1.06-.02.04,7.71,3.04,7.68,3.1-.02.05-3.61.99-3.63,1.05-.03.08,1.48.59,1.47.6-.01.03-5.72-1.3-5.75-1.22,0,.02,8.12,3.18,8.08,3.26-.02.05-8.25-1.05-8.25-1.05-.01.03,8.39,3.29,8.36,3.38-.01.03-3.27.62-3.29.66-.01.03,1.52.53,1.49.6-.02.05-6.94-.24-6.98-.14,0,.02,9.04,3.53,9,3.64,0,.02-9.32-.65-9.36-.55-.02.05,9.52,3.82,9.51,3.84-.02.05-5.37-.83-5.38-.8,0,.01,4.11,1.62,4.1,1.66-.03.07-8.36-1.77-8.4-1.68-.05.13,9.84,3.92,9.82,3.97-.07.16-9.72-2.35-9.77-2.21-.06.15,9.9,3.85,9.85,3.98-.03.06-9.75-2.8-9.81-2.65,0,.01,9.87,3.98,9.87,3.99-.06.15-9.74-1.7-9.78-1.6-.03.08,9.95,3.88,9.9,4-.07.17-9.83-2.88-9.85-2.82,0,.02,9.95,3.91,9.91,4.01-.02.04-6.96-1.41-6.98-1.36-.02.05,6.2,2.36,6.15,2.48-.01.03-8.85-1.18-8.86-1.14-.03.08,9.98,4.01,9.98,4.03-.03.08-9.71-.85-9.75-.76-.03.09,10.08,3.98,10.05,4.06,0,.02-9.81-2.05-9.87-1.9-.05.11,10.18,3.93,10.11,4.09-.01.04-3.52,1.23-3.54,1.28-.04.1,1.23.42,1.2.48-.01.03-7.27-1.44-7.3-1.36,0,0,10.31,4.06,10.27,4.15,0,.01-1.34,1.85-1.35,1.88-.05.12,1.57.52,1.53.62,0,.02-9.82-2.4-9.85-2.34-.02.04,9.98,4.02,9.97,4.03-.01.03-1.74,1.82-1.75,1.83-.01.02.45.17.45.18,0,.02-3.96.31-3.96.32,0,0,.42.04.38.15-.03.07-4.84-.64-4.85-.62-.05.12,9.58,3.82,9.56,3.86-.03.08-9.57-2.76-9.62-2.62-.04.09,9.54,3.72,9.49,3.83-.06.16-9.73-1.31-9.73-1.3-.03.06,9.43,3.76,9.41,3.8-.07.16-9.55-2.4-9.62-2.24-.05.13,9.48,3.67,9.42,3.81-.03.07-9.56-2.57-9.59-2.51-.02.06,9.45,3.74,9.42,3.81s-9.66-1.87-9.67-1.84c-.05.13,9.49,3.69,9.43,3.81-.06.16-9.64-1.82-9.69-1.69-.03.07,9.48,3.73,9.45,3.82-.01.03-8.67-1.71-8.69-1.66-.04.11.99.24.94.38-.01.03,1.31,2.55,1.29,2.6,0,.02,4.99,1.89,4.95,2-.06.16-8.46-1.99-8.52-1.83-.05.12,9.5,3.76,9.48,3.83-.04.1-9.05-1.86-9.08-1.79-.04.11,7.67,2.96,7.62,3.08,0,.01-8.4-.87-8.43-.81-.04.1,9.55,3.74,9.51,3.84-.03.07-9.63-2.29-9.64-2.25-.05.12,9.54,3.82,9.53,3.85-.03.08-8.23-1.34-8.26-1.28-.06.14,1.27.34,1.21.49,0,0-2.76,1.03-2.77,1.06,0,0,9.61,3.82,9.59,3.88-.04.11-9.67-1.22-9.73-1.09-.02.05,9.72,3.78,9.67,3.91-.07.18-9.66-1.29-9.73-1.12-.02.05,9.9,3.91,9.87,3.99-.07.17-9.85-2.41-9.85-2.4,0,.02,10.08,3.92,10.03,4.05,0,.02-3.48.62-3.5.66s2.31.81,2.27.92c-.01.03-1.55,1.08-1.55,1.09-.03.06.99.28.94.38-.02.06-7.45-.56-7.49-.48-.01.03,10.38,4.18,10.37,4.19-.06.16-9.91-1.46-9.93-1.42-.05.13,10.42,4.11,10.38,4.19-.02.06-9.9-1.59-9.94-1.49-.03.07,10.4,4.04,10.34,4.18-.05.11-10.03-2.5-10.06-2.43-.04.1,10.29,4.16,10.29,4.16-.06.14-9.75-1.08-9.81-.92-.06.15,10.19,4.1,10.18,4.11,0,0-9.86-1.59-9.86-1.58-.02.04,10.13,3.95,10.08,4.07,0,0-9.77-1.08-9.77-1.07-.02.06,9.97,4.01,9.96,4.02-.03.07-7.01-.89-7.04-.8-.01.03.73.15.68.28,0,0-3.28,1.38-3.3,1.44-.02.05,9.79,3.88,9.77,3.95-.04.1-5.58-.55-5.6-.49-.05.13,5.56,2.16,5.53,2.23s-9.59-1.86-9.66-1.69c0,.01,9.65,3.85,9.63,3.89,0,0-5.26-.51-5.27-.48-.03.08.78.27.77.31-.03.06-4.27,1.29-4.27,1.29,0,0,1.72.57,1.68.68,0,0-2.84.36-2.85.38-.05.13,9.5,3.74,9.47,3.83,0,.02-9.57-2.37-9.62-2.25-.06.14,9.46,3.73,9.43,3.81-.05.13-8.73-1.43-8.78-1.31-.06.15,3.16,1.15,3.11,1.26-.01.03-4.21-.09-4.23-.03-.02.05,9.36,3.76,9.35,3.78-.02.06-8.64-.43-8.69-.3,0,0,3.02,1.11,2.98,1.2-.02.05,6.76,5,6.71,5.11-.14.34,27.06,10.55,26.92,10.88-.06.14-31.95-11.3-31.96-11.28-.1.25,5.97,2.24,5.91,2.39-.04.1-11.63-1.52-11.63-1.5-.02.06,10.66,4.23,10.63,4.3-.01.03-8.86-2.23-8.87-2.21-.01.03,5.39,2.12,5.37,2.17"/>
                  <path class="cls-7" d="m235.31,182.65s2.11.85,2.11.85c0,.02-2.23.34-2.23.35,0,0,2.42.97,2.42.98,0,0-2.55.42-2.56.43,0,.01,2.78,1.12,2.78,1.12-.02.06-3.07,1.81-3.08,1.83-.01.03,3.54,1.43,3.54,1.43-.01.03-3.63-.42-3.65-.37,0,.02,3.82,1.54,3.82,1.54,0,0-3.99.19-4.01.23,0,.02,4.31,1.69,4.29,1.73-.02.06-4.74,1.09-4.74,1.09-.02.05,5.2,2.07,5.19,2.1-.02.04-5.41-1.02-5.42-.99-.02.05,5.62,2.23,5.61,2.27-.02.06-5.95-.75-5.98-.68-.02.05,6.27,2.44,6.24,2.52,0,.01-6.58-1.19-6.62-1.08,0,0,6.89,2.71,6.87,2.77-.04.11-7.2-1.56-7.22-1.51-.04.1,7.45,2.96,7.44,3-.04.11-6.27-.43-6.29-.4-.03.08,3.5,1.37,3.49,1.41,0,0-5.49-1.17-5.51-1.13-.04.09,8.82,3.48,8.8,3.55,0,.02-9.28-1.95-9.35-1.77-.02.05,9.69,3.81,9.65,3.9-.03.07-5.65.13-5.69.22-.04.11,3.81,1.52,3.81,1.54-.02.05-7.81-2.18-7.85-2.07-.01.03,10.36,4.05,10.31,4.17-.02.04-6.92-.51-6.92-.51-.02.04,1.27.38,1.22.49,0,.02,1.3,2.48,1.29,2.51s3.32,1.24,3.29,1.33c-.02.06-8.01-.68-8.05-.57-.01.02,10.54,4.11,10.49,4.24,0,.02-9.83-.86-9.87-.76-.02.06,10.61,4.26,10.6,4.28-.02.06-6-1.09-6.01-1.06,0,.01,5.02,1.98,5,2.02-.03.07-8.89-1.99-8.93-1.9-.06.14,10.73,4.28,10.71,4.33-.07.17-10.25-2.58-10.31-2.43-.07.17,10.84,4.22,10.79,4.36-.03.07-10.4-3.08-10.47-2.92,0,.02,10.85,4.37,10.84,4.38-.07.16-10.19-1.89-10.24-1.79-.03.09,11.01,4.29,10.96,4.43-.07.18-10.62-3.2-10.64-3.14,0,.02,11.07,4.34,11.02,4.45-.02.04-7.72-1.72-7.74-1.67s7.38,2.82,7.32,2.96c-.01.04-9.41-1.4-9.42-1.37-.04.09,11.26,4.53,11.26,4.55-.03.08-10.13-1.03-10.17-.93s11.52,4.54,11.48,4.64c0,.02-10.64-2.4-10.7-2.24-.05.14,11.72,4.51,11.64,4.7-.02.04-4.22.93-4.25.99-.05.12,2.85,1.06,2.81,1.14-.02.04-8.38-1.9-8.42-1.81,0,0,12,4.72,11.96,4.83,0,.02-2.27,1.47-2.28,1.51-.06.14,3.51,1.28,3.46,1.4,0,.02-11.18-2.96-11.21-2.89-.02.05,11.96,4.81,11.95,4.83-.02.04-2.64,1.46-2.65,1.47-.01.03,2.12.83,2.11.85,0,.02-4.71,0-4.72.02,0,0,1.64.51,1.59.64-.03.09-5.5-.9-5.51-.88-.05.13,10.5,4.19,10.48,4.23-.04.09-10.06-2.96-10.12-2.82-.04.1,10.26,4,10.21,4.13-.06.16-9.78-1.33-9.78-1.32-.03.07,9.81,3.91,9.79,3.96-.07.17-9.64-2.44-9.71-2.28-.05.13,9.66,3.74,9.6,3.88-.03.07-9.6-2.59-9.63-2.52-.02.06,9.51,3.76,9.49,3.83s-9.61-1.85-9.62-1.82c-.05.13,9.39,3.65,9.34,3.78-.06.15-9.35-1.7-9.4-1.57-.03.06,9.09,3.58,9.05,3.66-.01.02-8.02-1.45-8.04-1.39-.04.1.25-.04.2.08-.01.03,2.44,2.99,2.41,3.05,0,.02,4.01,1.51,3.97,1.6-.05.13-7.12-1.42-7.17-1.29-.04.1,8.36,3.31,8.34,3.37-.03.08-7.42-1.19-7.44-1.13-.03.09,6.06,2.34,6.02,2.43,0,.01-6.28,0-6.3.05-.03.07,7.47,2.93,7.44,3.01-.02.05-7.33-1.35-7.34-1.32-.03.09,7.44,2.98,7.43,3-.03.07-7.3-.95-7.32-.9-.04.1,7.47,2.9,7.43,3,0,0-7.29-.84-7.31-.78,0,0,7.45,2.97,7.43,3-.03.08-7.24-.2-7.28-.1-.01.03,7.47,2.92,7.44,3-.05.13-7.21-.25-7.27-.12-.01.03,6.82,2.7,6.8,2.75-.04.1-5.99-1.11-5.99-1.1,0,0,4.29,1.69,4.28,1.73"/>
                </g>
              </g>
            </g>
            <line class="cls-4" x1="207.15" y1="288.32" x2="419.62" y2="345.26"/>
          </g>
        </g>
      </g>
    </g>
  </g>
</svg>