<?xml version="1.0" encoding="UTF-8"?>
<svg xmlns="http://www.w3.org/2000/svg" viewBox="0 0 485.62 558.63">
  <defs>
    <style>
      .cls-1 {
        letter-spacing: -.04em;
      }

      .cls-2 {
        fill: #848484;
      }

      .cls-3 {
        font-family: SairaSemiCondensed-Medium, 'Saira SemiCondensed';
        font-weight: 500;
      }

      .cls-3, .cls-4 {
        font-size: 20px;
      }

      .cls-5 {
        stroke: #000;
        stroke-dasharray: 0 0 3 6;
      }

      .cls-5, .cls-6, .cls-7, .cls-8 {
        fill: none;
      }

      .cls-5, .cls-7 {
        stroke-width: 2px;
      }

      .cls-5, .cls-8 {
        stroke-linecap: round;
        stroke-linejoin: round;
      }

      .cls-9 {
        isolation: isolate;
      }

      .cls-10 {
        opacity: .2;
      }

      .cls-11 {
        fill: #eae9e8;
      }

      .cls-4 {
        font-family: SairaSemiCondensed-Bold, 'Saira SemiCondensed';
        font-weight: 700;
      }

      .cls-4, .cls-7, .cls-12 {
        mix-blend-mode: multiply;
      }

      .cls-13 {
        letter-spacing: 0em;
      }

      .cls-7 {
        stroke-miterlimit: 10;
      }

      .cls-7, .cls-8 {
        stroke: #f21515;
      }

      .cls-12 {
        opacity: .6;
      }

      .cls-14 {
        letter-spacing: 0em;
      }

      .cls-15 {
        letter-spacing: -.01em;
      }
    </style>
  </defs>
  <g class="cls-9">
    <g id="Capa_2" data-name="Capa 2">
      <g id="Capa_1-2" data-name="Capa 1">
        <g>
          <g>
            <g class="cls-12">
              <path class="cls-8" d="m2.08,301.45s6.69-3.89,6.7-3.87c.04.08,3.69.77,3.72.83.08.14,5.31-3.3,5.41-3.12.07.13-6.77,6.78-6.67,6.95.25.43,18.38-11.05,18.57-10.72.29.5-13.5,11.34-13.32,11.65.41.71,21.75-13.02,21.95-12.67.29.5-20.13,13.69-19.77,14.32.41.7,28.28-17.01,28.57-16.5.25.43-23.34,15.9-22.96,16.56.44.76,36.91-22.87,37.58-21.7.63,1.09-36.6,24.24-36.24,24.84.73,1.27,42.82-26.01,43.38-25.05.49.85-37.11,23.27-36.63,24.1.84,1.45,44.84-27.47,45.52-26.28.64,1.11-43.12,26.52-42.42,27.73.87,1.51,56.77-35.24,57.84-33.39.53.92-53.9,31.89-52.86,33.68.6,1.03,63.46-38.9,64.44-37.2,1.05,1.81-58.38,35.02-57.62,36.33,1.31,2.27,62.44-38.13,63.34-36.57,1.31,2.28-66.41,40.02-65.64,41.35,1.16,2.02,78.9-47.68,79.82-46.09.69,1.19-73.49,43-72.48,44.75,1.33,2.31,78.61-48.13,79.8-46.07.76,1.32-74.93,43.17-73.42,45.77,1.1,1.9,85.85-52.67,87.2-50.34,1.48,2.56-89.2,51.24-87.5,54.18,1.52,2.63,98.19-58.78,99.1-57.21,1.12,1.94-91.99,52.37-90.41,55.1,1.06,1.83,96.8-59.87,98.53-56.88,1.24,2.15-101.28,59.89-100.37,61.48,1.24,2.15,108.71-66.9,110.5-63.8,1.47,2.54-106.75,61.09-105.05,64.03,1.26,2.18,117.07-71.5,118.76-68.57,1.53,2.65-114.59,65.32-112.6,68.76,1.27,2.2,118.38-73.19,120.48-69.56,1.15,1.99-116.66,67.35-114.91,70.38,1.62,2.81,125.68-75.63,127.01-73.33,1.91,3.3-128.07,73.49-126.55,76.11,1.31,2.27,140.35-84.7,141.94-81.95,1.83,3.17-136.43,77.17-134.35,80.79,2.61,4.53,136.6-82.9,138.34-79.87,2.67,4.63-143.21,80.25-140.76,84.5,2.96,5.12,148.88-92.21,151.59-87.52,1.81,3.13-145.33,80.99-142.76,85.44,1.51,2.62,151.67-90.91,153.12-88.4,2.71,4.7-148.5,84.25-146.31,88.04,2.33,4.03,158.07-97.85,160.93-92.91,3.08,5.34-164.15,93.23-162.21,96.58,1.69,2.93,163.2-100.41,165.88-95.77,2,3.46-165.96,93.97-163.82,97.67s171.99-106.22,174.99-101.03c1.88,3.26-171.93,98.49-170.03,101.78,2.43,4.22,164.88-99.04,166.54-96.15,2.21,3.82-161.21,91.55-158.81,95.7s164.76-100.87,167.25-96.56c1.64,2.84-167.79,93.43-164.82,98.58s164.52-102.78,167.9-96.94c2.44,4.23-166.06,93.02-163.2,97.98,2.65,4.58,169.25-102.88,171.48-99.01,1.95,3.38-171.7,96.27-169.09,100.79,1.5,2.61,163.8-100.45,166.35-96.04,1.95,3.37-161.93,90.86-159.23,95.54,2.86,4.95,169.13-103.76,171.78-99.18,1.67,2.9-172.98,98.03-170.8,101.8,1.96,3.39,167.43-100.45,169.07-97.61,2.76,4.77-164.17,94.1-162.29,97.37,1.78,3.08,169.63-101.76,171.29-98.89,2.01,3.48-171.57,98.11-169.72,101.33,1.56,2.71,168.42-103.96,171.33-98.92,3.07,5.32-169.75,96.56-167.81,99.92,3.01,5.22,167.43-101.33,169.45-97.83,2.31,4-168,93.47-165.18,98.35,2.65,4.59,167.46-103.64,170.47-98.42s-166.95,96.47-165.37,99.2c2.3,3.99,164.55-99.82,166.63-96.21,3.14,5.44-166.93,92.41-163.83,97.78s167.53-104.37,170.84-98.63c2.18,3.77-169.59,95.98-167.43,99.71s168.07-102.49,170.43-98.4c2.14,3.72-164.59,94.52-162.89,97.46,3.15,5.46,167.34-103.82,170.46-98.41s-172.15,96.24-169.27,101.23c2.34,4.06,166.46-101.96,169-97.57,1.79,3.1-170.32,96.69-168.18,100.4,2.89,5.01,168.55-104.88,171.83-99.2,2.36,4.09-169.22,94.01-166.14,99.34,1.73,3,171.67-105.63,174.49-100.74,3.41,5.91-174.08,95.79-170.66,101.7,3.07,5.32,166.26-101.42,168.61-97.35,2.56,4.43-168.91,95.62-166.65,99.53,2.91,5.03,173.27-106.94,176.26-101.76,1.66,2.88-171.5,97.56-169.27,101.43,2.78,4.81,167.74-103.41,170.58-98.48,2.17,3.76-164.95,94.13-163.09,97.35,3.02,5.23,161.41-97.44,163.25-94.25,2.41,4.18-167.2,94.82-164.98,98.66,3.25,5.62,168.55-105.14,171.94-99.27,1.5,2.6-164.25,93.03-161.97,96.99,1.45,2.51,163.49-99.21,165.57-95.59,2.41,4.17-154.1,86.69-151.46,91.27,1.93,3.34,150.1-93.24,152.95-88.3s-144.02,80.45-141.2,85.34c1.86,3.22,147.14-89.87,149.27-86.18,2.59,4.48-136.7,79.15-135.44,81.35,1.41,2.43,135.09-83.93,137.66-79.48,1.64,2.85-133.07,75.39-130.96,79.03,1.58,2.74,137.93-84.65,140.1-80.89,2.28,3.96-130.7,75.47-129.31,77.89,1.69,2.93,130.45-80.11,132.53-76.52,1.58,2.74-118.88,67.93-116.98,71.21,1.32,2.29,114.44-68.81,115.62-66.76,2.08,3.6-113.02,65.92-111.71,68.19,2.03,3.51,113.99-69.69,115.67-66.78,1.21,2.09-97.95,56.94-96.53,59.39s99.72-62.1,101.68-58.7c1.47,2.55-95.64,55.46-94.36,57.67,1.59,2.76,96.29-57.66,97.19-56.11,1.44,2.5-83.26,48.37-81.68,51.1,1.79,3.1,91.63-54.92,92.5-53.41.77,1.34-83.71,50.21-82.97,51.5,1.01,1.75,81.3-50.32,82.76-47.78.65,1.12-68.58,42.02-67.96,43.09,1.02,1.77,76.56-45.98,77.33-44.65,1.11,1.92-73.3,43-72.12,45.04.76,1.31,71.96-44.42,73.2-42.26.52.9-55.85,33.57-54.78,35.42.77,1.33,61.64-37.61,62.52-36.09,1.13,1.96-58.14,34.74-57.24,36.3,1.04,1.8,61.28-37.27,62.1-35.85.68,1.17-49.92,30.03-48.93,31.75.47.82,47.03-28.5,47.61-27.49.38.66-39.49,24.82-38.98,25.7.63,1.09,44.8-27.03,45.3-26.16.65,1.12-35.17,23.49-34.85,24.05s37.34-22.9,37.92-21.9c.28.49-27.49,18.07-27.09,18.77.52.9,27.18-16.69,27.61-15.94.12.2-10.29,8.69-10.1,9.02.43.74,15.39-9.64,15.72-9.07.25.43-12.67,10.26-12.42,10.68.29.5,18.59-11.3,18.84-10.87.13.22-8.59,7.78-8.43,8.07.1.16,9.57-5.71,9.65-5.57.03.06,1.79,2.37,1.84,2.45,0,0,5-2.91,5.01-2.89"/>
            </g>
            <polygon class="cls-7" points="5.08 299.36 201.74 352.04 468.19 280.65 271.55 227.96 5.08 299.36"/>
            <line class="cls-5" x1="235.74" y1="511.33" x2="235.74" y2="47.31"/>
            <path class="cls-10" d="m224.17,385.93c-.06.21-.25.35-.47.35-.05,0-.09,0-.14-.02l-3.37-.99c-.26-.08-.41-.34-.33-.6s.34-.41.6-.33l3.37.99c.26.08.41.35.33.6Z"/>
            <text class="cls-3" transform="translate(245.21 65.05)"><tspan class="cls-14" x="0" y="0">E</tspan><tspan x="10.64" y="0">je </tspan><tspan class="cls-15" x="29.6" y="0">v</tspan><tspan x="38.88" y="0">e</tspan><tspan class="cls-13" x="48.78" y="0">r</tspan><tspan x="55.62" y="0">tical</tspan></text>
            <text class="cls-4" transform="translate(371.55 228.97) rotate(14.67)"><tspan x="0" y="0">PLANO</tspan><tspan x="0" y="18">HORIZON</tspan><tspan class="cls-1" x="77.52" y="18">T</tspan><tspan x="86.88" y="18">AL</tspan></text>
            <g>
              <path class="cls-11" d="m315.24,276.76c-4.27-3.04-15.57-11.64-17.93-19.23-2.92-9.4-1.24-15.09-2.08-30.71-.41-7.75-1.91-14.85-3.31-20.05-1.67-6.19-2.27-12.62-1.84-19.02.49-7.38.87-17.68.15-27.52-.87-12.05-10.8-21.41-22.86-21.69-1.88-.04-3.95-.06-6.2-.04.92-.84,1.67-1.89,2.21-3.09,2.02-4.52,3.83-12.32,3.83-25.81,0-30.35-15.27-35.51-27.3-35.51s-23.29,5.16-23.29,22.15,7.45,16.42,7.45,29.21c0,11.08-7.79,17.14-27.17,26.18-6.24,2.91-10.5,8.85-11.27,15.69-1.19,10.55-2.6,27.17-2.18,43.99.11,4.55-.67,9.07-2.39,13.29-1.77,4.34-3.75,11.13-3.75,19.78,0,15.66,2.41,35.51,0,45.05-1.95,7.71-12.77,16.9-16.88,20.16-1.04.82-1.05,2.4,0,3.21,1.51,1.18,4.2,1.85,8.45-1.69v17.96c0,1.41,1.02,2.54,2.27,2.54.63,0,1.19-.28,1.6-.75.41-.46.67-1.09.67-1.79v3.05c0,1.41,1.01,2.55,2.27,2.55.63,0,1.19-.28,1.6-.75.4-.46.66-1.1.66-1.8v-1.29c0,1.41,1.02,2.54,2.27,2.54.62,0,1.19-.28,1.6-.75.41-.46.67-1.09.67-1.79v-4.53c0,1.11.9,2,2,2,.55,0,1.05-.22,1.41-.58.37-.36.59-.86.59-1.41v-10.53c0-1.64.08-3.28.28-4.9.25-2.06.49-5.68-.09-9.88-.5-3.57-.19-7.21,1.02-10.62,2.95-8.33,8.12-26.21,10.15-53.7.43-5.88,1.5-11.69,3.1-17.37,1.11-3.93,2.28-9.22,2.77-15.3.11-1.37.34-2.71.66-4.04,2.23,5.73,3.37,11.81,3.37,17.96v44.17c0,6.91-.84,13.79-2.54,20.49-2.05,8.09-4.59,21.94-4.59,40.9,0,22.14,1.11,37.38,2.74,46.82,1.09,6.37.51,12.9-1.71,18.96-2.59,7.1-5.48,16.83-5.48,25.02,0,14.89,5.35,33.09,2.92,44.42-2.42,11.33-3.56,16.93,2.86,23.67,0,0,.18,2.53,1.06,5.77,2.33,8.54,10.89,12.91,19.02,9.41.76-.33,1.5-.71,2.21-1.16,1.77-1.11,3.71-1.97,5.78-2.29.8-.13,1.53-.51,1.77-1.44.64-2.41,1.78-1.65-3.95-7.38,0,0-2.41-3.05-3.82-8.9-1.4-5.85-5.98-10.18-8.27-13.11l8.94-67.35c.42-3.15,1.42-6.21,3.13-8.88,1.73-2.68,3.42-7.96,1.03-17.48,0,0,7.3-5.07,10.79-30.9,0,0,.19,14.9,1.71,24.41.62,3.87.7,7.8.18,11.68-1.01,7.62-2.48,20.06-2.48,28.07,0,11.39,6.53,25.65,1.33,50.21-.7,3.33,1.72,6.48,5.11,6.73,1.44.11,2.97.1,4.44-.13,4.34-.67,8.76-.03,12.6,2.1,3.22,1.79,8.21,3.16,11.76,5.38,1.7,1.06,3.87.9,5.32-.49,1.02-.98,2.21-2.3,3.36-4.03.37-.55,1.01-.87,1.67-.84h0c.42.01.87-.34,1.26-.99.68-1.14.23-2.62-.95-3.23-1.52-.78-4.08-2.21-8.01-4.76-5.39-3.48-7.56-6.11-11.99-8.09-3.21-1.44-5.11-4.82-4.82-8.34l4.74-55.8c.31-3.67,1.46-7.21,3.16-10.48,1.47-2.83,2.65-7.71.52-15.29l1.78-10.99s12.73-28.89,1.78-66.95c0,0-2.29-14.63-2.29-39.83,0-11.9,2.09-19.75,4.12-26.43,3.51,27.34,9.68,40.3,13.08,48.46,1.38,3.33,1.9,6.95,1.59,10.55-.37,4.22.07,7.83.43,9.87.28,1.61.46,3.24.55,4.88l.56,10.52c.06,1.07.94,1.89,2,1.89h.11c1.1-.06,1.94-1,1.88-2.1l.25,4.52c.07,1.35,1.08,2.41,2.28,2.41h.11c1.2-.07,2.13-1.16,2.13-2.5l.06,1.12c.08,1.36,1.09,2.42,2.29,2.42h.11c1.25-.07,2.2-1.26,2.12-2.66l-.16-3.04c.08,1.35,1.1,2.4,2.29,2.4h.11c1.25-.07,2.2-1.26,2.12-2.65l-.96-17.94c4.43,3.3,7.08,2.5,8.53,1.23.99-.87.9-2.44-.18-3.21Z"/>
              <g>
                <path class="cls-2" d="m315.67,276.15c-3.55-2.52-15.31-11.34-17.65-18.84-1.85-5.93-1.82-10.3-1.79-16.92.02-3.75.04-8.01-.26-13.62-.43-8.08-2.05-15.44-3.34-20.2-1.63-6.04-2.24-12.35-1.81-18.78.47-7.05.88-17.57.15-27.63-.91-12.46-11.05-22.09-23.59-22.38-1.44-.03-2.96-.05-4.53-.04.47-.62.89-1.29,1.21-2.03,2.58-5.79,3.89-14.57,3.89-26.11,0-24.06-9.44-36.25-28.05-36.25-8.98,0-24.04,2.97-24.04,22.89,0,9.28,2.23,13.53,4.2,17.28,1.67,3.17,3.24,6.17,3.24,11.93,0,9.99-6.25,15.95-26.74,25.51-6.42,2.99-10.9,9.23-11.7,16.28-1.23,10.9-2.61,27.39-2.18,44.09.11,4.55-.67,8.92-2.33,12.99-1.74,4.26-3.82,11.19-3.82,20.07,0,5.31.28,11.14.55,16.79.54,11.25,1.05,21.87-.53,28.08-1.93,7.61-13.2,17.05-16.61,19.76-.68.54-1.07,1.35-1.06,2.22,0,.86.39,1.65,1.06,2.18.82.64,1.87,1.13,3.2,1.13,1.36,0,3-.51,4.96-1.88v16.44c0,1.82,1.35,3.29,3.01,3.29.56,0,1.07-.18,1.52-.46v.23c0,1.82,1.35,3.29,3.01,3.29,1.22,0,2.27-.8,2.74-1.94.5.41,1.12.66,1.79.66,1.66,0,3.01-1.48,3.01-3.29v-2.1c.38.2.8.32,1.25.32,1.51,0,2.75-1.23,2.75-2.75v-10.54c0-1.72.09-3.29.28-4.81.28-2.29.49-5.9-.1-10.07-.49-3.5-.15-7.05.99-10.26,2.93-8.27,8.15-26.26,10.19-53.9.42-5.71,1.46-11.5,3.08-17.22,1.44-5.08,2.38-10.27,2.8-15.45.03-.41.08-.83.13-1.24,1.59,4.88,2.4,9.94,2.4,15.1v44.18c0,6.87-.85,13.7-2.52,20.3-2.1,8.31-4.61,22.18-4.61,41.08,0,20.26.95,36.5,2.75,46.95,1.07,6.24.49,12.66-1.67,18.58-2.52,6.89-5.53,16.87-5.53,25.27,0,6.27.94,13.12,1.85,19.75,1.27,9.28,2.48,18.04,1.09,24.51-2.36,11.03-3.66,17.16,2.87,24.15.07.75.33,2.95,1.06,5.65,1.19,4.37,4.08,7.94,7.91,9.79,1.93.93,4,1.39,6.1,1.39,2.01,0,4.05-.43,6.03-1.28.83-.36,1.61-.76,2.31-1.21,1.86-1.17,3.71-1.91,5.5-2.18,1.25-.19,2.09-.9,2.38-1.98.09-.34.19-.62.28-.86.7-1.9.38-2.45-4.39-7.21-.25-.33-2.39-3.29-3.65-8.59-1.17-4.88-4.46-8.73-6.86-11.54-.49-.57-.95-1.11-1.35-1.61l8.9-67.04c.43-3.23,1.45-6.11,3.03-8.57,1.91-2.99,3.46-8.37,1.23-17.61,1.44-1.3,6.24-6.73,9.46-23.4.23,5.08.67,11.69,1.47,16.74.61,3.85.67,7.71.17,11.46-.93,6.99-2.49,19.96-2.49,28.17,0,3.6.63,7.4,1.36,11.79,1.58,9.57,3.55,21.47,0,38.26-.38,1.78.03,3.63,1.13,5.09,1.11,1.48,2.81,2.41,4.66,2.54,1.68.12,3.23.08,4.61-.13,4.35-.67,8.54.02,12.12,2.01,1.46.81,3.23,1.52,5.11,2.27,2.31.92,4.69,1.88,6.62,3.08.86.54,1.82.8,2.77.8,1.27,0,2.51-.47,3.47-1.39,1.26-1.21,2.43-2.61,3.47-4.15.22-.33.64-.52,1.04-.51.51.02,1.23-.2,1.92-1.35.43-.72.54-1.56.31-2.37-.23-.82-.8-1.52-1.56-1.91-1.43-.74-3.97-2.16-7.94-4.72-2.16-1.39-3.81-2.66-5.28-3.79-2.2-1.69-4.1-3.14-6.82-4.36-2.9-1.3-4.66-4.35-4.38-7.6l4.74-55.8c.29-3.38,1.32-6.82,3.08-10.2,1.54-2.98,2.72-7.99.61-15.64l1.74-10.78c.78-1.85,12.35-30.52,1.79-67.31-.14-.91-2.28-15.51-2.28-39.67,0-9.88,1.44-16.92,3.1-22.86,3.28,22.99,8.37,35.05,11.8,43.15.3.71.59,1.39.86,2.03,1.31,3.15,1.84,6.67,1.54,10.19-.36,4.2.04,7.79.44,10.06.27,1.51.44,3.08.53,4.79l.56,10.52c.08,1.46,1.29,2.6,2.74,2.6.05,0,.1,0,.15,0,.45-.02.87-.17,1.23-.38l.11,2.1c.05.86.39,1.66.97,2.25.57.57,1.29.88,2.06.88.05,0,.1,0,.15,0,.67-.04,1.27-.32,1.75-.75.16.34.37.65.63.92.57.57,1.29.88,2.06.88.05,0,.1,0,.15,0,.82-.04,1.57-.44,2.1-1.11.52-.65.77-1.48.73-2.34v-.22c.41.24.88.38,1.37.38.05,0,.1,0,.15,0,1.66-.09,2.93-1.64,2.83-3.45l-.88-16.42c1.88,1.18,3.46,1.63,4.76,1.63,1.47,0,2.6-.57,3.44-1.3.64-.56.99-1.38.94-2.23-.04-.87-.47-1.65-1.18-2.15Zm-.75,3.26c-2.27,1.98-5.8.76-10.22-3.54-.3-.29-.77-.28-1.06.01-.29.3-.28.77.01,1.06.88.86,1.71,1.57,2.5,2.18l.94,17.59c.05.99-.58,1.83-1.42,1.87-.39.02-.77-.13-1.07-.44-.32-.33-.52-.78-.54-1.27v-.25s-.8-14.63-.8-14.63c-.02-.41-.38-.73-.79-.71-.41.02-.73.37-.71.79l.65,12.15s0,0,0,0l.13,2.49.18,3.3c.03.5-.12.97-.4,1.32-.27.33-.63.53-1.01.55-.38.03-.77-.13-1.07-.44-.32-.33-.52-.78-.54-1.27l-.93-17.39c-.02-.41-.38-.73-.79-.71-.41.02-.73.37-.71.79l.74,13.83s0,0,0,0l.12,2.27c.05.99-.58,1.83-1.42,1.87-.39.03-.77-.13-1.07-.44-.32-.33-.52-.78-.54-1.27l-.4-7.36s0,0,0,0l-.53-9.83c-.02-.41-.38-.73-.79-.71-.41.02-.73.37-.71.79l.68,12.66c.04.69-.49,1.28-1.18,1.32-.68.04-1.28-.49-1.32-1.18l-.56-10.52c-.09-1.77-.28-3.4-.55-4.97-.39-2.19-.77-5.64-.43-9.68.32-3.76-.25-7.53-1.65-10.9-.27-.65-.56-1.33-.86-2.04-3.56-8.41-8.93-21.11-12.15-46.07.2-.64.39-1.28.58-1.9,2.04-6.59,3.8-12.29,3.1-20.13.21-.49.36-1,.44-1.54.6-3.96,1.77-13.94-.23-21.02-.11-.4-.53-.63-.92-.51-.4.11-.63.53-.51.92,1.93,6.79.78,16.52.19,20.38-.18,1.23-.81,2.3-1.76,3.01-3.26,2.46-9.12,2.25-9.18,2.25-.42-.02-.76.3-.78.72s.3.76.72.78c.04,0,.22,0,.52,0,1.6,0,6.51-.2,9.63-2.56.18-.14.35-.29.52-.45.26,6.63-1.33,11.8-3.16,17.7-.21.68-.42,1.37-.64,2.07,0,0,0,0,0,.01-2.06,6.76-4.15,14.63-4.15,26.63,0,24.97,2.28,39.8,2.3,39.95l.02.09c10.74,37.33-1.62,66.15-1.75,66.43l-1.33,8.16c-.15-.42-.3-.83-.47-1.26-.15-.38-.59-.57-.97-.42-.38.15-.57.59-.42.97,3.8,9.66,2.6,15.55.92,18.8-1.85,3.56-2.94,7.18-3.24,10.76l-4.74,55.8c-.33,3.88,1.79,7.53,5.26,9.09,2.56,1.14,4.3,2.48,6.52,4.18,1.48,1.14,3.17,2.43,5.37,3.85,4.02,2.59,6.6,4.04,8.07,4.79.39.2.69.56.81.99.12.41.06.83-.15,1.19-.3.51-.54.62-.59.63-.92-.05-1.81.42-2.32,1.17-.98,1.45-2.08,2.77-3.26,3.91-1.17,1.12-2.98,1.28-4.4.4-2.04-1.27-4.49-2.25-6.86-3.2-1.83-.73-3.56-1.43-4.94-2.19-3.87-2.15-8.39-2.91-13.07-2.18-1.27.2-2.71.24-4.27.12-1.42-.11-2.73-.82-3.58-1.95-.83-1.11-1.15-2.53-.86-3.88,3.62-17.06,1.62-29.12.02-38.81-.72-4.33-1.34-8.07-1.34-11.55,0-8.13,1.55-21.01,2.48-27.97.52-3.9.46-7.9-.18-11.9-1.43-8.95-1.68-22.9-1.7-24.2,1.07-8,1.78-17.96,1.81-30.34.61-.16,1.14-.55,1.48-1.12l5.37-8.9c1.5-2.48,3.87-4.26,6.67-5l3.06-.81c.4-.11.64-.51.53-.91-.11-.4-.51-.64-.91-.53l-3.06.81c-3.18.84-5.87,2.86-7.57,5.67l-5.37,8.9c-.19.32-.52.48-.89.48-.37-.01-.69-.22-.85-.55l-4.95-9.83c-1.17-2.33-3.13-4.22-5.49-5.31-.37-.17-.82-.01-.99.36-.17.37-.01.82.36.99,2.06.96,3.76,2.6,4.79,4.63l4.96,9.83c.3.59.79,1.02,1.39,1.23-.08,43.35-8.73,56.66-11.46,59.78-.34-1.23-.73-2.51-1.21-3.87-.14-.39-.56-.6-.95-.46-.39.14-.6.56-.46.95,4.49,12.81,2.29,19.21.57,21.88-1.7,2.65-2.79,5.74-3.25,9.18l-8.94,67.35-.04.31.19.25c.46.59,1.01,1.23,1.59,1.91,2.3,2.69,5.46,6.38,6.54,10.91,1.42,5.95,3.86,9.07,3.96,9.2l.06.06c4.51,4.51,4.45,4.66,4.08,5.67-.1.26-.22.59-.33,1-.09.34-.3.75-1.16.88-1.99.31-4.03,1.11-6.07,2.4-.64.4-1.35.77-2.11,1.1-3.64,1.57-7.51,1.54-10.89-.09-3.49-1.68-6.02-4.82-7.11-8.83-.85-3.12-1.03-5.6-1.04-5.63l-.02-.27-.19-.19c-6.2-6.5-5.02-12.02-2.67-23,1.44-6.72.22-15.62-1.08-25.03-.9-6.58-1.83-13.38-1.83-19.54,0-8.18,2.96-17.98,5.44-24.76,2.26-6.16,2.86-12.85,1.74-19.35-1.78-10.37-2.73-26.52-2.73-46.7,0-18.75,2.48-32.49,4.56-40.71,1.7-6.72,2.56-13.67,2.56-20.67v-44.18c0-6.18-1.12-12.23-3.33-18,.53-2.11,1.34-4.2,2.42-6.25,1.64-3.11,2.47-6.8,2.47-10.95,0-.41-.33-.75-.75-.75s-.75.33-.75.75c0,3.9-.77,7.35-2.3,10.25-1.88,3.56-2.98,7.25-3.28,10.97-.41,5.08-1.34,10.18-2.75,15.16-1.64,5.81-2.7,11.7-3.13,17.51-2.03,27.46-7.21,45.31-10.11,53.51-1.22,3.44-1.59,7.23-1.06,10.97.56,4.01.36,7.48.09,9.69-.19,1.58-.29,3.22-.29,4.99v10.54c0,.69-.56,1.25-1.25,1.25s-1.25-.56-1.25-1.25v-12.68c0-.41-.33-.75-.75-.75s-.75.33-.75.75v17.21c0,.99-.68,1.8-1.52,1.8s-1.52-.81-1.52-1.8v-16.13c0-.41-.33-.75-.75-.75s-.75.33-.75.75v17.41c0,.99-.68,1.8-1.52,1.8s-1.52-.81-1.52-1.8v-17.96c0-.41-.33-.75-.75-.75s-.75.33-.75.75v14.9c0,.99-.68,1.8-1.52,1.8s-1.52-.81-1.52-1.8v-17.61c.75-.65,1.54-1.41,2.37-2.31.28-.3.26-.78-.04-1.06-.3-.28-.78-.26-1.06.04-4.18,4.53-7.64,5.93-10.01,4.08-.31-.24-.49-.61-.49-1.01,0-.41.18-.79.5-1.04,4.49-3.57,15.15-12.72,17.13-20.56,1.63-6.43,1.11-17.16.57-28.52-.27-5.63-.55-11.44-.55-16.71,0-8.63,2.01-15.37,3.7-19.5,1.74-4.26,2.56-8.83,2.44-13.59-.42-16.61.95-33.03,2.18-43.88.74-6.53,4.89-12.31,10.84-15.09,18.7-8.72,27.6-14.97,27.6-26.86,0-6.13-1.66-9.28-3.41-12.62-1.98-3.77-4.03-7.67-4.03-16.59,0-17.68,12.26-21.4,22.54-21.4,17.62,0,26.55,11.69,26.55,34.76,0,11.33-1.27,19.91-3.76,25.5-1.7,3.8-5.9,5.93-9.97,5.06-6.13-1.3-12.88-4.3-16.35-5.96,0,0,0,0,0,0-.79-.33-1.47-.96-1.85-1.76-.48-.91-.3-1.8-.42-2.85-.24-2.17-1.52-4.18-3.31-5.36-.21-.17-.48.17-.26.33,1.57,1.25,2.57,3.11,2.62,5.1,0,1-.21,2.25.25,3.26.4,1.08,1.22,2.01,2.26,2.57.03.02.05.04.08.06.02,0,.04.02.06.03,0,0,0,0,0,0,0,0,0,0,0,0,3.55,1.7,10.37,4.72,16.62,6.05,3.29.7,6.63-.27,9.04-2.38,2.07-.02,4.05,0,5.89.04,11.77.28,21.29,9.3,22.14,21,.72,9.97.32,20.42-.15,27.42-.44,6.59.19,13.07,1.86,19.26,1.27,4.68,2.86,11.93,3.29,19.89.3,5.57.28,9.8.26,13.53-.04,6.51-.06,11.22,1.85,17.37,2.4,7.73,13.53,16.29,18.21,19.61.33.24.53.6.55,1.01.02.4-.14.77-.44,1.03Z"/>
                <path class="cls-2" d="m221.1,386.76s-2.72.46-4.24-1.06c-.29-.29-.77-.29-1.06,0s-.29.77,0,1.06c1.32,1.32,3.17,1.57,4.37,1.57.67,0,1.14-.08,1.19-.09.41-.07.68-.46.61-.87-.07-.41-.46-.67-.87-.61Z"/>
                <path class="cls-2" d="m247.58,196.5c-8.7,4.07-20.07,4.19-27.74-2.2-1.38-1.03-2.12-2.42-3.23-3.72-1.19-1.25-2.71-2.14-4.4-2.53-.29-.06-.34.37-.08.41,1.55.4,3.01,1.3,4.07,2.49,1,1.25,1.87,2.84,3.19,3.87,7.89,6.88,19.58,7.05,28.88,3.01.38-.17.55-.63.36-1.01-.19-.39-.68-.53-1.05-.32Z"/>
              </g>
              <g class="cls-12">
                <g>
                  <path class="cls-8" d="m180.85,330.31c.06.1,8.38-4.94,8.42-4.86"/>
                  <path class="cls-8" d="m165.46,304.31s1.22-.74,1.24-.71c.12.2-3.81,5.53-3.74,5.65.17.29,8.75-5.47,8.93-5.16.14.25-7.1,7.6-6.97,7.83.3.53,15.07-9.38,15.36-8.87s-16.04,12.43-15.7,13.01,23.84-14.48,24.15-13.94-19.85,13.55-19.49,14.18c.28.48,14.02-8.83,14.34-8.28.22.38-17,12.84-16.66,13.44.27.46,24-14.34,24.21-13.98.32.56-24.17,16.58-23.72,17.37.19.33,15.67-9.52,15.87-9.16.23.39-19.78,14.13-19.46,14.7.17.29,23.76-14.43,24.07-13.9.27.46-19.9,14.22-19.53,14.87.24.41,19.46-11.95,19.77-11.41.24.41-15.77,11.9-15.43,12.49.24.42,16.88-10.21,17.08-9.86.4.69-19.84,14.3-19.42,15.03.14.24,13.65-8.17,13.78-7.95"/>
                  <path class="cls-8" d="m201.2,300.52s.45-.28.46-.26c.06.11,3.11,1.62,3.14,1.68.08.13,1.57-1.1,1.65-.95.08.13-2.32,4.98-2.25,5.11.21.36,9.44-5.92,9.64-5.57.32.55-17.6,13.27-17.24,13.89.32.55,23.53-14.29,23.84-13.76s-19.68,13.46-19.32,14.08,18.68-11.7,19.07-11.01c.28.48-21.94,15.49-21.51,16.24s35.88-21.5,36.22-20.91c.47.82-36.45,23.17-35.77,24.33.39.67,35.33-21.37,35.75-20.64s-39.96,25.07-39.32,26.17c.42.73,51.34-31.4,52.1-30.08.63,1.09-49.05,29.9-48.18,31.41.75,1.3,58.67-36.15,59.66-34.44.84,1.45-60.37,35.64-59.16,37.74,1.28,2.22,77.35-47.07,78.4-45.26,1.58,2.74-84.22,48.59-82.55,51.47,1.23,2.14,80.3-48.95,81.43-47.01,1.28,2.22-77.47,44.52-76.01,47.05.73,1.26,74.97-46.17,76.22-44s-79.45,46.96-78.6,48.42c.78,1.36,77.2-46.52,78.04-45.06s-78.5,46.42-77.26,48.57c1.05,1.83,72.64-43.68,73.39-42.37.62,1.08-68.8,42.08-68.19,43.13,1.23,2.13,67.34-41.73,68.58-39.59s-68.42,41.15-67.78,42.27c1.09,1.89,66.74-40.84,67.74-39.11.73,1.27-54.86,33.23-54.23,34.33.56.98,60.55-37.34,61.58-35.55.96,1.67-55.27,34.09-54.57,35.3.77,1.34,52.44-32.51,53.41-30.84.5.87-44.9,27.4-44.13,28.74.53.92,44.89-27.15,45.43-26.23.4.7-27.66,18.87-27.17,19.71.42.73,19.12-11.7,19.41-11.21.15.26-8.5,7.87-8.41,8.03.23.4,13.17-8,13.34-7.7.1.18-4.58,5.92-4.45,6.14.01.02.99-.59,1-.58"/>
                  <path class="cls-8" d="m304.46,299.78c.06.1,4.01-2.41,4.05-2.34"/>
                  <path class="cls-8" d="m305.34,281.79c.05.09,8.05-4.74,8.09-4.67.06.1-.86,4.15-.83,4.22.05.08,2.57-1.71,2.67-1.54"/>
                  <path class="cls-8" d="m288.77,283.04s.57-.35.58-.33c.07.12,3.6,1.32,3.64,1.39.1.18,3.65-2.37,3.76-2.17.1.17-3.91,5.85-3.82,6.01.31.54,15.52-9.66,15.82-9.14.41.71-23.41,16.38-22.95,17.19.31.53,22.92-13.92,23.22-13.41s-18.22,12.68-17.89,13.25c.25.44,12.44-7.86,12.73-7.35.16.28-11.76,10.03-11.51,10.47.2.35,19.22-11.46,19.38-11.19.25.43-18.26,13.41-17.91,14.02.14.24,10.47-6.39,10.62-6.13.12.21-9.92,8.78-9.74,9.09.09.15,14.44-8.69,14.6-8.43"/>
                </g>
              </g>
            </g>
            <polyline class="cls-7" points="126.41 331.86 201.74 352.04 294.89 327.08"/>
          </g>
          <rect class="cls-6" width="485.62" height="558.63"/>
        </g>
      </g>
    </g>
  </g>
</svg>